<?xml version="1.0" encoding="UTF-8"?>
<svg width="610.52" height="584.7" version="1.0" viewBox="0 0 572.36496 548.15928" xmlns="http://www.w3.org/2000/svg"><g transform="translate(-7.7982)"><path d="m37.719 0 0.375 0.375l3.0312-0.28125 0.09375-0.09375z" color="#000000" fill="#d3ebfa" fill-rule="evenodd"/></g><g transform="translate(-7.7982)" fill="#d9d9d9" fill-rule="evenodd" stroke="#fff"><g><path id="departement2a" d="m536.29 491.78v2.1562l1.9688 1.375 3.3125 1.9375 0.21875 1.5625-1.9688 0.59375-3.125 0.59375v1.3438l1.1562 1.1875 0.21875 3.9062 4.2812 1.375 1.5625 0.375 1.375 2.1562-0.96875 1.375-1.5625 0.5625-1.1875 2.1562-1.1562 1.375 0.5625 3.5 2.9375-0.1875 0.78125 0.59375 2.75-1.375 0.78125 0.78125-1.375 2.9375 1.375 1.375-2.3438 1.75-1.5625 3.5 4.2812 1 6.0625 0.5625-2.5312 2.9375s-1.1893-0.45881-1.7188-0.21875c-0.0157 8e-3 -0.0481 0.0222-0.0625 0.0312-5e-3 3e-3 -0.0269 0.0278-0.0312 0.0312-4e-3 4e-3 -0.0272 0.0274-0.0312 0.0312-4e-3 4e-3 -0.0277 0.0269-0.0312 0.0312-7e-3 9e-3 -0.0253 0.0215-0.0312 0.0312-3e-3 5e-3 3e-3 0.026 0 0.0312-5e-3 0.0108-0.0273 0.0509-0.0312 0.0625-2e-3 6e-3 2e-3 0.0251 0 0.0312-3e-3 0.0128-0.0294 0.0489-0.0312 0.0625-1e-3 0.014 4.7e-4 0.0477 0 0.0625 1e-5 0.97656-1.3438 3.3438-1.3438 3.3438l1.9375 2.125 3.5312 2.1562 6.625 1.75 1.9375 0.78125 1.7812 0.78125-1.1875 2.1562 3.125-0.1875 0.59375 1.375h3.125l0.78125-3.7188-1.9688-0.40625 2.75-2.9062-0.96875-1 0.1875-1.75 3.5312-1.9375 0.1875-2.1562-2.3438-0.1875-1.5625 1.3438v-1.9375l3.125-0.1875 0.96875-2.3438 0.78125-6.8438-0.59375-2.9375-0.0625-2.8125-3.4062 2.25-4.0625 0.15625-0.34375-2.8125 0.53125-0.71875-1.25-0.875-0.34375-4.7812-0.53125-0.875h-2.125l-1.0625-0.875v-3.375l-1.4062-0.875-1.0625-0.53125-2.125-2.6562 0.15625-1.5938h-2.625l-0.90625-2.6562h-3.7188l-1.9375-2.6562 0.53125-0.875-1.2188-0.71875-2.8438 0.53125-1.0625-0.6875h-3.875l-0.375-1.0625-2.1875-0.40625z" color="#000000"/><path id="departement2b" d="m568.91 452.72-2.9375 1.9688 0.40625 1.9375 1.5625 1.9688-1.75 1.3438 0.78125 1.5625-1.1875 1.375v1.75l1.9688 1.7812v2.7188l-1.1875 2.5312-1.3438 0.59375-1.5625-2.1562-2.75 0.21875-0.59375-0.40625h-2.3438l-2.125 1.9688-0.8125 3.3125-5.0625 0.96875-3.9062 3.3125-0.78125 2.1562-1.9375-0.1875-1-1.1875-0.5625 3.3438-1.375 0.5625-0.40625 3.125 0.59375 1.375-2.1562 1.5625-0.59375 1.5625 2.1875 0.40625 0.375 1.0625h3.875l1.0625 0.6875 2.8438-0.53125 1.2188 0.71875-0.53125 0.875 1.9375 2.6562h3.7188l0.90625 2.6562h2.625l-0.15625 1.5938 2.125 2.6562 1.0625 0.53125 1.4062 0.875v3.375l1.0625 0.875h2.125l0.53125 0.875 0.34375 4.7812 1.25 0.875-0.53125 0.71875 0.34375 2.8125 4.0625-0.15625 3.4062-2.25-0.125-5.7812 4.6875-6.625v-10.938l-1.9375-3.7188-0.59375-11.719-1.375-2.1562-2.5312-1.9375-0.40625-7.25 1.1875-3.3125-1.5625-5.2812-0.96875-4.2812-0.8125-1.1875z" color="#000000"/><path id="departement13" d="m379.72 409.91-5.4688 3.125-1.4062 10.5-5.7812-0.8125-1.6562 4.4062 1.375 1.9375-6.3438 3.875-1.75 4.0625 6.1875 0.28125 8.2188 0.59375 1.5625 1.5625h-2.9375l-1.9375 3.3125 8.375 1.75 6.6562-1.1562-3.5312-3.3438 2.3438-1.9375 3.7188 1.5625 1.75 3.7188 11.156 0.1875 2.9062-1.1875 0.59375 1.7812-3.125 2.7188 4.3125 0.1875-0.78125 1.9688-1.1875 1.375h9.5625l4.6875 1.5625 0.46875 0.625 0.1875-3.875 1.4062-1.5938 1.7812-1.0625-0.1875-1.0625-1.4062-1.4062h-1.4062l-0.90625-1.0625 1.5938-1.4375v-0.53125l-1.75-0.875v-1.4062l3.875 0.1875 0.90625-0.71875-3.375-3.1875 0.1875-3.7188-2.125-1.75 1.75-3.5312 4.25-2.8438-3.1875-2.125-2.2812 1.7812-5.3125 1.2188-4.25-0.53125-7.5938-3.1562-4.5938 0.15625-3.875-1.75-1.4375-1.9688-3-3.3438-7.0625-3z" color="#000000"/><path id="departement84" d="m387 381.34-2.75 0.21875-2.125 3.3125 0.5625 3.5 3.3125 0.40625-0.5625 1.5625-2.5625 0.1875-2.9062 2.9375-0.78125-0.96875 0.5625-3.9062-1.1562-1.375-5.2812 0.78125-1.0312 2.0938 0.5625 0.3125 3.3125 5.5v4.4375l5.8125 5.7812v2.5l-2.25 1.2812 0.15625 0.0625 7.0625 3 3 3.3438 1.4375 1.9688 3.875 1.75 4.5938-0.15625 7.5938 3.1562 4.25 0.53125 5.3125-1.2188 2.1875-1.7188 0.28125-1.4688-4.0625-4.5938h-4.4375v-1.5938l1.5938-1.7812v-1.9375l-3.5312-1.75-0.34375-2.8438 1.9375-0.875v-2.4688l-2.125-0.375-0.15625-2.6562-0.0312-0.1875-1.7812-0.125-2.9375-2.1562-0.78125-2.5312-5.4688-0.40625-4.0938-0.375-0.40625-2.3438 1.375-2.9375-2.5312 2.1562-3.9062-0.40625-0.78125-1.375 2.7188-3.6875z" color="#000000"/><path id="departement83" d="m457.78 413.19-2.9688 0.125-1.4062 1.4375-5.3125-0.1875-4.5938 3.3438-3.1562-2.125-4.9688 1.5938-0.875 1.7812-3.5312 2.6562-6.375-4.25-5.1562 1.6875-0.25 1.375 0.0937-0.0625 3.1875 2.125-4.25 2.8438-1.75 3.5312 2.125 1.75-0.1875 3.7188 3.375 3.1875-0.9062 0.71875l-3.875-0.1875v1.4062l1.75 0.875v0.53125l-1.5938 1.4375 0.90625 1.0625h1.4062l1.4062 1.4062 0.1875 1.0625-1.7812 1.0625-1.4062 1.5938-0.1875 3.875 0.53125 0.71875 3.5 1.5625 0.96875 3.9062 2.1562 0.40625 1.9688-1.375 3.5-2.1562 6.0625 0.59375-0.1875 1.5625-1.9688 0.96875 4.6875 0.21875-1.1562-1.1875-0.40625-2.5312 2.5312-1.75 2.9375 0.96875 1.1875 0.375 0.96875 1.1875 1.375-0.96875 0.375-2.5625 1.5625-1.3438h4.0938l1.1875-1.7812 2.7188 0.78125 3.125-1.3438v-5.0938l-4.0938 0.1875 3.125-1.9375 1.5625-2.1562 0.40625-3.125 5.6562-0.78125 3.1562-3.5312-2.1875-2.25v-1.25l-1.0625-1.0625 1.4062-1.2188-0.34375-1.9688-2.3125-0.875h-1.2188l-2.125-2.125-0.375-3.7188-2.2812-1.0625-2.3125-0.15625-0.875-2.125z" color="#000000"/><path id="departement04" d="m463.84 364.34-2.125 3.1875-3 1.7812-1.0625 2.125l-2.6562 0.15625v1.9375l-0.71875 1.0625-1.0625 2.6562-6.3438-0.15625-3-1.5938-1.9688 1.4062-3.6875-0.1875-0.90625 1.25h0.90625l0.53125 3.3438-0.90625 0.375-3.3438-2.125v-1.25l-1.9375-1.5938h-1.0625v1.7812l-1.5938 0.34375-3.375 1.9375-2.125 3.5625-0.53125 1.75 1.25 0.34375 0.1875 2.8438h-1.25l-1.9375-1.7812-1.0625 0.1875 0.53125 1.5938 3 3.3438-1.9375 0.71875-1.4062-0.875h-3.5625l-3 2.8125-0.0312-0.0312-0.125 1.1562-1.1562-1.375-1.5625-1.375-1 2.9375-1.75 1.5625-0.75-0.0625 0.0312 0.1875 0.15625 2.6562 2.125 0.375v2.4688l-1.9375 0.875 0.34375 2.8438 3.5312 1.75v1.9375l-1.5938 1.7812v1.5938h4.4375l4.0625 4.5938-0.0312 0.0937 5.1562-1.6875 6.375 4.25 3.5312-2.6562 0.875-1.7812 4.9688-1.5938 3.1562 2.125 4.5938-3.3438 5.3125 0.1875 1.4062-1.4375 2.9688-0.125 0.0625-0.0312-0.71875-1.7812 0.875-1.0625-0.34375-1.4062h2.8125l0.71875-0.875 2.6562-1.4375 2.125 1.4375 1.4062-0.90625-3.3438-3-3.5625-3.3438-1.2188-0.375-0.1875-2.6562-2.125-3.1562 0.71875-4.5938 1.0625-2.5 1.9375-1.5938 0.1875-2.4688 2.6562-1.4062 0.40625-0.15625v-3.7812l2.75-0.375-1.5625-1.375-1.9688-0.59375-0.96875-2.5312 0.78125-1.75 3.5-3.7188-0.5625-2.75 0.5-0.53125z" color="#000000"/><path id="departement06" d="m463.91 381.88-0.40625 0.15625-2.6562 1.4062-0.1875 2.4688-1.9375 1.5938-1.0625 2.5-0.71875 4.5938 2.125 3.1562 0.1875 2.6562 1.2188 0.375 3.5625 3.3438 3.3438 3-1.4062 0.90625-2.125-1.4375-2.6562 1.4375-0.71875 0.875h-2.8125l0.34375 1.4062-0.875 1.0625 0.71875 1.7812-2.3125 1.4062 0.875 2.125 2.3125 0.15625 2.2812 1.0625 0.375 3.7188 2.125 2.125h1.2188l2.3125 0.875 0.34375 1.9688-1.4062 1.2188 1.0625 1.0625v1.25l2.1875 2.25 0.15625-0.1875 0.1875-4.4688 3.9062 0.78125 1.375-1.7812 1.9688 0.40625 0.1875-6.0625 4.5-0.375 3.9062-3.5312h3.5l0.1875-2.1562 3.5312-2.125-1.9688-4.5 2.9375-2.5312-0.59375-2.9375 4.3125-1.375 1.1562-4.2812-0.5625-2.9375-1-1.75-0.78125-2.5625-2.9062 0.21875-9.1875 3.3125h-2.9375l-5.0625-4.0938-5.0938-1.375h-2.9375v-3.5312l-4.0938-2.5312z" color="#000000"/><path id="departement05" d="m447.34 339.16-1.75 0.78125-0.40625 2.9375-3.5 0.40625-0.59375-2.75-1.1562-1.1562-3.5312 0.375-1.375 1.1875-0.78125 4.0938 0.59375 0.96875 4.0938 0.40625 0.78125 2.5312 1.5625 0.78125v4.2812l-3.7188-0.1875-1.5625 1.75-4.4688-0.78125-2.5312 2.1562-1.7812-0.78125-2.5312 1.9688 0.96875 1.75-1.5625 1.5625h-4.875v2.3438l1.5625 0.78125-0.59375 1.375-3.3125 1.3438-4.0938 0.40625-1.1875 3.7188-0.1875 2.3438 2.1562 1.75-2.1562 2.5312-2.7188-1.375-3.125-0.1875-0.40625 1.75 1.9688 1.375-2.375 1.5625 0.8125 3.3125 6.625 1.7812 1.1875 2.5312 1.9375 0.375-0.65625 6.0938 0.0312 0.0312 3-2.8125h3.5625l1.4062 0.875 1.9375-0.71875-3-3.3438-0.53125-1.5938 1.0625-0.1875 1.9375 1.7812h1.25l-0.1875-2.8438-1.25-0.34375 0.53125-1.75 2.125-3.5625 3.375-1.9375 1.5938-0.3437v-1.7812h1.0625l1.9375 1.5938v1.25l3.3438 2.125 0.90625-0.375-0.53125-3.3438h-0.90625l0.90625-1.25 3.6875 0.1875 1.9688-1.4062 3 1.5938 6.3438 0.15625 1.0625-2.6562 0.71875-1.0625v-1.9375l2.6562-0.15625 1.0625-2.125 3-1.7812 2.125-3.1875 2.5312 0.125 1.8438-2 2.125 0.1875v-1.75l-2.7188-1.375-0.59375-5.6562-2.1562-0.78125-2.7188 0.40625-5.0938-2.5625-0.78125-5.8438-2.9062-0.96875-1-1.9688-1.2812-2.8125z" color="#000000"/><path id="departement48" d="m320.78 352.25-5.4688 1.9688-1.5625 3.5-3.5-2.3438-2.75 8.5938-2.8125 6.4688 4.0938 5.0312-0.28125 3.875 2.75 1.9375v4.6875l0.84375 6.625 3.3125 1.4062-0.28125 2.1875 4.6875-0.8125 1.6562 0.8125-1.0312 0.90625 6.0312 4.0312 5.1562-1.0625 0.875-1.25-0.71875-1.75 2.125-0.53125 3 2.8125 5.125 0.53125 2.3125-3.5312v-3l1.4062-1.5938-1.25-0.34375v-4.0625l-2.8125-3 2.3125-0.375 1.2188-1.0625 0.96875-1.875-0.96875-0.59375 0.5625-4.125-3.3125-3.5938-1.375-7.1875-4.9688-6.3438-3.625 0.875-0.78125-2.7188h-1.9688l-0.375 2.3438-5.0625 1.5625z" color="#000000"/><path id="departement03" d="m301.62 247.97-2.7188 3.5-1.5625 0.1875-1.75 1.7812-1.9688-2.1562-5.25 5.2812v3.125l0.96875 0.78125 0.1875 1.5625-2.7188 2.125-2.5625-0.78125-4.875 1-2.5312 2.9062-0.9375 2 0.15625-0.0312 2.3438 3.3125v2.3438l1.3438 1.75 1.375-1.75 1.5625 2.75 2.1562 0.78125 2.1562 5.0624 0.0937 1.4688 2.9688 2.3125 1.5938-0.71875 1.25-3 1.2188-0.34375v-1.5938l2.125-0.1875 0.1875 1.0625 2.6562-3h3l0.53125 1.0625-1.4062 1.9375 2.0938 2.3125 0.375 1.4062 4.9375 2.8438 6 0.875 1.7812-0.1875 2.6562 0.53125 2.2812-1.4062 1.7812 0.875 0.34375 2.4688 2.3125 0.53125 3-0.15625 0.875 2.125 2.75 1.0938 0.0937-0.96875 4.6875-0.21875-0.375-11.125-1.375-2.7188 0.5625-2.1562 3.25-0.5625 0.0937-0.21875 4.0938-3.125 0.1875-7.625-1.375-1.9375h-3.125l-1.1562-1.5625h-3.3125l-0.96875-1.1875v-2.9375l-3.9375-7.4062-1.9375-1.375-3.7188 5.0938-1.5625 0.375-0.59375-2.5312-1.75-0.78125-0.78125 1.5625h-2.9061l-0.40625-1.75-1.9688 1.1562-2.125 1.1875-2.3438-2.5625-3.3438-1.5625-0.1875-2.5312z" color="#000000"/><path id="departement30" d="m346.19 381.03-0.96875 1.875-1.2188 1.0625-2.3125 0.375 2.8125 3v4.0625l1.25 0.34375-1.4062 1.5938v3l-2.3125 3.5312-5.125-0.53125-3-2.8125-2.125 0.53125 0.71875 1.75-0.875 1.25-5.1562 1.0625-6.0312-4.0312-1.1562 1.0312v2.7812l-2.2188 0.53125 0.5625 2.2188 2.75 0.5625h3.0312l0.84375 3.8438-3.5938 1.6562v1.75l2.8125 0.96875v1.5938l1.25 0.71875 1.0625-0.90625h1.4062l0.71875 1.5938h2.125l1.0625-3.7188h1.75l2.6562-3.3438 3.1875 0.34375 0.53125 4.5938 1.2188 1.4375 1.9688-1.0625 3.3438 1.75 1.25 2.125 5.8125 3.5312 2.125 4.9688v2.625l-3.7188 2.125-2.4062 2.1562 3 0.21875v3.9062l4.4688-0.21875 2.4062 0.125 1.75-4.0625 6.3438-3.875-1.375-1.9375 1.6562-4.4062 5.7812 0.8125 1.4062-10.5 7.7188-4.4062v-2.5l-5.8125-5.7812v-4.4375l-3.3125-5.5-6.9062-3.875-0.53125 3.0312-2.7812 0.28125-0.8125-3.0312-2.7812 0.53125-0.53125 3.875-2.2188-0.8125-4.6875-3.0625-2.2188 1.125v-5.5312z" color="#000000"/><path id="departement11" d="m274.25 438.47-0.28125 3.5938-3.5938-1.125h-3.875l0.28125-1.375-1.9375 0.28125-4.125 1.375-1.375-2.5-2.7812 2.5 0.84375 1.9375-3.0625 1.375-0.53125 3.0312-2.5 1.125 2.2188 2.4688-0.5625 1.6562 9.6875 4.6875 0.8125 6.6562v3.5938l0.5625 4.6875h-4.9688l-1.375 1.9375 6.3438 5.25 3.5938-1.9375 4.4062 5.25-0.65625 0.0625 0.84375 0.5 7.9375-3.875-1.9375-2.8438-0.15625-3.3438h18.531l-0.34375-2.5 4.25-2.2812 4.9375 3.875 2.5625 1.1875-0.15625-5.5938 0.21875-6.4375-2.3438 0.1875-1.9688-2.9062 1.5625-2.5625 3.3125 3.125 2.9375-2.3438 1.9688-1.9375 0.25-2.0625-2.5-0.0937-0.875-2.8125-2.4688-0.1875-2.3125-3.375-1.7812 0.1875-2.0938-1.25-0.375-3-1.0625 0.53125 0.53125 2.125h-2.4688l-0.1875 3.5312-3.6875 1.25-1.7812-3.7188-2.4688 1.5938-2.125-1.5938-1.0625-2.4688 1.7812-2.125-0.84375-2.2813-0.21875 0.0625h-5.8125l-6.0625-1.0938z" color="#000000"/><path id="departement34" d="m335.5 408.38-2.6562 3.3438h-1.75l-1.0625 3.7188h-2.125l-0.71875-1.5938h-1.4062l-1.0625 0.90625-1.25-0.71875v-1.5938l-2.8125-0.96875v1.0312l-3.3125 0.53125-1.6562 1.4062 0.53125 3.3125h-3.0312l-3.0312-1.6562h-1.6562v1.9375l0.28125 5.7812h-4.9688l-1.125 2.2188-7.1875 2.4688-2.75-1.9062-1.6562 2.4688-0.8125 2.75 3.0312 2.7812-1.125 3.5938-4.1875 1.3125 0.84375 2.2812-1.7812 2.125 1.0625 2.4688 2.125 1.5938 2.4688-1.5938 1.7812 3.7188 3.6875-1.25 0.1875-3.5312h2.4688l-0.53125-2.125 1.0625-0.53125 0.375 3 2.0938 1.25 1.7812-0.1875 2.3125 3.375 2.4688 0.1875 0.875 2.8125 2.5 0.0937 0.125-1.0625 7.0312-2.1562 0.78125-1.75 5.4688-0.1875 1.75-2.1562 10.562-8.4062 6.625-4.6875 2.6875 0.1875 2.4062-2.1562 3.7188-2.125v-2.625l-2.125-4.9688-5.8125-3.5312-1.25-2.125-3.3438-1.75-1.9688 1.0625-1.2188-1.4375-0.53125-4.5938z" color="#000000"/><path id="departement66" d="m300.5 468.66-4.25 2.2812 0.34375 2.5h-18.531l0.15625 3.3438 1.9375 2.8438-7.9375 3.875-0.84375-0.5-6.5312 0.46875-0.8125 1.6562-3.3125 0.84375-2.2188 1.9375-6.0625 1.4062 0.34375 2.0625 2.9375 2.75 5.8438 1.5625 0.1875 3.5 3.125 2.75 2.3438-0.40625 3.3438-4.0938 4.0938-0.78125 6.4375 2.1562 5.4688 4.6875 1.5625-1.9688h1.375l1.375 0.96875 1.1562-0.5625 0.1875-2.75 5.875-1.375 1.9375-2.5312 2.9375-0.96875h4.0938l2.5625 2.7188 3.125 0.21875v-3.125l-1.5625-2.1562-2.75-1.1875-0.4375-17.062-2.5625-1.1875z" color="#000000"/><path id="departement15" d="m285.84 323.72-0.59375 2.1562 0.96875 2.3438-1.1875 1.375h-1.9375l-1.9688-2.1562-1.75-0.96875-0.1875 5.4688-3.5312 2.1562-2.5312 3.5 0.59375 3.5312-0.78125 1.5625-1 3.125h-1.5625l-1.5625 1.9375 1.1875 1.1875 0.78125 1.9375-2.5312 1.7812 1.0312 6.5312 3.3125 2.4688-2.5 5.8125 2.5 1.0938-1.0938 3.3125 2.1875 0.28125 1.6562-2.75h2.7812l0.53125 0.8125h6.0938l1.0938-2.4688 1.375-0.5625 0.5625-4.4062h1.375v-4.6875l5.5312-4.7188 0.5625 0.84375 0.53125 3.5938 3.875-0.5625 0.84375 5.5312h1.9062l0.5625 5.5312 1.7188 2.125 2.8125-6.4688 2.75-8.5938 3.5 2.3438 1.5625-3.5 5-1.8125v-1.6562l-1.0625-1.5938-2.125-1.25 1.0625-1.5938-0.90625-0.875 1.0625-0.34375 1.25-1.0625-2.125-0.1875-1.0625-1.4062-0.34375-3.7188-1.25-1.25-0.875-3.1562h-4.4375l-0.875-2.5-1.4062-0.15625-0.71875 1.4062-2.8125-0.1875-2.6562-4.0625-1.0625-0.15625-2.125-1.0625-1.25 1.2188h-3.1562l-1.5938-3.3438z" color="#000000"/><path id="departement43" d="m317.81 326.34-1.4062 0.71875v1.2188l-2.125 0.1875-1.9375 1.5938-3.5312 0.53125-0.8125 1.1562 0.625 0.0625 0.875 2.5h4.4375l0.875 3.1562 1.25 1.25 0.34375 3.7188 1.0625 1.4062 2.125 0.1875-1.25 1.0625-1.0625 0.34375 0.90625 0.875-1.0625 1.5938 2.125 1.25 1.0625 1.5938v1.6562l0.46875-0.15625 3.5312 9 5.0625-1.5625 0.375-2.3438h1.9688l0.78125 2.7188 3.625-0.875 4.5 5.75 2.8125-4.4688 5.0625-3.7188h4.6875l1.5625-4.875 3.125-0.21875 0.21875-3.6875h2.9062l-0.5625-1.375-0.78125-2.5312 1.1562-1.9688 2.75-1.1562 1.1562-4.6875-2.5312-2.9375-3.125 0.1875 0.375-3.7188-6.25-2.7188-2.125 0.1875-4.3125 3.5312-3.9375-1.2812-0.78125 0.75-2.4688-0.71875-1.75-1.7812-1.0625 2.125-3.0312-0.15625-1.4062-1.25-1.0625 2.4688-1.9375-0.875-1.25-2.3125h-1.5938l-1.4062-1.2188-2.125 0.875-2.4688 0.1875-1.4062-0.90625-0.875 0.53125z" color="#000000"/><path id="departement63" d="m299.09 279.5-2.6562 3-0.1875-1.0625-2.125 0.1875v1.5938l-1.2188 0.34375-1.25 3-1.5938 0.71875-2.9688-2.3125 0.28125 4.5938 1.5625 1.9375 0.78125 3.7188-2.3438 1.75-0.5625 2.75-2.1562 1.1562-3.7188 2.1562 0.375 1.75 4.5 4.5 0.40625 2.75-1.7812 2.9062v2.75l1.1875 1.375 0.59375 3.3125-0.375 1.3438 6 1.75 1.5938 3.3438h3.1562l1.25-1.2188 2.125 1.0625 1.0625 0.15625 2.6562 4.0625 2.8125 0.1875 0.71875-1.4062 0.78125 0.0937 0.8125-1.1562 3.5312-0.53125 1.9375-1.5938 2.125-0.1875v-1.2188l1.4062-0.71875 0.375 0.875 0.875-0.53125 1.4062 0.90625 2.4688-0.1875 2.125-0.875 1.4062 1.2188h1.5938l1.25 2.3125 1.9375 0.875 1.0625-2.4688 1.4062 1.25 3.0312 0.15625 1.0625-2.125 1.75 1.7812 2.4688 0.71875 0.78125-0.75-1.5312-0.5-0.59375-2.3438 3.7188-3.5-1.75-6.4375-5.0938-3.3438-2.125-5.0625-2.3438-3.125 0.59375-4.3125 1.75-1.75-3.125-2.5312 0.0937-0.78125-2.75-1.0938-0.875-2.125-3 0.15625-2.3125-0.53125-0.34375-2.4688-1.7812-0.875-2.2812 1.4062-2.6562-0.53125-1.7812 0.1875-6-0.875-4.9375-2.8438-0.375-1.4062-2.0938-2.3125 1.4062-1.9375-0.53125-1.0625z" color="#000000"/><path id="departement65" d="m179.22 428.53-1.9375 1.0312 0.34375 0.0312 3.3125 5.4688-2.1562 1.9688 1.5625 2.3438 2.3438 3.5-1.9375 2.5312-3.125 7.0312-5.2812 4.5 1.375 2.75-1.1875 0.78125-2.9062-0.59375-0.8125 6.4375-1.5625 1.1875-0.3125 4.0312 0.5-0.28125 3.3125 1.9688 3.9062 2.9375 0.375 2.3438 3.125 2.5312h2.5625l6.4375-2.75 2.7188 3.125 3.7188 1 1.375-2.3438 1.75 0.78125 3.7812 0.25-0.25-10.5h1.9688l1.75 0.875 1.25-1.2188-0.1875-1.9375 2.4688-1.4375-0.875-3.6875-1.0625-0.90625-2.125 0.71875 1.0625-1.7812-0.53125-2.2812-3.1875-2.3125 0.1875-1.5938 1.7812-3 2.2812-0.875v-1.25l1.4062-2.125 0.9375-1.3125-3.5625-1.8438h-4.7812l-0.71875-1.4375h-2.4688l-0.71875-1.5938h-2.2812l-0.71875 0.71875h-2.6562l-0.15625-1.5938-2.125-1.4062 0.71875-0.71875 0.34375-1.75-0.53125-0.53125-1.0625-2.8438-2.3125-0.34375-2.2812-1.25 0.15625-3.3438z" color="#000000"/><path id="departement64" d="m172.16 428.88-2.8125 1.5938-5.6562-0.1875-0.53125-0.875-3.7188 1.25-2.8438 0.875-2.125-1.5938-2.2812 0.71875-0.71875-0.90625h-2.8125l-1.7812 0.90625-4.5938-0.1875-2.4688 1.9375-4.4375-0.34375-0.875 1.25-1.0625-0.375 1.4062-1.4062-2.4688-1.9375-3 2.6562-5.125 0.34375-5.625-2.8125-0.8125 1.4375-4.5 5.4688-3.5 1.375-2.5312 0.375v2.1562l2.3438 2.1562 3.5 0.1875 0.1875 2.5312 2.75 0.21875 0.78125-1.7812 3.7188 1.5625 2.3438 0.59375 0.5625 2.3438-1.3438 1.1875v3.6875l-2.75 1.375-0.1875 1.75 1.75 1.9688 3.125 0.96875 0.59375-2.9375 1.75-1.9375-0.1875 2.5312 1.375 1.9688h3.5l1.5625 2.125 4.6875 0.78125 4.5 2.75h7.4062l0.40625 4.0938 5.0625 3.9062 1.9688 2.3438 2.1562-1.1562 1.9375-0.40625 0.96875 0.96875 1.7812-0.96875 3.4062-1.875 0.3125-4.0312 1.5625-1.1875 0.8125-6.4375 2.9062 0.59375 1.1875-0.78125-1.375-2.75 5.2812-4.5 3.125-7.0312 1.9375-2.5312-2.3438-3.5-1.5625-2.3438 2.1562-1.9688-3.3125-5.4688-5.2812-0.375z" color="#000000"/><path id="departement40" d="m139.81 374.44-6.1875 3.1875-1.5938 0.0625-3.4688 18.562-4.5 17.188-1.375 6.6562-1.1562 4.6875-2.9062 5 5.625 2.8125 5.125-0.34375 3-2.6562 2.4688 1.9375-1.4062 1.4062 1.0625 0.375 0.875-1.25 4.4375 0.34375 2.4688-1.9375 4.5938 0.1875 1.7812-0.90625h2.8125l0.71875 0.90625 2.2812-0.71875 2.125 1.5938 2.8438-0.875 3.7188-1.25 0.53125 0.875 5.6562 0.1875 2.8125-1.5938-1.375-2.4062 1.375-3.7188 1.9375-2.5312-0.59375-3.3125 1.5625-1.5625-2.3125-3.9062 1.9375-2.3438 2.1562-0.40625 1.9375 0.78125 2.75-2.3438 0.96875 2.9375 0.96875 1.375 2.1562-0.59375-0.1875-2.5312 0.625-1.375-0.46875-1.2188 0.53125-3.875 2.125-2.125-1.0625-1.25-2.3125-0.1875-2.6562-1.0312-3.875 0.34375-0.71875-4.25-2.4688-3-1.0625-0.34375 0.375 3.5312v1.0625l-3.375 0.15625-3.5312-1.2188-0.71875-4.4375-2.4688-2.6562-1.75-0.15625-0.1875-1.5938-1.9375-1.25-3.1875-0.875 0.875-1.0625v-1.0625l-1.0625-0.875-1.2188-1.0625-3.5625 0.53125-2.0938 1.75-1.4375 0.1875-2.2812-1.5938-3.375 1.4062-1.5938-1.0625 1.4375-1.75 0.15625-2.3125z" color="#000000"/><path id="departement33" d="m141.25 315.22-3.125 4.6875-0.96875 16.406-2.5312 16.594-1.7812 12.875-0.1875 3.3438 1.375-4.5 2.7188-3.5312 3.9062 3.5312 0.40625 1.1562 1.1562 1.5625-4.875 0.21875-0.78125-1.1875-1.9375 0.78125-0.40625 2.9375-2.1562 2.9375v4.4688l-0.0312 0.1875 1.5938-0.0625 6.1875-3.1875 3.3438 1.2188-0.15625 2.3125-1.4375 1.75 1.5938 1.0625 3.375-1.4062 2.2812 1.5938 1.4375-0.1875 2.0938-1.75 3.5625-0.53125 1.2188 1.0625 1.0625 0.875v1.0625l-0.875 1.0625 3.1875 0.875 1.9375 1.25 0.1875 1.5938 1.75 0.15625 2.4688 2.6562 0.71875 4.4375 3.5312 1.2188 3.375-0.15625v-1.0625l-0.375-3.5312 1.0625 0.34375 2 2.4375 3.125-0.5 1.4375-1.4062-0.1875-1.9375-1.25-1.0625 0.375-1.9688h1.9375l1.9375-1.2188-0.875-1.7812-0.53125-2.6562 1.4062-2.4688 3-4.5938 1.7812-2.125 1.5938-0.53125 0.34375-1.75-2.125-0.1875-0.875-1.9375 0.6875-1.9375 2.5-0.53125 1.75-0.53125 2.0625-0.28125-0.125-0.0937-0.15625-3.875 1.9375-1.4062-2.4688-1.5938-2.4688 3-6.0312 0.1875-0.53125-1.4375-1.75-0.875 1.4062-1.7812v-1.9375l-0.7188-1.0626v-1.0625l1.7812-1.0625 0.53125-3.1562 1.0625-2.8438-1.0625-1.5938h-1.9375l-1.0312-1.2188-1 2.0938-1.9375-1.375-2.75 1.375-2.3438-0.375-4.4688-4.5-2.75-0.1875-0.78125-6.25-5.0938-0.59375-0.1875-2.9375-0.96875 0.96875h-5.7812l0.28125 1.25 1.375 5.6562 0.375 5.6562-0.96875 1.5625-0.96875-4.6875-2.75-10.719-9.9688-9 0.21875-4.0938z" color="#000000"/><path id="departement24" d="m209.84 310.47-1.75 3.125-2.75 0.375-0.1875 4.6875-9.1875 6.25-0.1875 6.8438-3.5312 3.5-1.9375 1.7812-3.9062-0.40625-2.1562 3.7188-0.5625 1.2188 1.0312 1.2188h1.9375l1.0625 1.5938-1.0625 2.8438-0.53125 3.1562-1.7812 1.0625v1.0625l0.71875 1.0625v1.9375l-1.4062 1.7812 1.75 0.875 0.53125 1.4375 6.0312-0.1875 2.4688-3 2.4688 1.5938-1.9375 1.4062 0.15625 3.875 2.8438 1.9688 0.34375 3.6875 3 1.0625 1.7812-1.5938h3.875l2.125-1.75 1.25 0.1875 0.34375 1.4062h3.9062l0.875-1.0625 1.4062 0.1875 1.5938 1.75v1.25l-1.4062 0.875 0.53125 1.25 1.9375 0.15625 2.4688-2.2812h2.125l1.4062 1.5938 3.0625 1.2812 0.1875-0.5 1.7812-1.75 0.1875-2.9375 4.2812-0.375 2.75-3.9062-1.1875-0.40625-0.1875-2.125 3.3125-0.40625 0.21875-1.9375 1.5625-1 1.75-3.125-1.75-1.9375v-2.1562l1.3438-1.1562-1.75-2.75 0.1875-4.2812-4.2812 0.1875-1.75-1.1875 1.5625-1.9375-2.1562-1.75 1.5625-1.9688-1.5625-0.78125v-2.7188l3.9062-3.5312-2.1562-1.75-1.1562-2.9375-4.125-0.59375-1.375-0.96875 2.9375-1.375-0.96875-1.3438-4.2812-0.59375-1-3.9062-6.25-0.59375-1.375 1.9688-1.3438 0.375-1.7812-2.3438 0.8125-2.1562-1-1.9375z" color="#000000"/><path id="departement47" d="m195.25 363.38-2.0625 0.28125-1.75 0.53125-2.5 0.53125-0.6875 1.9375 0.875 1.9375 2.125 0.1875-0.34375 1.75-1.5938 0.53125-1.7812 2.125-3 4.5938-1.4062 2.4688 0.53125 2.6562 0.875 1.7812-1.9375 1.2188h-1.9375l-0.375 1.9688 1.25 1.0625 0.1875 1.9375-1.4375 1.4062-3.125 0.5 0.46875 0.5625 0.71875 4.25 3.875-0.34375 2.6562 1.0312 2.3125 0.1875 1.0625 1.25-2.125 2.125-0.53125 3.875 0.46875 1.2188 0.75-1.5625 2.3125 1.9688 3.125-3.125 1.375 1.9375 3.3125-0.59375 3.5312-0.375 1.5625-2.75 5.8438-0.5625 2.9375 2.9062 1-0.96875 1.9375-0.59375-0.78125-2.7188 2.9375-0.78125 3.7188-0.78125-0.8125-2.3438 1.1875-1.375 0.96875-3.7188-2.1562-2.3438 1.375-4.4688 2.9375 1.75 4.3125-0.78125-1.9688-4.3125-1.5625-5.8438 3.9062-0.1875 0.78125-2.0625-3.0625-1.2812-1.4062-1.5938h-2.125l-2.4688 2.2812-1.9375-0.15625-0.53125-1.25 1.4062-0.875v-1.25l-1.5938-1.75-1.4062-0.1875-0.875 1.0625h-3.9062l-0.34375-1.4062-1.25-0.1875-2.125 1.75h-3.875l-1.7812 1.5938-3-1.0625-0.34375-3.6875z" color="#000000"/><path id="departement46" d="m247.47 347.31-4.1562 1.9375-0.59375 0.0937 0.125 0.1875-1.3438 1.1562v2.1562l1.75 1.9375-1.75 3.125-1.5625 1-0.21875 1.9375-3.3125 0.40625 0.1875 2.125 1.1875 0.40625-2.75 3.9062-4.2812 0.375-0.1875 2.9375-1.7812 1.75-0.96875 2.5625-3.9062 0.1875 1.5625 5.8438 1.6562 3.625 2.5-0.0937 0.15625 1.0312-1.4062 1.5938 1.0625 2.125h1.5938l1.75 1.9375h1.5938l1.25-1.4062 0.34375 0.375v1.75l0.53125 2.3125 3.7188 0.15625 3-3.1875 1.5938-0.15625 0.53125 0.875 0.875 1.9375h1.4375l0.53125-3.5312 3 0.375 1.75-2.125 2.8438 0.6875 4.25-1.9375 0.0312 0.375 1.375-1.4375-1.7812-2.6562-0.6875-3.5312 2.2812-1.9375 1.0625 0.34375 3.1875-3.5312 1.75 0.1875 0.71875-0.90625h3.5313l1.25-1.4062 0.34375-1.0938-1.5938-0.21875 1.0938-3.3125-2.5-1.0938 2.5-5.8125-3.3125-2.4688-1.125-7.1875-3.0312-0.8125-2.2188 2.1875-1.0938-1.9375-3.3125 3.3125-2.2188 0.28125-3.8438-5.5z" color="#000000"/><path id="departement09" d="m237.22 446.38-1.25 0.875-0.53125 1.0625 2.4688 1.7812 0.71875 1.25-0.53125 1.0312-4.25 0.375-1.2188 1.75 0.15625 0.53125 1.5938 0.53125 0.90625 1.25-1.0625 1.75-1.25-0.15625-1.9375-1.7812-2.3125-0.6875-2.2812 0.15625-4.0625 2.4688 0.15625 3.375 1.0625 0.71875-0.6875 2.625-4.625 1.25-1.75 2.125v3.5312l0.71875 1.0625-1.6562 1.5312 1.0625 0.59375 6.0312 1.1562h2.5625l3.3125 4.3125 8.4062-0.40625 3.3125 5.2812 2.9375-1.1875 8.5938 1.1875 0.625 3.5938 6.0625-1.4062 2.2188-1.9375 3.3125-0.84375 0.8125-1.6562 7.1875-0.53125-4.4062-5.25-3.5938 1.9375-6.3438-5.25 1.375-1.9375h4.9688l-0.5625-4.6875v-3.5938l-0.8125-6.6562-9.6875-4.6875 0.5625-1.6562-1.8438-2.0625-1.5625 0.65625-2.125 0.34375-3.9062-1.7812-1.0625-0.34375 1.5938 1.9375-0.6875 1.5938-3.375-0.34375-0.15625-1.7812-1.9688-2.6562z" color="#000000"/><path id="departement32" d="m207.88 401.88-5.8438 0.5625-1.5625 2.75-3.5312 0.375-3.3125 0.59375-1.375-1.9375-3.125 3.125-2.3125-1.9688-1.375 2.9375 0.1875 2.5312-2.1562 0.59375-0.96875-1.375-0.96875-2.9375-2.75 2.3438-1.9375-0.78125-2.1562 0.40625-1.9375 2.3438 2.3125 3.9062-1.5625 1.5625 0.59375 3.3125-1.9375 2.5312-1.375 3.7188 1.5625 2.75 4.9375 0.34375 1.9375-1.0312h3l-0.15625 3.3438 2.2812 1.25 2.3125 0.34375 1.0625 2.8438 0.53125 0.53125-0.34375 1.75-0.71875 0.71875 2.125 1.4062 0.15625 1.5938h2.6562l0.71875-0.71875h2.2812l0.71875 1.5938h2.4688l0.71875 1.4375h4.7812l3.5625 1.8438 0.3125-0.4375 1.9375-1.0625 3.5312-4.5938 6.5625 0.53125 2.8125 1.9375 0.90625-1.25 1.4062-4.2188 1.75-4.0625 3.7188-1.5938 1.7812-0.71875-0.53125-1.5938-1.7812-0.1875-0.6875-1.75h-1.4375l-2.2812-2.3125 0.15625-1.5938-3-3-0.53125-1.9062-1.9375 0.84375-0.53125-1.0625 1.25-1.9375-1.4375-1.4062v-2.4688l-1.2188-1.25-3.9062-0.1875v-2.2812l2.125-1.5938v-1.7812l2.3125-1.0625-1.25-0.6875-1.4062 0.6875h-2.8438l-0.875-0.8125-0.46875 0.15625-1 0.96875z" color="#000000"/><path id="departement31" d="m245 412.44-2.8438 1.0625-0.875 1.4062-1.0625-1.2188-1.9375-0.1875-0.375 1.7812-1.2188 0.5 1.75 0.90625-1.2188 1.9375-4.4375 1.25-1.9375-2.3125h-1.75l-1.4375 0.875h-5.125l-0.53125 0.21875 0.53125 1.9062 3 3-0.15625 1.5938 2.2812 2.3125h1.4375l0.6875 1.75 1.7812 0.1875 0.53125 1.5938-1.7812 0.71875-3.7188 1.5938-1.75 4.0625-1.4062 4.2188-0.90625 1.25-2.8125-1.9375-6.5625-0.53125-3.5312 4.5938-1.9375 1.0625-1.25 1.75-1.4062 2.125v1.25l-2.2812 0.875-1.7812 3-0.1875 1.5938 3.1875 2.3125 0.53125 2.2812-1.0625 1.7812 2.125-0.71875 1.0625 0.90625 0.875 3.6875-2.4688 1.4375 0.1875 1.9375-1.25 1.2188-1.75-0.875h-1.9688l0.25 10.5 7.9375 0.53125 0.40625-9.5938 2.7188 0.40625 4.0312 2.3438 1.6562-1.5312-0.71875-1.0625v-3.5312l1.75-2.125 4.625-1.25 0.6875-2.625-1.0625-0.71875-0.15625-3.375 4.0625-2.4688 2.2812-0.15625 2.3125 0.6875 1.9375 1.7812 1.25 0.15625 1.0625-1.75-0.90625-1.25-1.5938-0.53125-0.15625-0.53125 1.2188-1.75 4.25-0.375 0.53125-1.0312-0.71875-1.25-2.4688-1.7812 0.53125-1.0625 1.25-0.875 1.2188 0.34375 1.9688 2.6562 0.15625 1.7812 3.375 0.34375 0.6875-1.5938-1.5938-1.9375 1.0625 0.34375 3.9062 1.7812 2.125-0.34375 1.5625-0.65625-0.375-0.40625 2.5-1.125 0.53125-3.0312 3.0625-1.375-0.84375-1.9375 2.7812-2.5 1.375 2.5 4.125-1.375 0.78125-0.125 0.0625-1.2812v-2.5l-2.125 0.375-2.6562-0.71875-2.3125-2.8125-0.875-1.25-4.5938-1.9375-1.0625-1.5938 1.4062-0.53125v-1.9375l-1.4062-1.5938-1.7812-2.8438-0.15625-2.4688-0.53125-0.34375-2.125-2.5-0.875-2.625z" color="#000000"/><path d="m220.19 384.69-1.375 4.4688 2.1562 2.3438-0.96875 3.7188-1.1875 1.375 0.8125 2.3438-3.7188 0.78125-2.9375 0.78125 0.78125 2.7188-1.4688 0.4375 0.875 0.8125h2.8438l1.4062-0.6875 1.25 0.6875-2.3125 1.0625v1.7812l-2.125 1.5938v2.2812l3.9062 0.1875 1.2188 1.25v2.4688l1.4375 1.4062-1.25 1.9375 0.53125 1.0625 2.4688-1.0625h5.125l1.4375-0.875h1.75l1.9375 2.3125 4.4375-1.25 1.2188-1.9375-1.75-0.90625 1.2188-0.5 0.375-1.7812 1.9375 0.1875 1.0625 1.2188 0.875-1.4062 2.8438-1.0625 1.2812 0.59375 1-1.6562-1.75-1.9375h3.3438l1.0625-1.9375 2.3125-2.125h-2.3125l0.71875-3 6-0.71875 2.3125-1.4062 2.8125-1.0625 0.90625-0.90625-1.0938-2.8125 1.5938-3.1875-2.8125-0.1875-0.34375-4.4062-4.25 1.9375-2.8438-0.6875-1.75 2.125-3-0.375-0.53125 3.5312h-1.4375l-0.875-1.9375-0.53125-0.875-1.5938 0.15625-3 3.1875-3.7188-0.15625-0.53125-2.3125v-1.75l-0.34375-0.375-1.25 1.4062h-1.5938l-1.75-1.9375h-1.5938l-1.0625-2.125 1.4062-1.5938-0.15625-1.0312-2.5 0.0937 0.3125 0.6875-4.3125 0.78125z" color="#000000"/><path id="departement12" d="m294.69 353.38-5.5312 4.7188v4.6875h-1.375l-0.5625 4.4062-1.375 0.5625-1.0938 2.4688h-6.0938l-0.53125-0.8125h-2.7812l-1.6562 2.75-0.59375-0.0625-0.34375 1.0938-1.25 1.4062h-3.5312l-0.71875 0.90625-1.75-0.1875-3.1875 3.5312-1.0625-0.34375-2.2812 1.9375 0.6875 3.5312 1.7812 2.6562-1.375 1.4375 0.3125 4.0312 2.8125 0.1875-1.5938 3.1875 1.25 3.1875 1.5938-0.90625 0.71875 1.5938 2.2812-2.2812 3.375-0.1875 3.3438 2.4688 5.8438 1.0625 2.125 3.7188 3 1.4062 1.5938 4.0625-0.1875 1.5938 1.9375 3.5625v1.9375l3.5312 4.5938 3.375 1.75 2.125-0.53125 1.0625-1.4062 1.5938 0.375 3.6562 2.3438h4.9687l-0.2812-5.7812v-1.9375h1.6562l3.0312 1.6562h3.0312l-0.53125-3.3125 1.6562-1.4062 3.3125-0.53125v-2.7812l3.5938-1.6562-0.84375-3.8438h-3.0312l-2.75-0.5625-0.5625-2.2188 2.2188-0.53125v-2.7812l2.1875-1.9375-1.6562-0.8125-4.6875 0.8125 0.28125-2.1875-3.3125-1.4062-0.84375-6.625v-4.6875l-2.75-1.9375 0.28125-3.875-5.8125-7.1562-0.5625-5.5312h-1.9062l-0.84375-5.5312-3.875 0.5625-0.53125-3.5938z" color="#000000"/><path id="departement81" d="m270.81 396.88-3.375 0.1875-2.2812 2.2812-0.71875-1.5938-1.5938 0.90625-0.15625-0.375-0.90625 0.90625-2.8125 1.0625-2.3125 1.4062-6 0.71875-0.71875 3h2.3125l-2.3125 2.125-1.0625 1.9375h-3.3438l1.75 1.9375-1 1.6562 0.3125 0.125 0.875 2.625 2.125 2.5 0.53125 0.34375 0.15625 2.4688 1.7812 2.8438 1.4062 1.5938v1.9375l-1.4062 0.53125 1.0625 1.5938 4.5938 1.9375 0.875 1.25 2.3125 2.8125 2.6562 0.71875 2.125-0.375v2.5l-0.0625 1.2812 1.1562-0.15625-0.28125 1.375h3.875l3.5938 1.125 0.28125-3.5938h1.6562l6.0625 1.0938h5.8125l4.4062-1.375 1.125-3.5938-3.0312-2.7812 0.8125-2.75 1.6562-2.4688 2.75 1.9062 7.1875-2.4688 1.125-2.2188-3.6562-2.3438-1.5938-0.375-1.0625 1.4062-2.125 0.53125-3.375-1.75-3.5312-4.5938v-1.9375l-1.9375-3.5625 0.1875-1.5938-1.5938-4.0625-3-1.4062-2.125-3.7188-5.8438-1.0625z" color="#000000"/><path id="departement01" d="m383.28 262.59-2.1562 0.21875-1.375 2.5312-3.6875 14.438-0.53125 1.1875-0.375 4.5625-1.0625 1.4688v6.5938l-0.625 1.5 3.8125 2.3125 1.5 0.21875 2.3438 2.125 0.40625 3.4062 2.5625-0.84375 3.9688 1.1562 0.0625-0.75h1.9062l2.75 2.5625 2.5625-1.2812 1.2812-3.8125 1.2812-1.5 1.6875 0.21875 1.6875 1.5 0.875 2.75 7.8438 9.5625 2.3438-1.6875 0.40625-3.625 2.5625-0.4375v-6.375l1.2812-1.0625 0.40625-5.7188 0.5 0.40625-0.0625-2.0938-1.0625-1.9375 0.4375-5.5 1.9062 1.0625 1.0625-1.9375 1.9062-0.625 1.9688-1.5625h-2.125v-3.7188l2.3438-1.375 3.5-0.375 0.21875-1.9688-1.1875-0.78125 2.9375-3.7188-0.40625-1.1562-3.3438-1.7812-8.125 8.9375h-5.6562v-2.3438l-3.125-1.5625-3.7188 4.0938-2.9375 0.40625v-2.75l-2.5312-1.1562-3.9062-5.4688-3.5312-1.375-1.1562-2.5312-1.9688-0.40625-1.9375 1.375-1.5625 0.40625z" color="#000000"/><path id="departement38" d="m397.91 298.69-1.2812 1.5-1.2812 3.8125-2.5625 1.2812-2.75-2.5625h-1.9062l-0.21875 2.7812 2.7812 2.3438-4.25 5.5-5.5312 1.2812-4.25 1.5 2.75 2.75 0.65625 1.2812-4.25 2.125-0.4375 6.1562-0.125 0.0625 1.1875 2.4688 3.4062 1.0625 2.3438-0.84375 2.75-1.9062 3.625 2.9688h2.9688l2.125 2.9688-0.875 2.125 0.4375 3-1.0625 2.9688 0.4375 1.0625 1.4688-0.4375 3.4062 1.0625 4.4688 1.2812 1.9062-1.2812 0.84375-1.4688h0.65625l0.1875 15.906 1.0625 1.0625h2.7812l2.5312 1.5 1.9062 1.5 1.9375 0.1875 1.25 1.0625 3.5312 0.40625 0.25-0.59375-1.5625-0.78125v-2.3438h4.875l1.5625-1.5625-0.96875-1.75 2.5312-1.9688 1.7812 0.78125 2.5312-2.1562 4.4688 0.78125 1.5625-1.75 3.7188 0.1875v-4.2812l-1.5625-0.78125-0.78125-2.5312-4.0938-0.40625-0.59375-0.96875 0.78125-4.0938 1.375-1.1875-1.125-1.5312-2.125-1.2812-1.2812 1.2812 0.4375-1.7188v-1.6875l-1.7188-1.7188 0.875-4.0312 1.9062-1.0625-0.21875-2.75-4.0312-4.0312h-1.5l-1.0625 1.4688-2.5312-3.375-1.5 0.1875-1.2812 2.7812 0.875 1.6875-0.65625 0.65625-1.6875-1.2812-4.9062-1.0625-2.3125-4.25v-1.7188l-2.3438-2.5312-0.25-1.0938-7.8125-9.5312-0.875-2.75-1.6875-1.5z" color="#000000"/><path id="departement74" d="m446.12 266.19-4.4688 0.78125-4.3125 3.5-1.1562-1.75-2.1562 0.1875-1.9688 4.3125 0.21875 1.75 2.125 1.75-3.9062 2.5625-2.5312 2.3438h-4.3125l-1.9688 1.5625-1.9062 0.625-1.0625 1.9375-1.9062-1.0625-0.4375 5.5 1.0625 1.9375 0.0625 2.0938 1.625 1.2812v5.5312l3.8438 0.625 1.4688 2.7812 3.4062 0.40625 0.625-1.25h1.7188l2.9688 3.1875 1.0625 1.0625 3.4062-0.65625 0.84375-1.6875 0.84375-3.4062 1.9062-1.5 1.5-4.4375 1.9062-1.2812 1.5 0.40625 0.40625 1.2812-1.0625 1.2812 1.9062 2.3438h3.1875l1.9375 3.1875-0.4375 1.0625 1.9062-1.2812 1.5-1.6875 1.3125 0.15625 0.0937-3.4062 6.6562-2.75 0.78125-1.9375-0.40625-4.3125-4.2812-4.4688-1.375 0.78125v-4.6875l-3.7188-1.7812-0.1875-1.5625 2.1562-2.3438v-2.7188l-3.5312-3.7188-0.1875-2.5312z" color="#000000"/><path id="departement42" d="m339.53 278.03-3.5312 0.59375l-0.5625 2.1562 1.375 2.7188 0.375 11.125-4.6875 0.21875-0.1875 1.75 3.125 2.5312-1.75 1.75-0.59375 4.3125 2.3438 3.125 2.125 5.0625 5.0938 3.3438 1.75 6.4375-3.7188 3.5 0.59375 2.3438 5.4688 1.7812 4.3125-3.5312 2.125-0.1875 6.25 2.7188-0.375 3.7188 3.125-0.1875 2.4688 2.8438 1.8125-0.5 3.375-0.625 0.875-3.8438 4.6562-2.75 0.4375-6.1562 0.15625-0.0937-2.2812-0.34375-2.125 0.84375-1.7188-1.0625 2.125-2.5312-0.625-1.9062-6.5938-1.0625-5.5312-5.0938v-1.7188l1.2812-1.0625v-1.4688l-1.4688-0.875 1.25-1.9062v-2.75l-2.5312-2.3438v-2.3438l-1.7188-1.6875v-1.9062l-0.84375-3.1875 1.2812-1.2812 0.21875-3.8125h4.0312l1.0625-1.2812-1.2812-2.125v-1.9062l-1.0625-0.84375-0.75 4h-2.1562l-1.5625 1.5625-1.1875-1.1875-6.25-0.96875-2.3438 1.375h-1.5625l-0.375-1.375-2.9375-0.59375-0.1875-3.125z" color="#000000"/><path id="departement69" d="m371.75 275.31-2.125 0.1875-1.7812 1.75-1.1562-1.5625-1.75 1.5625-2.375-1.5625h-1.9375l-0.78125 0.59375-0.40625 2.25 1.0625 0.84375v1.9062l1.2812 2.125-1.0625 1.2812h-4.0312l-0.21875 3.8125-1.2812 1.2812 0.84375 3.1875v1.9062l1.7188 1.6875v2.3438l2.5312 2.3438v2.75l-1.25 1.9062 1.4688 0.875v1.4688l-1.2812 1.0625v1.7188l5.5312 5.0938 6.5938 1.0625 0.625 1.9062-2.125 2.5312 1.7188 1.0625 2.125-0.84375 2.2812 0.34375 4.0938-2.0312-0.65625-1.2812-2.75-2.75 4.25-1.5 5.5312-1.2812 4.25-5.5-2.7812-2.3438 0.15625-2.0312-3.9688-1.1562-2.5625 0.84375-0.40625-3.4062-2.3438-2.125-1.5-0.21875-3.8125-2.3125 0.625-1.5v-6.5938l1.0625-1.4688 0.375-4.5625-0.65625 1.5625-1.375-0.1875-0.75-3.9062z" color="#000000"/><path id="departement73" d="m417 293.81-0.40625 5.7188-1.2812 1.0625v6.375l-2.5625 0.4375-0.40625 3.625-2.3438 1.6875-0.0312-0.0312 0.25 1.0938 2.3438 2.5312v1.7188l2.3125 4.25 4.9062 1.0625 1.6875 1.2812 0.65625-0.65625-0.875-1.6875 1.2812-2.7812 1.5-0.1875 2.5312 3.375 1.0625-1.4688h1.5l4.0312 4.0312 0.21875 2.75-1.9062 1.0625-0.875 4.0312 1.7188 1.7188v1.6874l-0.4375 1.7188 1.2812-1.2812 2.125 1.2812 1.125 1.5312 3.5312-0.375 1.1562 1.1562 0.59375 2.75 3.5-0.40625 0.40625-2.9375 1.75-0.78125 3.75 0.1875-0.0625-0.125 5.8438-2.3438 2.1562 1.375h2.1562l0.1875-2.3438 2.5312-1.375 0.96875-1.1562 5.0938-1.9688 0.59375-3.3125-1-1.5625 2.75-4.6875-2.5313-0.96875-0.78125-2.75-5.2812-3.125s0.31502-5.9872-0.1875-7.0625c-0.0158-0.0269-0.0497-0.0773-0.0625-0.0937-5e-3 -5e-3 -0.0261-0.0266-0.0312-0.0312-4e-3 2.2e-4 -0.0284-7e-5 -0.0312 0-5e-5 -7e-3 -1.7e-4 -0.0294 0-0.0312-4e-3 1.2e-4 -0.0284-4e-5 -0.0312 0-3e-3 -1.5e-4 -0.0283-7e-5 -0.0312 0-4e-3 -8e-5 -0.0284 1e-5 -0.0312 0-0.78125 0.19532-3.6875 0.40625-3.6875 0.40625l-2.9375-3.3438 0.0937-3.2188-1.3125-0.15625-1.5 1.6875-1.9062 1.2812 0.4375-1.0625-1.9375-3.1875h-3.1875l-1.9062-2.3438 1.0625-1.2812-0.40625-1.2812-1.5-0.40625-1.9062 1.2812-1.5 4.4375-1.9062 1.5-0.84375 3.4062-0.84375 1.6875-3.4062 0.65625-1.0625-1.0625-2.9688-3.1875h-1.7188l-0.625 1.25-3.4062-0.40625-1.4688-2.7812-3.8438-0.625v-5.5314z" color="#000000"/><path id="departement07" d="m375.25 328.5-4.5312 2.6875-0.875 3.8438-3.375 0.625-1.8125 0.5 0.0625 0.0937-1.1562 4.6875-2.75 1.1562-1.1562 1.9688 0.78125 2.5312 0.5625 1.375h-2.9062l-0.21875 3.6875-3.125 0.21875-1.5625 4.875h-4.6875l-5.0625 3.7188-2.8125 4.4688 0.46875 0.59375 1.375 7.1875 3.3125 3.5938-0.5625 4.125 4.1562 2.5v5.5312l2.2188-1.125 4.6875 3.0625 2.2188 0.8125 0.53125-3.875 2.7812-0.53125 0.8125 3.0312 2.7812-0.28125 0.53125-3.0312 6.3438 3.5625 1.0312-2.0937 2.6875-0.40625 0.21875-4.125-0.625-0.875-0.84375-0.1875v-1.5l0.625-1.5-1.0625-1.6875 0.625-3.8125 2.5625-3v-4.2188l-1.0625-4.9062 1.9062-0.40625 0.4375-2.125 1.9062-3.625 1.0625-2.75-1.6875-4.25-1.0625-3.4062-1.5-5.9375v-7.9688l-1.0625-0.34375z" color="#000000"/><path id="departement26" d="m384.94 329.28-2.75 1.9062-2.3438 0.84375l-2.3438-0.71875v7.9688l1.5 5.9375 1.0625 3.4062 1.6875 4.25-1.0625 2.75-1.9062 3.625-0.4375 2.125-1.9062 0.40625 1.0625 4.9062v4.2188l-2.5625 3-0.625 3.8125 1.0625 1.6875-0.625 1.5v1.5l0.84375 0.1875 0.625 0.875-0.21875 4.125 2.5938-0.375 1.1562 1.375-0.5625 3.9062 0.78125 0.96875 2.9062-2.9375 2.5625-0.1875 0.5625-1.5625-3.3125-0.40625-0.5625-3.5 2.125-3.3125 2.75-0.21875 2.7188 2.5625-2.7188 3.6875 0.78125 1.375 3.9062 0.40625 2.5312-2.1562-1.375 2.9375 0.40625 2.3438 4.0938 0.375 5.4688 0.40625 0.78125 2.5312 2.9375 2.1562 2.5312 0.1875 1.75-1.5625 1-2.9375 1.5625 1.375 1.1562 1.375 0.78125-7.25-1.9375-0.375-1.1875-2.5312-6.625-1.7812-0.8125-3.3125 2.375-1.5625-1.9688-1.375 0.40625-1.75 3.125 0.1875 2.7188 1.375 2.1562-2.5312-2.1562-1.75 0.1875-2.3438 1.1875-3.7188 4.0938-0.40625 3.3125-1.3438 0.34375-0.78125-3.5312-0.40625-1.25-1.0625-1.9375-0.1875-1.9062-1.5-2.5312-1.5h-2.7812l-1.0625-1.0625-0.1875-15.906h-0.65625l-0.84375 1.4688-1.9062 1.2812-4.4688-1.2812-3.4062-1.0625-1.4688 0.4375-0.4375-1.0625 1.0625-2.9688-0.4375-3 0.875-2.125-2.125-2.9688h-2.9688z" color="#000000"/><path id="departement17" d="m149.31 270.62-2.75 0.1875-5.9688 3.625 1.4375 1.3125-3.125 2.5312-0.375 1.9688-2.9375 0.375-1.5625-1.75-3.9062-0.375-0.40625-1.9688-2.3438-1.5625-3.3125 1.1875 2.1562 3.125h2.7188l2.75 1.75 2.1562 1.75 4.0938-0.1875 0.78125 1.75 2.7188 0.59375 1 2.7188 1.75 0.78125-0.1875 2.1562-2.3438-0.375-0.78125 1.1562 1.75 2.5312-0.96875 4.3125-2.3438-0.1875 0.1875 2.7188 0.59375 0.96875h-2.75l-0.375-1.5625 1.75-2.3438-0.59375-1.3438-0.96875-0.78125-0.40625-4.6875-3.3125-0.40625-2.7188-3.3125-0.40625 6.8438 4.5 3.3125 0.375 3.7188 0.78125 4.2812 0.40625 4.3125 2.3438-0.21875 4.0938 3.3438 2.75 1.5625 0.1875 1.9375 2.1562 0.40625 6.25 6.25 1.4688 6.75h5.7812l0.96875-0.96875 0.1875 2.9375 5.0938 0.59375 0.78125 6.25 2.75 0.1875 4.4688 4.5 2.3438 0.375 2.75-1.375 1.9375 1.375 1.5625-3.3125 1.5625-2.7188-4.1562-2.8125-1.2812-1.7188-1.7188-1.9062-4.0312 0.65625-1.2812-0.65625-0.1875-1.0625 2.125-0.84375v-0.40625l-1.5-0.4375-1.0625-0.84375 2.5625-2.125v-1.5l-1.2812-1.2812 0.84375-0.84375 0.4375-2.125-1.5-1.4688-1.2812-2.125-2.3125-2.125-1.7188-1.0625 1.5-1.7188-0.84375-0.1875-0.21875-4.4688-1.7188-0.65625 2.3438-1.25h2.7812l1.25-1.0625h2.3438l0.4375 1.0625 2.125 0.1875 1.4688-0.625 0.4375-4.0312 1.6875-6.1562 0.0625-0.0312-1.5312-1.4688-0.4375-2.125-2.75-1.2812-3.625-2.5312-4.4688 0.40625-2.75-3.5938-4.0312-0.21875-3.1875-2.3438v-1.2812l-2.125-2.3125-0.0937-2.875-2.9375-2.1875-3.7188 1.5625z" color="#000000"/><path id="departement19" d="m265.75 307.62-0.84375 2.125-3.1875 0.625-1.25 2.125h-1.5l-2.125-0.625-1.5 2.5312-2.3125 0.21875-1.5 2.75h-1.9062l-1.5 1.5-3.8125-0.4375-1.2812 2.125-1.4688-0.1875-2.5625 3.1875-2.3438-0.875-1.0938 2.2188 0.84375 2.1562 2.1562 1.75-3.9062 3.5312v2.7188l1.5625 0.78125-1.5625 1.9688 2.1562 1.75-1.5625 1.9375 1.75 1.1875 4.2812-0.1875-0.1875 4.2812 1.625 2.5625 0.59375-0.0937 4.1562-1.9375 4.9688 2.2188 3.8438 5.5 2.2188-0.28125 3.3125-3.3125 1.0938 1.9375 2.2188-2.1875 3.0312 0.8125 0.0937 0.65625 2.5312-1.7812-0.78125-1.9375-1.1875-1.1875 1.5625-1.9375h1.5625l1-3.125 0.78125-1.5625-0.59375-3.5312 2.5312-3.5 3.5312-2.1562 0.1875-5.4688 1.75 0.96875 1.9688 2.1562h1.9375l1.1875-1.375-0.96875-2.3438 0.96875-3.5-0.59375-3.3125-1.1875-1.375v-2.75l1.7812-2.9062-0.40625-2.75-0.4375-0.4375-1.9688 1.5312h-3.8438l-1.25 1.9062h-2.3438l-1.9062-1.9062-0.875-1.2812h-4.875l-1.0624-1.4688z" color="#000000"/><path id="departement23" d="m256.12 267.88-1.1562 3.125-3.5312-0.1875-0.78125-0.40625-2.3438 0.21875-1.75-1.1875-3.375 3.875 0.0625 2.875-2.3438 4.6562 0.4375 2.3438 2.5312 0.625 1.7188 4.25 1.6875 1.7188-0.625 8.0625 3.5938-1.0625 1.5 1.9062-2.3438 1.9062v1.9375l1.9062 0.1875 3.4062-0.1875 1.0625-1.5h0.84375l-0.40625 2.5625 2.75 1.25 2.5625 1.7188v1.0625h-1.5l0.4375 2.5312 1 0.625 0.25-0.40625 3.1875-0.625 0.84375-2.125h1.5l1.0625 1.4688h4.875l0.875 1.2812 1.9062 1.9062h2.3438l1.25-1.9062h3.8438l1.9688-1.5312-4.0625-4.0625-0.375-1.75 3.7188-2.1562 2.1562-1.1562 0.5625-2.75 2.3438-1.75-0.78125-3.7188-1.5625-1.9375-0.375-6.0625-2.1562-5.0625-2.1562-0.78125-1.5625-2.75-1.375 1.75-1.3438-1.75v-2.3438l-2.3438-3.3125-6.4375 0.78125-3.7188-0.96875z" color="#000000"/><path id="departement87" d="m239.53 270.81-1.75 1.75-4.9062-0.375-0.5625-0.125-3.7188 0.6875-2.1562 1.7812v2.3438l-4.2812 0.1875-2.5312 2.9375-1.5625 1.1562 1.3438 1.5625-0.1875 5.2812-0.96875 1.75 1.5625 1.75 2.7188 0.21875 0.59375 2.7188 0.1875 1.75-3.5 0.78125-1.75 0.59375 0.375 4.875-2.3438 1.5625-1.9688 0.59375-0.96875 2.75-1.5625 0.1875-0.65625 2.9688 4.5625 0.15625 1 1.9375-0.8125 2.1562 1.7812 2.3438 1.3438-0.375 1.375-1.9688 6.25 0.59375 1 3.9062 4.2812 0.59375 0.96875 1.3438-2.9375 1.375 1.375 0.96875 4.125 0.59375 0.3125 0.78125 1.0938-2.2188 2.3438 0.875 2.5625-3.1875 1.4688 0.1875 1.2812-2.125 3.8125 0.4375 1.5-1.5h1.9062l1.5-2.75 2.3125-0.21875 1.5-2.5312 2.125 0.625h1.5l1-1.7188-1-0.625-0.4375-2.5312h1.5v-1.0625l-2.5625-1.7188-2.75-1.25 0.40625-2.5625h-0.84375l-1.0625 1.5-3.4062 0.1875-1.9062-0.1875v-1.9375l2.3438-1.9062-1.5-1.9062-3.5938 1.0625 0.625-8.0625-1.6875-1.7188-1.7188-4.25-2.5312-0.625-0.4375-2.3438 2.3438-4.6562-0.0625-2.875-0.53125 0.625z" color="#000000"/><path id="departement86" d="m188.75 225.69-3.7188 3.9062-0.9375 1.625 0.3125 4.8125 1.6875-0.21875 0.21875 2.125 0.65625 3.4062 1.0625 2.3438-1.2812 1.4688 0.625 1.0625-0.84375 1.5v0.625l1.5 1.7188v1.0625l-0.65625 1.6875-2.125 3.1875 2.125 0.84375 0.65625 1.5-0.875 2.3125-0.1875 1.0625-1.2812 2.125v1.5l0.84375 0.21875v4.4688l1.5 1.0625-0.65625 1.4688 0.21875 1.2812 1.6875 1.9062 0.875-1.2812v-1.0625l1.6875-0.84375 1.2812 0.84375v3.1875l-1.2812 1.5-1.0625 2.5312 1.4688 2.3438 3 0.84375-0.65625 1.9375-2.7812 0.46875 2.5625 3.125 3.4062-0.21875 2.9688-1.0625 3 1.7188 1.0625-0.84375-0.21875-2.7812 1.6875-1.2812 1.5 2.5625 1.25 1.2812 3.625-1.5 1.5-1.6875h3.375l1.75 0.875 0.125-3.6875-1.3438-1.5625 1.5625-1.1562 2.5312-2.9375 4.2812-0.1875v-2.3438l2.1562-1.7812 5.2812-0.96875 0.375-2.9375-2.125-1.1562-1.1875-4.0938-3.125-0.40625-1.9375-1.9375-3.7188-2.9375 0.78125-2.3438v-3.7188l-3.5312-3.5-0.375-2.75-3.3438-3.5-1.1562-4.6875-1.375-0.59375-1.5625-2.1562-1.5625 0.96875 0.40625 2.1562-5.0938 1.1875h-5.8438l0.1875-2.3438v-3.7188l-4.6875-1.375v-2.3438l-3.7188-0.78125-0.78125-3.125z" color="#000000"/><path id="departement16" d="m206.28 284.88-1.6875 1.2812 0.21875 2.7812-1.0625 0.84375-3-1.7188-2.9688 1.0625-3.4062 0.21875-2.5625-3.125-0.8125 0.15625-3.4062 1.6875-2.5625 0.65625v1.4688l-1.4688 1.7188 0.40625 1.0625-1.9062 1.0625-1.6875 6.1562-0.4375 4.0312-1.4688 0.625-2.125-0.1875-0.4375-1.0625h-2.3438l-1.25 1.0625h-2.7812l-2.3438 1.25 1.7188 0.65625 0.21875 4.4688 0.84375 0.1875-1.5 1.7188 1.7188 1.0625 2.3125 2.125 1.2812 2.125 1.5 1.4688-0.4375 2.125-0.84375 0.84375 1.2812 1.2812v1.5l-2.5625 2.125 1.0625 0.84375 1.5 0.4375v0.40625l-2.125 0.84375 0.1875 1.0625 1.2812 0.65625 4.0312-0.65625 1.7188 1.9062 1.2812 1.7188 4.1562 2.8125 0.59375-1 3.9062 0.40625 1.9375-1.7812 3.5312-3.5 0.1875-6.8438 9.1875-6.25 0.1875-4.6875 2.75-0.375 1.75-3.125 1.0938 0.0312 0.65625-2.9688 1.5625-0.1875 0.96875-2.75 1.9688-0.59375 2.3438-1.5625-0.375-4.875 1.75-0.59375 3.5-0.78125-0.1875-1.75-0.59375-2.7188-2.7188-0.21875-1.5625-1.75 0.96875-1.75 0.0625-1.5938-1.75-0.875h-3.375l-1.5 1.6875-3.625 1.5-1.25-1.2812z" color="#000000"/><path id="departement79" d="m181.72 229.41-5.2812 0.1875-4.875 0.96875-5.2812 0.40625v2.7188l-2.7188 1.7812-6.0625-1.375-4.0938 1.75 1.9375 2.75v2.3438l4.6875 3.9062-1.1562 2.5312 3.125 3.5-1.375 1.7812 1.9375 2.9062 0.59375 5.4688-1.1562 1.5625 1.375 2.3438-1.375 2.5625 0.1875 1.5625 1.5625-1.1875 1.9375 1.9688-2.7188 1.75-0.96875 1.1562-2.1562 0.59375-2.5312 1.1875-0.1875-0.15625 0.0937 2.875 2.125 2.3125v1.2812l3.1875 2.3438 4.0312 0.21875 2.75 3.5938 4.4688-0.40625 3.625 2.5312 2.75 1.2812 0.4375 2.125 1.5312 1.4688 1.8438-1.0312-0.40625-1.0625 1.4688-1.7188v-1.4688l2.5625-0.65625 3.4062-1.6875 3.5938-0.625 0.65625-1.9375-3-0.84375-1.4688-2.3438 1.0625-2.5312 1.2812-1.5v-3.1875l-1.2812-0.84375-1.6875 0.84375v1.0625l-0.875 1.2812-1.6875-1.9062-0.21875-1.2812 0.65625-1.4688-1.5-1.0625v-4.4688l-0.84375-0.21875v-1.5l1.2812-2.125 0.1875-1.0625 0.875-2.3125-0.65625-1.5-2.125-0.84375 2.125-3.1875 0.65625-1.6875v-1.0625l-1.5-1.7188v-0.625l0.84375-1.5-0.625-1.0625 1.2812-1.4688-1.0625-2.3438-0.65625-3.4062-0.21875-2.125-1.6875 0.21875-0.3125-4.8125-0.40625 0.71875-1.375-1.1562z" color="#000000"/><path id="departement22" d="m69.781 123.22-1.7812 1.375-4.4688 0.5625-1 1.375-3.125-2.3438-4.0938 2.75 1.5625 2.125-2.7188 3.7188-0.125-0.0625-1.125 5.25 2.4062 0.15625-0.15625 2.0938 1.7812 1.125-1.625 1.625-1.125 0.8125 0.15625 1.9062 2.4375 0.8125-2.2812 0.65625v2.4062l1.4688 1.9375 0.3125 5.6562-0.96875 0.96875 0.8125 2.9062 3.0625 0.8125 0.3125 1.5938 1.9375 0.15625 1.625-1.125 0.96875 0.96875 3.7188 1.625 3.0625-1.625 0.78125-1.5938 2.5938-0.1875 2.9062 2.5938 2.75-0.65625 2.4062 2.4375h1.125l1.125 1.4375h2.2812l0.78125-1.125 0.96875 2.0938 2.4375 0.96875 3.0625-1.9375v-2.0938l2.25-0.8125h1.4375l1.7812 3.25 3.875 0.3125 1.9375-2.4375 2.0938-4.5 2.75-0.96875 1.4375-2.0938 1.4688 1.4375 3.0625-0.625 0.96875-8.875 0.96875-3.5625-0.96875-1.9375-1.625-0.625-1.0938-5.9062-1.25 1.4062-3.7188-0.40625-0.375 2.1562-2.3438 0.1875-0.1875-2.7188-1.9688-0.59375-1.375 1.5625v-3.9062l-2.3438 1.75-3.5-0.59375-1.1875 2.3438-7.2188 3.9062v1.9688h-1.5625v-3.5312l-4.0938-1.9375 0.375-3.5312-3.6875-2.7188v-3.3125l-2.75-0.59375 0.1875-3.125-2.125-0.1875 0.1875-2.1562h-3.9062l-0.59375 1.9375z" color="#000000"/><path id="departement85" d="m138.53 229.56-1.125 2.0938h-3.2188l1.2812 1.3125-0.96875 3.2188-2.9062 0.96875-1.125-0.8125 0.5-3.2188-0.8125-1.7812h-1.7812l-1.2812 1.4375 0.625 4.5312 1.4688 2.0938-1.4688 1.625-2.7188-0.5-4.0312-0.96875-1.125-3.0625-2.5938-0.3125-3.375-1.4688-0.8125-1.9375-3.6875-2.4062-5.8125 7.5-0.1875 4.6875 6.0312 5.8438-0.1875 1.75h1.75l3.7188 11.156 3.9062 1.9375 3.9062 3.9062h4.5l1.75 3.9062h4.3125l1.9375 2.9375 4.3125 2.1562 0.1875-2.75 1.0938 1.0312 5.9688-3.625 2.75-0.1875 1.1562 3.125 3.7188-1.5625 3.125 2.3438 2.5312-1.1875 2.1562-0.59375 0.96875-1.1562 2.7188-1.75-1.9375-1.9688-1.5625 1.1875-0.1875-1.5625 1.375-2.5625-1.375-2.3438 1.1562-1.5625-0.59375-5.4688-1.9375-2.9062 1.375-1.7812-3.125-3.5 1.1562-2.5312-4.6875-3.9062v-2.3438l-1.9375-2.75 0.375-0.15625-2.6562-2.25h-5l-1.625-0.96875-2.25-0.3125-2.5938-2.4375z" color="#000000"/><path id="departement50" d="m119.56 77.5-0.78125 1.9688 4.125 3.3125v4.3125l-1.5625 1.9375 0.96875 0.96875 0.59375 0.40625-0.40625 3.7188 1.375 3.125 4.5 5.0625 0.96875 4.5 0.96875 1.375v7.0312l2.3438 4.6875v5.4688l-2.5312 5.0625 2.7188 7.0312 4.3125 0.96875 0.375 1.9688-2.125 0.96875h-3.6875l0.59375 2.4688 1.1562 3.7188 3.3438 2.9375 1.5625 0.375 1.5625-2.125 1.75-0.21875 2.125-2.5312 1.9688 1.5625h2.3438l1.5625 0.78125v0.375l3.3125 0.40625 1.9688-1.5625 2.9062 1.1875 0.0625 0.125 3.3438-2.8438 1.125-3.7188-0.3125-1.625 0.46875-1.9062-1.9375-1.9375-5-3.25-3.6875-0.3125-3.7188-4.6875 3.0625-1.125 1.2812-2.4062-1.5938-1.4688 1.4375-1.2812 1.4375 1.125 2.5938-1.5938 1.625-2.5938 0.625-2.5625-1.125-2.2812 0.65625-0.8125-1.4688-2.4062 1.625-2.0938-1.2812-1.625-1.625 2.0938-2.25-1.2812-3.7188-3.7188-0.15625-1.5938 1.125-1.125-0.34375-2.1562-1.8438 0.46875-0.1875-4.6875-5.0938-6.0312 1.5625-3.9062h2.1562l-1.9375-5.2812-8.4062-0.40625-4.5 3.125-5.0625-3.3125z" color="#000000"/><path id="departement56" d="m56 160.59-3.25 1.5625h-2.2812l-2.4062 1.9375 0.15625 1.4375 1.4375 3.7188 0.8125 2.9062 5 0.8125 2.4375 1.9375 0.96875-1.1562 1.5938 2.125-0.8125 0.96875-0.15625 2.875h-1.4375l-1.125 1.7812h-2.2812l-0.9375 3.8438 2.1875 3.5 3.125 0.78125 1.1562-1.75-0.5625 2.125 2.7188 1.1875 3.5312 3.5 1.1562 2.1562-0.375 2.5312-0.40625 2.5625 2.3438 1.75 1.1875-1.375-1.1875-1.5625v-3.5l2.3438 0.5625 0.78125-2.3438 0.59375 1.375 2.5312 2.1562 1.1875-1.9688-1.1875-2.7188 2.1562 2.9375 2.7188-0.40625-0.5625-1.375 2.5312 0.59375 1.9375 2.3438-0.96875 1.5625-2.5312-0.78125-2.9375-1.375-1.5625 1.9688 2.3438 0.78125 1.75 2.7188 10.562-0.96875 2.7188 0.59375-1.3438 1.1562 0.1875 1.7812 0.375 0.28125 0.84375-0.15625 1.75-1.75 1.1562 1.3438h3.125l3.7188-1.9375 5.4688-2.1562 0.1875-5.4688 1.1562-0.625-2.0625-3.875 1.7812-1.4375-0.3125-0.96875-1.125-0.65625 1.75-0.8125 1.625-1.9375-0.15625-1.9375h-2.0938l-0.5-1.9062 1.4688-1.9375-1.625-2.9062-2.4062-1.4688h-2.75l-0.96875-0.3125v-1.2812l1.4375-1.3125 0.8125-3.2188-0.46875-2.0938-0.65625 0.8125-3.875-0.3125-1.7812-3.25h-1.4375l-2.25 0.8125v2.0938l-3.0625 1.9375-2.4375-0.96875-0.96875-2.0938-0.78125 1.125h-2.2812l-1.125-1.4375h-1.125l-2.4062-2.4375-2.75 0.65625-2.9062-2.5938-2.5938 0.1875-0.78125 1.5938-3.0625 1.625-3.7188-1.625-0.96875-0.96875-1.625 1.125-1.9375-0.15625-0.3125-1.5938-3.0625-0.8125z" color="#000000"/><path id="departement29" d="m40.656 129.06-2.125 2.3438-2.3438-0.96875-4.3125 0.40625-0.78125 1.9375-2.5312 0.59375-0.40625-2.1562-4.4688 0.59375v1.375l-3.125 0.1875-1.375-0.96875-1.5625 0.78125-0.40625 2.3438-5.25 0.1875-2.75 3.3125 2.3438 1.75-3.125 2.5625 0.96875 1.75-0.78125 4.2812 3.125 0.40625 1.1875-1.1875 0.59375 0.78125 7.4062-0.96875 4.875-3.5-4.2812 4.0938 0.375 1.9375 3.9062-1.75-0.78125 2.75 4.3125 0.1875-0.1875 1.1562-4.6875-0.1875-3.7188-0.96875-4.5-2.1562-2.7188 3.125 3.5 1.1875-0.1875 5.25 0.96875-0.78125 2.1562-3.3125 4.0938 2.3438 1.9688 0.40625 0.78125 3.125-1.1875 2.125-2.5312-0.1875h-2.3438l-3.9062 0.59375-6.6562 0.375-1.3438 1.7812 1.9375 1.1562 2.1562-0.1875 1.75 1.5625 2.5312-0.1875 4.125 4.6875 0.96875 5.0625-1.375 2.75 4.0938 0.78125 4.5-0.21875 0.96875-1.75-1.75-2.3438 1.75 0.78125 1.7812-0.1875 3.125 1.75 1.9375-0.375v-3.3438l0.78125 3.3438 2.5312 4.0938 5.4688 0.375 0.21875-1.1562 1.3438 1.9375 3.3438 0.59375h2.5312l0.15625 0.21875 0.9375-3.8438h2.2812l1.125-1.7812h1.4375l0.15625-2.875 0.8125-0.96875-1.5938-2.125-0.96875 1.1562-2.4375-1.9375-5-0.8125-0.8125-2.9062-1.4375-3.7188-0.15625-1.4375 2.4062-1.9375h2.2812l3.25-1.5625-0.6875-2.4688 0.96875-0.96875-0.3125-5.6562-1.4688-1.9375v-2.4062l2.2812-0.65625-2.4375-0.8125-0.15625-1.9062 1.125-0.8125 1.625-1.625-1.7812-1.125 0.15625-2.0938-2.4062-0.15625 1.125-5.25-3.2188-1.875-5.4688 0.1875v3.9062h-1.5625l-0.375-1.75-2.3438 0.375z" color="#000000"/><path id="departement35" d="m116.25 135.91-1.875 2.125 1.0938 5.9062 1.625 0.625 0.96875 1.9375-0.96875 3.5625-0.96875 8.875-3.0625 0.625-1.4688-1.4375-1.4375 2.0938-2.75 0.96875-2.0938 4.5-1.2812 1.625 0.46875 2.0938-0.8125 3.2188-1.4375 1.3125v1.2812l0.96875 0.3125h2.75l2.4062 1.4688 1.625 2.9062-1.4688 1.9375 0.5 1.9062h2.0938l0.15625 1.9375-1.625 1.9375-1.75 0.8125 1.125 0.65625 0.3125 0.96875-1.7812 1.4375 2.0625 3.875 3.9375-2.0938 12.094-0.59375 0.78125-2.1562 1.9688-1.9375 4.2812-0.59375 0.1875-2.1562 2.9375 0.40625 1.75 2.3438 3.9375 0.96875 0.75-1.5625 1-3.5312 2.5312-6.25 1.375-0.78125 3.3125 0.40625v-5.2812l-1.375-1.375v-5.6562l-0.59375-1.9375v-3.125l1.9688-1.9688v-3.9062l-0.96875-0.78125 0.1875-5.4688-1.5625-0.78125h-2.3438l-1.9688-1.5625-2.125 2.5312-1.75 0.21875-1.5625 2.125-1.5625-0.375-3.3438-2.9375-1.1562-3.7188-0.59375-2.4688h-9.5938l-3.5312-2.1562 2.3438-3.125z" color="#000000"/><path id="departement44" d="m132.88 185.84-0.1875 2.1562l-4.2812 0.59375-1.9688 1.9375-0.78125 2.1562-12.094 0.59375-5.0938 2.7188-0.1875 5.4688-5.4688 2.1562-3.7188 1.9375h-3.125l-1.1562-1.3438-1.75 1.75-0.84375 0.15625 1 0.6875-3.7188 3.3125 0.78125 0.78125 0.78125 1.5625-1.9688 2.75 2.1562 1.1562 3.7188 0.78125 0.375-1.5625 2.1562 2.75h3.5312l2.5312-2.75h3.3125l-3.5 1.75 0.1875 1.9688 0.78125 1.75-2.1562 2.1562h-2.3438l0.40625 2.9375 4.2812-0.78125 5.0938 4.6875-0.25 0.3125 3.6875 2.4062 0.8125 1.9375 3.375 1.4688 2.5938 0.3125 1.125 3.0625 4.0312 0.96875 2.7188 0.5 1.4688-1.625-1.4688-2.0938-0.625-4.5312 1.2812-1.4375h1.7812l0.8125 1.7812-0.5 3.2188 1.125 0.8125 2.9062-0.96875 0.96875-3.2188-1.2812-1.3125h3.2188l1.125-2.0938 1.125 0.15625 2.5938 2.4375 1.875 0.25 0.0625-2.0312-1.625-2.0938h-1.4375l-0.5 0.15625-0.96875-0.46875 0.8125-0.8125v-1.4688l1.625-0.46875 0.96875-2.25-0.8125-0.8125-0.15625-2.75h-2.0938l-2.0938-2.5938v-1.9062l2.25-1.1562 4.0312-0.78125 6.2812 0.15625 1.9375-1.3125-0.65625-4.0312-2.9062-2.7188-3.5312 0.46875-0.96875-0.8125-0.15625-2.875 2.5625-2.2812-1.9375-2.4062-1.2812-3.4062-2.0938-1.2812v-2.25l-0.21875-0.71875-3.6562-0.90625-1.75-2.3438z" color="#000000"/><path id="departement49" d="m141.94 188.69-0.4375 0.875-0.28125-0.0625 0.21875 0.71875v2.25l2.0938 1.2812 1.2812 3.4062 1.9375 2.4062-2.5625 2.2812 0.15625 2.875 0.96875 0.8125 3.5312-0.46875 2.9062 2.7188 0.65625 4.0312-1.9375 1.3125-6.2812-0.15625-4.0312 0.78125-2.25 1.1562v1.9062l2.0938 2.5938h2.0938l0.15625 2.75 0.8125 0.8125-0.96875 2.25-1.625 0.46875v1.4688l-0.8125 0.8125 0.96875 0.46875 0.5-0.15625h1.4375l1.625 2.0938-0.0625 2.0312 0.375 0.0625 1.625 0.96875h5l2.6562 2.25 3.7188-1.5938 6.0625 1.375 2.7188-1.7812v-2.7188l5.2812-0.40625 4.875-0.96875 5.2812-0.1875 0.59375 1.375 1.375 1.1562 1.3438-2.3438 3.7188-3.9062h1.5l2.2188-8 3.125-3.7188-0.21875-4.2812 1.9688-2.5625v-1.1562l-0.96875-1.1875 0.625-1.2812-2.6562-1.0312-8.2188-5-7.5938-2.25-2.9062-0.15625v-1.9375l-1.7812-1.4688h-1.9062l-3.5625-1.125-2.25 2.25-5.1562 0.1875-2.2812-1.3125-5.7812-1.75-1.3125 1.5938-3.2188-2.0938h-2.9062z" color="#000000"/><path id="departement72" d="m202.44 151.88-5.2812 0.1875-5.2812 4.875-2.75-0.15625-3.6562 1.1875-1.125 1.9375-0.5 4.1875 0.34375 2.5625-2.9062 2.4375-0.8125 1.5938 0.65625 1.4688-0.8125 1.9375 0.3125 0.8125-3.2188 0.3125-0.46875 1.4375 1.4375 3.5625-0.15625 0.96875-1.2812 1.125-2.75 0.15625-0.34375 0.96875 0.65625 0.96875v5.8125l-0.625 1.4688 1.75 1.4375v1.9375l2.9062 0.15625 7.5938 2.25 8.2188 5 2.6562 1.0312 1.3125-2.625 3.9062 2.75h2.1562l-1.1875-3.9062 2.375 1.5625 1.3438-1.9688 5.6562-1.5625-0.96875-2.3438 1.375-1.75 2.9375-1.1562 2.7188-3.5312v-3.7188h1.9688l0.78125-2.7188 0.1875-4.0938-1.9375-1.7812 1.5625-2.7188 2.3125-2.9375-2.7188-1.9375-2.5312-0.40625-2.75-4.0938h-0.78125l-0.1875 1.9375-0.1875-1.3438h-4.0938l-1.9688-2.9375-3.3125-1.1875-0.96875-7.0312z" color="#000000"/><path id="departement53" d="m182.5 146.41-1.9375 0.1875-0.8125 1.9375-2.9062 1.1875-5.2812-0.78125-5.2812 3.125-1.9375-1.375-2.9375 1.9688-2.1562-1.5625-1.375-2.3438-2.9062-1.1875-1.9688 1.5625-3.3125-0.40625-0.1875 5.0938 0.96875 0.78125v3.9062l-1.9688 1.9688v3.125l0.59375 1.9375v5.6562l1.375 1.375v5.2812l-3.3125-0.40625-1.375 0.78125-2.5312 6.25-1 3.5312-0.3125 0.6875 3.5312 0.71875h2.9062l3.2188 2.0938 1.3125-1.5938 5.7812 1.75 2.2812 1.3125 5.1562-0.1875 2.25-2.25 3.5625 1.125h1.9062l0.0312 0.0312 0.625-1.4688v-5.8125l-0.65625-0.96875 0.34375-0.96875 2.75-0.15625 1.2812-1.125 0.15625-0.96875-1.4375-3.5625 0.46875-1.4375 3.2188-0.3125-0.3125-0.8125 0.8125-1.9375-0.65625-1.4688 0.8125-1.5938 2.9062-2.4375-0.34375-2.5625 0.5-4.1875 1.125-1.9375 3.6562-1.1875-0.5625-0.0312-1-3.5312-2.5312-0.96875-0.78125-4.2812z" color="#000000"/><path id="departement14" d="m202.66 97.781-4.5625 0.8125-7.4375 4.3125-8.375 3.3125-6.6562-3.7188-16-2.3438-3.7188-1.9375-5.7812 1.4688 0.34375 2.1562-1.125 1.125 0.15625 1.5938 3.7188 3.7188 2.25 1.2812 1.625-2.0938 1.2812 1.625-1.625 2.0938 1.4688 2.4062-0.65625 0.8125 1.125 2.2812-0.625 2.5625-1.625 2.5938-2.5938 1.5938-1.4375-1.125-1.4375 1.2812 1.5938 1.4688-1.2812 2.4062-3.0625 1.125 3.7188 4.6875 3.6875 0.3125 2.8438 1.8438 3.9375-1.1875 2.9062-3.375 4.0312 1.125 3.5312-2.4375 2.125-0.78125 2.25 2.25 3.7188-0.65625 3.2188 1.7812 4.0312-1.2812 3.6875-2.75 2.4375-2.75 1.625-0.3125 0.46875 2.0938 1.2812-0.3125 0.15625-1.4688 3.7188-0.625 1.2812 0.78125 3.9688-0.875l0.65625-1.9062-0.1875-1.75-1.9688-0.78125-0.1875-1.375 1.75-1.1562 0.21875-1.9688-1.1875-4.6875-2.3438-3.3125 1.9688-1.1562v-0.78125l-1.9688-0.59375z" color="#000000"/><path id="departement61" d="m206.84 124.66-3.9688 0.875-1.2812-0.78125-3.7188 0.625-0.15625 1.4688-1.2812 0.3125-0.46875-2.0938-1.625 0.3125-2.4375 2.75-3.6875 2.75-4.0312 1.2812-3.2188-1.7812-3.7188 0.65625-2.25-2.25-2.125 0.78125-3.5312 2.4375-4.0312-1.125-2.9062 3.375-3.9375 1.1875 2.1562 1.4062 1.9375 1.9375-0.46875 1.9062 0.3125 1.625-1.125 3.7188-3.3438 2.8438 1.3125 2.2188 2.1562 1.5625 2.9375-1.9688 1.9375 1.375 5.2812-3.125 5.2812 0.78125 2.9062-1.1875 0.8125-1.9375 1.9375-0.1875 1.75 1.5625 0.78125 4.2812 2.5312 0.96875 1 3.5312 3.3125 0.1875 5.2812-4.875 5.2812-0.1875l1.5625 2.125 0.96875 7.0312 3.3125 1.1875 1.9688 2.9375h4.0938l0.1875 1.3438 0.1875-1.9375h0.78125l2.75 4.0938 2.125 0.34375v-4.625l-1.3438-1.7812-0.40625-1.5625 2.9375-1.75 2.9375-0.59375 1.9375-2.3438-0.375-7.2188-4.125-3.5-0.1875-3.3438-3.5-2.3438 1.375-1.9375-0.8125-2.9375-2.7188-0.96875-1.9688-1.9688-1.1562-2.7188-5.4688-0.1875-1.5625-1.9688z" color="#000000"/><path id="departement28" d="m247.16 126.09-1.1875 0.96875v3.125l-3.9062 1.9375v2.9375l-1.1562 1.375h-4.9062l-2.3125-0.96875-7.0625 3.6875h-2.7188l-2.8125 2.6875 0.65625 0.4375 0.1875 3.3438 4.125 3.5 0.375 7.2188-1.9375 2.3438-2.9375 0.59375-2.9375 1.75 0.40625 1.5625 1.3438 1.7812v4.625l0.40625 0.0625 2.7188 1.9375-1 1.25 1.9375 0.96875 3.0938-0.5625h1.8125l-0.125 0.84375-1.6875 0.96875 1.125 0.84375h2.8125l0.96875 2.25 1.6875 0.96875 1.25 2.8125 4.3438 1.125 2.6875-0.28125 2.375-2.25 2.125 0.59375 0.53125-1.1562-0.125-1.25 1.125-0.84375 1.8125 1.125 1.125-0.84375v-1.5312l1.5312-1 1.4062 0.5625 1.25 1.4062 2.25-1.25h2.375l1.6875-1.8438 1-3.625 1.5312-0.28125-0.40625-3.6562 1.8125-1.5312-0.5625-1.125 0.21875-0.375-0.53125 0.0625-0.40625-5.25-0.40625-0.59375-0.375-2.5312-4.0938-0.78125-1.7812-2.1562-0.5625-4.3125-2.3438-0.375-0.40625-2.1562-2.7188-1.9375-1.375-3.3438 1.375-2.3438-1.375-1.5625v-1.9375l0.78125-2.1562-1.5625-1.5625-0.59375-2.3438z" color="#000000"/><path id="departement89" d="m318.44 157.34-1.75 1.3438-7.625-0.375-3.5 1.75-1.375 2.9375 1.5625 1.75-2.3438 2.75-1.7812 2.125 3.5312 3.3438 0.96875 3.125 2.5625 2.7188v3.5312l-5.0938 4.2812 1.75 1.9688-0.375 2.9062-2.75 1.9688h-3.9062l0.59375 2.1562 2.5312 3.5 0.59375 3.125 0.59375 2.1562-1.1562 0.34375 2.4688 0.5625h1.8438l0.96875-1.5312h1.25l1.4062 1.25-0.28125 1.5625 1.2812 0.84375h1.8125l2.5312 1.6875 1.125-0.5625 1.125 0.96875 1.125-0.28125 1.9375-1.25 1.8438 0.5625 1.25-0.28125v-3.5l0.6875 0.125 0.4375 1.8125 2.25 1.4062v2.125l3.2188 0.125 4.2188 3.9375 2.6562 0.125-0.15625-1.25 1.125-1.6875 1 1.25-0.84375 1.4062 0.40625 1.2812 1.5312-1h1.8438l-0.15625 2.8125 1.6875 1.125 1.2812-0.5625 3.125-2.125-0.1875-0.40625-1.8438-1.125-0.125-1.9688 1.9688-0.96875 0.84375-1.125-0.5625-0.96875v-2.25l1.5312-2.25 2.25-4.7812 0.40625-2.0938 1.4062-0.5625 0.15625-0.40625-0.71875-0.5625v-1.6875l2.25-1.6875 0.5625-2.8125-0.96875-1.6562h-1.5625l-0.40625-0.4375v-2.375l1.9688-1.4062-0.15625-1.4062-0.28125-1.4062-1 2.1562-1.375-0.1875-1.1562-2.1562-3.9062 1.9688-7.8125-0.40625-0.96875-2.1562-2.1562-2.9062-0.375-3.5312-3.125-3.7188-1.9688 1.375-3.5312-2.7188 0.59375-5.2812-5.0625-5.2812h-2.3438z" color="#000000"/><path id="departement70" d="m423.5 175.5-3.6875 0.59375-0.59375 1.9375-1.9688 1.375-1.3438-1.5625-0.96875 0.59375 0.75 1.1562-1.9375 1.1875 0.59375 1.5625-2.1562 0.78125v2.5312h-2.75l-0.1875 1.5625-2.7188 0.59375 0.1875 2.3438 1.75 0.1875-0.96875 1.1562-0.59375 3.9062h-1.75l-2.9375 1.1875-3.125-1.1875-2.7188 1.1875v1.9688l2.125 0.375 1.5625 3.125 0.21875 1.5625-2.5312 2.9375-1.1875 0.375-0.78125 0.96875 2.1562 1 0.375 3.125 1.75 0.1875 0.21875 3.9062 0.78125 0.78125 0.0937 0.625 1.5 0.40625 1.6875 1.4062h2.5312l0.96875-0.96875 1.7188 0.0625 1.7812 0.0625 3.9375-3.2188h1.125l1.25-0.96875 4.0625 0.125 3.0938-2.5312 2.25-0.40625 0.84375-2.0938 1.8125-0.5625 1.8125-3.0938 2.5312-1.9688 2.6562-0.40625 1.9688 1.4062 3.6562-0.4375v-1.9688l1.4688-0.84375 1.1562-1.5938h2.25l1.25-1.3125 0.46875-3.125v-1.9375l-0.84375-2.9688v-2.5l1.5312-1.125 1.8125-0.9375-0.1875-0.375-6.25-3.3125-1.75-1.9688-1.75-1.1562-1.5625 0.78125-0.21875 1.1562-1.5625 0.96875h-0.96875l-2.9375-3.3125h-4.0938l-1.75 1.375-1.5625 0.1875-2.5312-1.9375 0.1875-2.1562z" color="#000000"/><path id="departement76" d="m241.94 61.5-1.2812 1.5625-8.375 6.4375-14.844 3.7188-9.7812 3.5-8 4.3125-4.6875 7.0312-0.96875 5.4688 3.9062 2.9375 5.6562 1.1562-0.90625 0.15625 0.0312 0.15625 4.375-0.5625 2.25-2.4062 1.6875-0.40625 1.9375 3.375 2.6875-0.28125 1.125 1.9375 4.75-0.28125 4.7812 3.375-3.0938 0.96875 2.25 1.6875h1.4062l1.25 2.6875h2.25l0.6875-1.6875-1.6875-1.125 4.7812-1.4062 5.0312-0.5625 1.2812-3.6562 2.375-2.0938 4.5-0.125 5.1875 2.6562 3.0938 0.34375 0.53125-1.625 1.375-2.5625 0.78125-1.3438h-1.9687v-3.3438l-1.1562-1.9375 0.78125-3.9062 0.78125-1.9688h-1.5625l0.78125-1.9375 1.9375-2.3438-1.9375-3.5312-0.59375-3.5-8.5938-8.4062-0.96875-1.9375-2.1562 0.1875z" color="#000000"/><path id="departement27" d="m211 94.562-1.6875 0.40625-2.25 2.4062-4.375 0.5625 0.90625 7.25 1.9688 0.59375v0.78125l-1.9688 1.1562 2.3438 3.3125 1.1875 4.6875-0.21875 1.9688-1.75 1.1562 0.1875 1.375 1.9688 0.78125 0.1875 1.75-1.5625 4.5 1.5625 1.9688 5.4688 0.1875 1.1562 2.7188 1.9688 1.9688 2.7188 0.96875 0.8125 2.9375-1.375 1.9375 2.8438 1.9062 2.8125-2.6875h2.7188l7.0625-3.6875 2.3125 0.96875h4.9062l1.1562-1.375v-2.9375l3.9062-1.9375v-3.125l1.0625-0.875-0.0937-0.875 1-1-1.75-0.375v-1.5625l-1-1.5625 0.78125-0.96875 5.4688-1.5625 1.375-2.3438 1.1875-4.3125 1.4375-1.7812 0.3125-2.3125 1.75 0.96875 1.375-0.375-1-1.5625-0.5625-4.5-1.75-1.5625 0.0312-0.125-3.0938-0.34375-5.1875-2.6562-4.5 0.125-2.375 2.0938-1.2812 3.6562-5.0312 0.5625-4.7812 1.4062 1.6875 1.125-0.6875 1.6875h-2.25l-1.25-2.6875h-1.4062l-2.25-1.6875 3.0938-0.96875-4.7812-3.375-4.75 0.28125-1.125-1.9375-2.6875 0.28125z" color="#000000"/><path id="departement37" d="m212.19 196.88 0.375 0.875-5.6562 1.5625-1.3438 1.9688-2.375-1.5625 1.1875 3.9062h-2.1562l-3.9062-2.75-1.9375 3.9062 0.96875 1.1875v1.1562l-1.9688 2.5625 0.21875 4.2812-3.125 3.7188-2.2188 8h0.25l0.78125 3.125 3.7188 0.78125v2.3438l4.6875 1.375v3.7188l-0.1875 2.3438h5.8438l5.0938-1.1875-0.40625-2.1562 1.5625-0.96875 1.5625 2.1562 1.375 0.59375 1.1562 4.6875 3.3438 3.5 0.375 2.75 3.0312 3 1.7188-0.15625 2.125-1.9688 1.5312-7.9688 0.96875-2.8125 0.71875-3.5 3.0938-1.125 2.0938 0.40625 1.4062 1.2812 1.5312-2.5312 1.4062-1.2812v-1.5312l1.8125-0.125 0.4375-1.8438-1.5625-2.0938 0.25-0.875-1.0938-0.9375-2.9375-4.3438h-3.7812l-1.125-1.6875v-7.0312l-1.5312-4.0625-0.28125-5.0312-1.9688-0.15625-2.25-1.6875h-0.5625l-1.9688 1.4062-1.25-0.84375-0.28125-1.9375 1.4062-0.71875 0.125-0.6875-0.8125-0.71875z" color="#000000"/><path id="departement45" d="m273.72 160.47-2.5312 2.3438-5.7188 0.5-0.21875 0.375 0.5625 1.125-1.8125 1.5312 0.40625 3.6562-1.5312 0.28125-1 3.625-1.6875 1.8438h-2.375l-2.25 1.25-1.25-1.4062-1.4062-0.5625-1.5312 1v1.5312l-1.125 0.84375-1.8125-1.125-1.125 0.84375 0.125 1.25-0.53125 1.1562 0.40625 0.125h1.6562l-0.125 1.125-1.125 1.9375v1h1.125l0.96875 1.125 0.28125 1.125-2.2188 2.2188 1.0938 2.6875v1.25l1.8438 1.25 2.5312 0.28125 1.6562 1.4062 0.4375 2.4062 1.8125 2.0938 1.9688-0.5625 0.84375-1.8125 3.0938 0.40625 0.6875 0.71875h1.9688l0.96875-1.125 7.1562 0.28125 1.6875 2.5 1.9688 0.84375 1.6875 1.5625 2.0938-0.28125 0.5625-0.71875h1.25l1.5625 1.9688 3.2188 0.15625 0.84375 1.0938 2.25 3.0938 0.96875 0.84375 1.25-0.125 0.15625-2.8125 0.5625-0.28125 0.84375 0.125 1.4062 1.8438 0.96875 0.40625 2-0.8125-0.3125-0.34375-0.1875-1.9688 3.9062-1.1562-0.59375-2.1562-0.59375-3.125-2.5312-3.5-0.59375-2.1562h3.9062l2.75-1.9688 0.375-2.9062-1.75-1.9688 5.0938-4.2812v-3.5312l-2.5625-2.7188-0.96875-3.125-3.5312-3.3438-4.875 2.75-0.375-1.5625-2.1562-0.1875-0.59375 1.5625-1.9375 0.375-5.2812-0.1875-2.1562 1.375-1.75-1.5625 3.125-2.1562-0.1875-3.3125-2.3438-1.1875-1.9688-2.9375-5.25-0.375z" color="#000000"/><path id="departement36" d="m254.72 221.44-1.25 0.4375-2.5312-0.15625-2.9375 1-0.6875 1.5312-0.28125-0.5625-3.375 0.15625-1.6875 1.4062-1.9688 0.28125-0.28125 0.96875 1.5625 2.0938-0.4375 1.8438-1.8125 0.125v1.5312l-1.4062 1.2812-1.5312 2.5312-1.4062-1.2812-2.0938-0.40625-3.0938 1.125-0.71875 3.5-0.96875 2.8125-1.5312 7.9688-2.125 1.9688-1.7188 0.15625 0.5 0.5v3.7188l-0.78125 2.3438 3.7188 2.9375 1.9375 1.9375 3.125 0.40625 1.1875 4.0938 2.125 1.1562-0.375 2.9375-1.5625 0.28125 0.5625 0.125 4.9062 0.375 1.75-1.75 3.125 3.125 3.9062-4.5 1.75 1.1875 2.3438-0.21875 0.78125 0.40625 3.5312 0.1875 1.1562-3.125 9.7812 1.1875 3.7188 0.96875 1.6875-0.1875 0.0937-1.5625 1.9688-1.9688-0.40625-1.6875-1.125-2.2188 0.40625-0.84375 0.15625-2.5312 0.6875-0.84375 0.15625-0.5625-1.6875-1.5312-0.56245-1.9688-2.6562-1.4062v-1.6875l1.9375-1.125v-1.125l-1.8125-1.5312-0.5625-0.96875 1.4062-0.71875-0.125-1.25 2.2188-1.8438-0.125-0.8125h-1.8125l-1.125-1.2812v-0.6875l0.96875-1.6875v-1.25l-2.25-2.9688 0.4375-2.6562-1.2812-0.96875-2.6562 0.125-2.0938 0.84375-2.8125-0.40625-1.4062-1.125-0.28125-0.84375 2.25-1.8438 0.15625-2.2188-2.9688-1.6875z" color="#000000"/><path id="departement41" d="m222.5 172.25-1.3125 1.6875-1.5625 2.7188 1.9375 1.7812-0.1875 4.0938-0.78125 2.7188h-1.9688v3.7188l-2.7188 3.5312-2.9375 1.1562-1.375 1.75 0.59375 1.4688 9.4688 0.3125 0.8125 0.71875-0.125 0.6875-1.4062 0.71875 0.28125 1.9375 1.25 0.84375 1.9688-1.4062h0.5625l2.25 1.6875 1.9688 0.15625 0.28125 5.0312 1.5312 4.0625v7.0312l1.125 1.6875h3.7812l2.9375 4.3438 1.0938 0.9375 0.0312-0.0937 1.9688-0.28125 1.6875-1.4062 3.375-0.15625 0.28125 0.5625 0.6875-1.5312 2.9375-1 2.5312 0.15625 1.25-0.4375 1.6875 1.5625 2.9688 1.6875 2.5-0.15625-0.12495-2.5313 1.125-1.25 1.125-0.125 0.96875 1.0938 3.9375-0.40625 2.5-1.4062-0.28125-0.96875-0.6875-0.84375 0.125-1.8438 1.8438-3.3438 2.375-1v-2.0938l0.5625-1.25-1.5312-0.5625-1-2.125-2.5312-0.6875-0.125-0.84375 2.5312-2.0938 2.8438-1.4062-1.5938-2.375-7.1562-0.28125-0.96875 1.125h-1.9688l-0.6875-0.71875-3.0938-0.40625-0.84375 1.8125-1.9688 0.5625-1.8125-2.0938-0.4375-2.4062-1.6562-1.4062-2.5312-0.28125-1.8438-1.25v-1.25l-1.0938-2.6875 2.2188-2.2188-0.28125-1.125-0.96875-1.125h-1.125v-1l1.125-1.9375 0.125-1.125h-1.6562l-2.5312-0.71875-2.375 2.25-2.6875 0.28125-4.3438-1.125-1.25-2.8125-1.6875-0.96875-0.96875-2.25h-2.8125l-1.125-0.84375 1.6875-0.96875 0.125-0.84375h-1.8125l-3.0938 0.5625z" color="#000000"/><path id="departement18" d="m275.53 200.84-2.8438 1.4062-2.5312 2.0938 0.125 0.84375 2.5312 0.6875 1 2.125 1.5312 0.5625-0.5625 1.25v2.0938l-2.375 1-1.8438 3.3438-0.125 1.8438 0.6875 0.84375 0.28125 0.96875-2.5 1.4062-3.9375 0.40625-0.96875-1.0938-1.125 0.125-1.125 1.25 0.125 2.5312-2.5 0.15625-0.15625 2.2188-2.25 1.8438 0.28125 0.84375 1.4062 1.125 2.8125 0.40625 2.0938-0.84375 2.6562-0.125 1.2812 0.96875-0.4375 2.6562 2.25 2.9688v1.25l-0.96875 1.6875v0.6875l1.125 1.2812h1.8125l0.125 0.8125-2.2188 1.8438 0.125 1.25-1.4062 0.71875 0.5625 0.96875 1.8125 1.5312v1.125l-1.9375 1.125v1.6875l2.6562 1.4062 0.5625 1.9688 1.6875 1.5312-0.15625 0.5625-0.6875 0.84375-0.15625 2.5312-0.40625 0.84375 1.125 2.2188 0.40625 1.6875-1.9688 1.9688-0.0937 1.5625 4.5938-0.5625 0.9375-2 2.5312-2.9062 4.875-1 2.5625 0.78125 2.7188-2.125-0.1875-1.5625-0.96875-0.78125v-3.125l5.25-5.2812 1.9688 2.1562 1.75-1.7812 1.5625-0.1875 2.7188-3.5 4.5 0.375 0.0625 1.0625 1.5-4.7812-0.96875-1.75 0.1875-2.5312 0.59375-5.0938-2.1562-2.125 0.40625-4.6875-1.9688-4.125-0.1875-2.7188-3.5312-2.75-0.56255-2.3438 1.75-2.5312v-3.7188l-2.0312-2.375-2 0.8125-0.96875-0.40625-1.4062-1.8438-0.84375-0.125-0.5625 0.28125-0.15625 2.8125-1.25 0.125-0.96875-0.84375-2.25-3.0938-0.84375-1.0938-3.2188-0.15625-1.5625-1.9688h-1.25l-0.5625 0.71875-2.0938 0.28125-1.6875-1.5625-1.9688-0.84375z" color="#000000"/><path id="departement21" d="m363.38 177.25-0.40625 2.5312-2.5312 1.375-6.4375 0.1875 0.28125 1.4062 0.15625 1.4062-1.9688 1.4062v2.375l0.40625 0.4375h1.5625l0.96875 1.6562-0.5625 2.8125-2.25 1.6875v1.6875l0.71875 0.5625-0.15625 0.40625-1.4062 0.5625-0.40625 2.0938-2.25 4.7812-1.5312 2.25v2.25l0.5625 0.96875-0.84375 1.125-1.9688 0.96875 0.125 1.9688 1.8438 1.125 0.6875 1.5312-0.28125 2.125-0.40625 1.5312 0.96875 1.6875 2.8125 0.5625 1.25 1.9688v0.84375l-0.84375 0.28125v2.0312l0.15625 0.0625 3.7812 3.9062 3.9375-0.125 3.5 2.6562 2.5312 1.8438 0.125 2.375 2.6562 0.5625 2.25 1.8125 5.9062-2.0938 4.0625-1.2812 1.8125-0.28125 0.5625-0.8125 1.9688 0.125 1.5312 0.96875 2.25-0.5625 2.25-1.5312 1.6875 0.1875 0.0312-0.1875 1.3438-0.78125-0.1875-1-0.375-1.1562 0.96875-1.5625 3.3125-1.5625v-1.5625l1.1875-1.5625 1.1562-1.5625-0.375-1.375 0.5625-2.1562 0.40625-3.125h0.7813l-0.1875-1.1562-0.78125-0.78125-0.21875-3.9062-1.75-0.1875-0.375-3.125-2.1562-1 0.78125-0.96875 1.1875-0.375 2.5312-2.9375-0.21875-1.5625-1.5625-3.125-2.3125-0.40625-0.8125 1.9688-4.2812 0.96875-0.40625-0.96875-3.125-3.9062-1.75 0.96875-2.3438-0.1875-0.78125-1.5625-3.125 0.1875-0.1875-3.3125-1.75-1.1875 2.5312-2.7188-4.5-6.0625-3.5-3.7188-3.125-1.75z" color="#000000"/><path id="departement58" d="m306.75 203.78-0.96875 1.5312h-1.8438l-2.4688-0.5625-2.75 0.8125 0.1875 1.9688 2.3438 2.7188v3.7188l-1.75 2.5312 0.5625 2.3438 3.5312 2.75 0.1875 2.7188 1.9688 4.125-0.40625 4.6875 2.1562 2.125-0.59375 5.0938-0.1875 2.5312 0.96875 1.75-1.5 4.7812 0.125 1.4688 3.3438 1.5625 2.3438 2.5625 2.125-1.1875 1.9688-1.1562 0.40625 1.75h2.9062l0.78125-1.5625 1.75 0.78125 0.59375 2.5312 1.5625-0.375 3.7188-5.0938 1.9375 1.375 0.3125 0.59375 3.0625-1.9062 1.25 0.15625 0.96875 2.375 1.8438-0.28125 1.4062-1.4062h1.8125l1.4062-1.8125 1.4062-0.28125 0.28125-1 3.0625 0.15625 0.15625-0.71875-1.4062-1.25v-1.25l1.9688-1.125v-0.84375l-1.8438-1.125-0.28125-2.0938 0.15625-1.9688-1.25-0.84375 1.0938-1.5312 1-0.5625 0.6875-1.6875-0.96875-0.5625-1.125-1.6875 1.4062-1.9688 2.375-1.4062h2.9375v-2.2188l0.84375-0.28125v-0.84375l-1.25-1.9688-2.8125-0.5625-0.96875-1.6875 0.40625-1.5312 0.28125-2.125-0.5-1.125-3.125 2.125-1.2812 0.5625-1.6875-1.125 0.15625-2.8125h-1.8438l-1.5312 1-0.40625-1.2812 0.84375-1.4062-1-1.25-1.125 1.6875 0.15625 1.25-2.6562-0.125-4.2188-3.9375-3.2188-0.125v-2.125l-2.25-1.4062-0.4375-1.8125-0.6875-0.125v3.5l-1.25 0.28125-1.8438-0.5625-1.9375 1.25-1.125 0.28125-1.125-0.96875-1.125 0.5625-2.5312-1.6875h-1.8125l-1.2812-0.84375 0.28125-1.5625-1.4062-1.25z" color="#000000"/><path id="departement71" d="m351.47 227.84v0.1875h-2.9375l-2.375 1.4062-1.4062 1.9688 1.125 1.6875 0.96875 0.5625-0.6875 1.6875-1 0.5625-1.0938 1.5312 1.25 0.84375-0.15625 1.9688 0.28125 2.0938 1.8438 1.125v0.84375l-1.9688 1.125v1.25l1.4062 1.25-0.15625 0.71875-3.0625-0.15625-0.28125 1-1.4062 0.28125-1.4062 1.8125h-1.8125l-1.4062 1.4062-1.8438 0.28125-0.96875-2.375-1.25-0.15625-3.0625 1.9062 3.625 6.8125v2.9375l0.96875 1.1875h3.3125l1.1562 1.5625h3.125l1.375 1.9375-0.1875 7.625-4.0938 3.125-0.0937 0.21875 0.28125-0.0312 0.59375 0.1875 0.1875 3.125 2.9375 0.59375 0.375 1.375h1.5625l2.3438-1.375 6.25 0.96875 1.1875 1.1875 1.5625-1.5625h2.1562l1.1562-6.25 0.78125-0.59375h1.9375l2.375 1.5625 1.75-1.5625 1.1562 1.5625 1.7812-1.75 2.125-0.1875 1 3.125 0.75 3.9062 1.375 0.1875 1.1875-2.75 3.6875-14.438 1.375-2.5312 2.1562-0.21875 2.1562 1.7812 1.5625-0.40625 1.9375-1.375 1.9688 0.40625 1.1562 2.5312 1.125 0.4375 5.125-0.625 1.9688-1.5625-0.78125-1.1875-2.3438-0.78125-0.21875-2.7188 1.9688-1.375 0.78125-3.3125-1.75-3.125-1.1875-1.5625 0.59375-0.59375v-1.9375l-1.5625-1-0.40625-1.5625 4.5-0.5625 0.40625-1.5625h-1.375l-1.1563-1.375h-2.1562l-1.7812-2.9375-1.5625-0.1875 0.1875-2.3438-1.6875-0.1875-2.25 1.5312-2.25 0.5625-1.5312-0.96875-1.9688-0.125-0.5625 0.8125-1.8125 0.28125-4.0625 1.2812-5.9062 2.0938-2.25-1.8125-2.6562-0.5625-0.125-2.375-2.5312-1.8438-3.5-2.6562-3.9375 0.125-3.7812-3.9062z" color="#000000"/><path id="departement39" d="m401.16 217.53 0.0937 0.53125h-0.78125l-0.40625 3.125-0.5625 2.1562 0.375 1.375-1.1562 1.5625-1.1875 1.5625v1.5625l-3.3125 1.5625-0.96875 1.5625 0.375 1.1562 0.1875 1-1.3438 0.78125-0.2187 2.5312 1.5625 0.1875 1.7812 2.9375h2.1562l1.1562 1.375h1.375l-0.40625 1.5625-4.5 0.5625 0.40625 1.5625 1.5625 1v1.9375l-0.59375 0.59375 1.1875 1.5625 1.75 3.125-0.78125 3.3125-1.9688 1.375 0.21875 2.7188 2.3438 0.78125 0.78125 1.1875-1.9688 1.5625-5.125 0.625 2.4062 0.9375 3.9062 5.4688 2.5312 1.1562v2.75l2.9375-0.40625 3.7188-4.0938 3.125 1.5625v2.3438h5.6562l8.125-8.9375-0.34375-0.1875 0.375-4.0938 2.9375-3.5-1.9688-0.78125 0.1875-1.1875-2.375-0.21875-0.15625-1.4062 1.5312-1.5312-0.40625-1.5312-0.84375-1.9688 3.5-1.125 1.2812-1.8125 0.28125-2.25-2.8125-2.6875-1.9688-0.53125-4.3438-1.4062v-3.9375l-0.28125-2.9375-3.5 0.28125-5.4688-1.8438 0.84375-1.9375 1.25-2.9688 0.4375-1.9375-1.4062-1.8438-2.5312-1.6875-0.28125-2.0938 0.0312-1.1875-1.7188-0.0625-0.96875 0.96875h-2.5312l-1.6875-1.4062z" color="#000000"/><path id="departement51" d="m337.38 99.312-2.3438 1 0.40625 1.9375h-4.125l-3.6875 2.75v5.25l2.7188 1.7812 0.78125 1.75-4.5 0.375-0.5625 1.7812 1.75 1.1562-0.78125 1.1875-1.75 0.78125 0.375 1.3438h2.5312l1 1.375-1.75 1.1875-1.5625 4.0938-2.9375 1.375-1 2.125-0.96875 1.1875 0.21875 1.1562-1.5625 1-0.40625 2.7188 1.5625 0.96875 0.78125 2.9375-0.96875 1.75 0.59375 1.375 2.9062-0.1875v0.96875l0.84375-0.1875 3.375 3.5625 4.75-0.78125 5.5625-3.7812h3.3438l3.375-2.375 3.9688-2.1875 2.9688 0.21875 0.40625 3.9688 3.5625 5.3438h3.9688l5.5625-1.1875 3.9688 1.375 4.1562-2.9688 0.59375-4.9375 4.5938-0.78125-0.09375-3.0938-3.7188-2.9375-0.40625-1.5625 1.375-2.3438-1.1875-0.96875 1.1875-2.9375 2.1562-0.96875 1.5625-4.875-3.125 0.1875 1.75-1.9375-1.375-4.3125-1.3438-2.9375 1.75-1.5625-1-0.1875-0.25-1.3438c-0.0404 6e-3 -0.28125 0.0312-0.28125 0.0312l-1.7812-1.5938-2 2h-0.59375l-0.78125-1-4.75-0.1875-0.8125 1.1875h-1.375l-1.1875-2.5938h-2.5938l-0.59375 0.59375-2.5625-0.1875-3.1875-2.375-2.1875-0.59375-0.78125-1.1875-4.1562-2.5938-4.75-0.125 0.0625 1.7812-1.375 0.375z" color="#000000"/><path id="departement60" d="m257.22 80.219-1.2812 1.5312-0.78125 1.9375h1.5625l-0.78125 1.9688-0.78125 3.9062 1.1562 1.9375v3.3438h1.9688l-0.78125 1.3438-1.375 2.5625-0.5625 1.75 1.75 1.5625 0.5625 4.5 1 1.5625-1.375 0.375-1.75-0.96875-0.3125 2.3125 0.125-0.15625 0.75 1.75 1.1875 1.9375 5.2812 0.40625 3.7188-0.40625 2.5312-1.9375 3.125 1.9375 1.5625 1.1875 2.3438-0.59375 2.125-0.96875 4.125 2.1562 4.2812 2.5312 1.375 1.375 2.3438-1.5625 1.9375 1.1562 1.1875 0.96875 1.75-0.1875 1.1875-1.5625 2.7188 1.5625 3.3438-1.375 1.9375 0.59375 1.9375-1.5625 1.1875-0.59375 0.375 0.28125 0.40625-2.6562-1.4062-1.5938-2.375-1.5938-1 1.5938-0.59375 0.1875-0.1875-2.9688 1.7812-0.40625-0.40625-2.75-2.375-0.40625 1.1875-2 3.375-0.78125 1.1875-4.75 1.7812-0.8125-2.375-1.7812 0.8125-1.7812 0.375-5.9375-0.8125-4.5938-4.125 0.40625-2.7812-0.375-5.1562 1.375-4.375 4.1562-3.5625-1.1875-3.5625-0.375-2.7812-2.7812-4.9688-1.4062-6.7188 0.59375-1.7812-1.375h-3.5938l-2.5625 1-1.1875-0.8125v-2.1562l-0.40625-0.59375z" color="#000000"/><path id="departement62" d="m269.25 8.6562-10.812 2.0625-8.5938 6.625v26.375l-0.0625 0.78125 3.0312 0.71875 0.96875 2.1562 2.3438-0.59375 1.375-1.75 1.75 0.59375 3.7188 2.9062 1.375-0.5625 0.96875 2.3438 3.5 1.5625v1.9375l2.5625 0.96875 2.5312-0.96875 4.875-0.59375 1.1875 1 2.3438-1 1.1562 1.9688-2.9062 1.9375v2.75l0.96875 0.96875 0.78125-0.1875 0.5625-1.5625 1.7812-1.1875 1.75 1.375 4.0938 1.375h1.75v-1.9688l2.5625 1.7812 0.1875 1.5625-1.1875 1.75 2.1562-1.1875 1.7812-0.78125 0.75 1.375v1.375l2.9375-1.5625h4.6875l0.1875 0.1875 1.1562-2.2188-0.59375-1-1.7812-0.375h-1.9688l-1.1875-0.40625 1.9688-1.1875 1.7812 0.1875 1.7812-0.1875 0.21875-3.1875 1.1875-0.78125 0.1875-1.7812-2.1875-1.4062-2.5625-0.1875-0.59375-0.40625 1.5938-1.1875 0.375-1.1875-1.375-0.96875-2-2.4062 0.21875-1.1875 2.5625-1.1875 0.40625-1.375-1.7812-0.8125-1-2.5625-3.5625-0.40625-3.5625-0.96875-0.40625-3.9688 2.5625-1.5938-0.96875-2h-2l-1.375 2.1875-6.1562-0.375-4.9688-1.2188-2.75-2.9688v-2.375l2.1562-1-1.7812-1.375-4.3438-0.1875-2.5938-6.5625z" color="#000000"/><path id="departement59" d="m285.78 4.0625-6.25 2.9375-9.75 1.5625-0.53125 0.09375 3.7188 5.9062 2.5938 6.5625 4.3438 0.1875 1.7812 1.375-2.1562 1v2.375l2.75 2.9688 4.9688 1.2188 6.1562 0.375 1.375-2.1875h2l0.96875 2-2.5625 1.5938 0.40625 3.9688 3.5625 0.96875 3.5625 0.40625 1 2.5625 1.7812 0.8125-0.40625 1.375-2.5625 1.1875-0.21875 1.1875 2 2.4062 1.375 0.96875-0.375 1.1875-1.5938 1.1875 0.59375 0.40625 2.5625 0.1875 2.1875 1.4062-0.1875 1.7812-1.1875 0.78125-0.21875 3.1875-1.7812 0.1875-1.7812-0.1875-1.9688 1.1875 1.1875 0.40625h1.9688l1.7812 0.375 0.59375 1-1.1562 2.2188 1.5625 1.5625 1.5625 0.40625 1.5625-1h2.1562l0.59375 1.1875 0.78125-0.1875 2.3438-1.375 2.3438 1.375 3.125-2.1562h1.375l1.5625 1.375 3.125-2.1562 1.3438 0.1875 1.1875 0.96875 4.3125 0.40625 0.375 1.75 2.1562-1.9375h1.1562l0.78125 2.5312 3.7188 0.96875 1.0625-0.71875h-0.3125l-0.1875-1.9375 3.9062-2.3438-0.59375-3.7188-3.7188-0.96875 0.96875-1v-2.7188l2.9375-2.1562-0.78125-1.5625-6.25-4.875-10.938 0.59375-1.1562 1.9375h-1.375l0.1875-6.8438-3.125-3.6875-2.3438 0.375-1.375-1.5625-3.9062 1.75-1.3438-1.3438-2.75-0.40625-0.78125-2.5312-0.1875-7.8125-1.75-0.78125-0.21875-1.1875h-1.1562l-0.40625-2.3438-2.5312 0.21875-4.875 1.5625-2.3438 2.9062h-2.3438l-1.5625-1.9375-0.59375-2.1562-1.9375-2.1562h-2.75l-1.1562-2.125v-3.3438l1.3438-2.125-0.78125-2.9375z" color="#000000"/><path id="departement02" d="m328.41 62.219-3.125 2.1562-1.5625-1.375h-1.375l-3.125 2.1562-2.3438-1.375-2.3438 1.375-0.78125 0.1875-0.59375-1.1875h-2.1562l-1.5625 1h-0.0625l0.46875 2.75-2.5625 2.7812v2.5625l-1.7812 2 0.40625 2.375 0.96875 3.9688 1.1875 6.75-0.375 5.9375-0.8125 1.7812 2.375 1.7812-1.7812 0.8125-1.1875 4.75-3.375 0.78125-1.1875 2 2.375 0.40625 0.40625 2.75-1.7812 0.40625 0.1875 2.9688 0.59375-0.1875 1-1.5938 2.375 1.5938 1.4062 1.5938-0.40625 2.6562 1.7812 1.2812 0.59375 4.3125 5.25 5.0625 1.75 0.59375 1 2.3438 3.2812 0.6875 0.40625-0.5 1-2.125 2.9375-1.375 1.5625-4.0938 1.75-1.1875-1-1.375h-2.5312l-0.375-1.3438 1.75-0.78125 0.78125-1.1875-1.75-1.1562 0.5625-1.7812 4.5-0.375-0.78125-1.75-2.7188-1.7812v-5.25l3.6875-2.75h4.125l-0.40625-1.9375 2.3438-1 3.3125 2.1562 1.375-0.375-0.1875-6.6562 0.59375-2.3438 0.78125-2.7188-2.5625-1.375 0.59375-1.5625 3.7188-0.78125v-2.5312l2.9375-1.5625 0.78125-2.3438-0.96875-1.5625 0.1875-2.9375 1.75-1.5625-1.75-3.3125 0.53125-3.4688h-3.9688l-1.0625 0.71875-3.7188-0.96875-0.78125-2.5312h-1.1562l-2.1562 1.9375-0.375-1.75-4.3125-0.40625-1.1875-0.96875z" color="#000000"/><path id="departement80" d="m249.78 44.5-0.53125 6.4375 4.3125 3.9062v1.9688l-5.2812-3.125-6.3438 7.8125 1.6875 0.71875 2.1562-0.1875 0.96875 1.9375 8.5938 8.4062 0.59375 3.5 1.9375 3.5312-0.65625 0.8125h2.4688l0.40625 0.59375v2.1562l1.1875 0.8125 2.5625-1h3.5938l1.7812 1.375 6.7188-0.59375 4.9688 1.4062 2.7812 2.7812 3.5625 0.375 3.5625 1.1875 4.375-4.1562 5.1562-1.375 2.7812 0.375 4.125-0.40625-0.375-2.1562-0.96875-3.9688-0.40625-2.375 1.7812-2v-2.5625l2.5625-2.7812-0.46875-2.75-1.5-0.40625-1.75-1.75h-4.6875l-2.9375 1.5625v-1.375l-0.75-1.375-1.7812 0.78125-2.1562 1.1875 1.1875-1.75-0.1875-1.5625-2.5625-1.7812v1.9688h-1.75l-4.0938-1.375-1.75-1.375-1.7812 1.1875-0.5625 1.5625-0.78125 0.1875-0.96875-0.96875v-2.75l2.9062-1.9375-1.1562-1.9688-2.3438 1-1.1875-1-4.875 0.59375-2.5312 0.96875-2.5625-0.96875v-1.9375l-3.5-1.5625-0.96875-2.3438-1.375 0.5625-3.7188-2.9062-1.75-0.59375-1.375 1.75-2.3438 0.59375-0.96875-2.1562z" color="#000000"/><path id="departement08" d="m367.62 55.844-1.9688 2.9062-1.75 1.7812v4.0938l-2.3438 1.5625-4.2812 1.375-2.3438 0.96875-2.75-2.1562h-3.7188l-0.53125 3.4688 1.75 3.3125-1.75 1.5625-0.1875 2.9375 0.96875 1.5625-0.78125 2.3438-2.9375 1.5625v2.5312l-3.7188 0.78125-0.59375 1.5625 2.5625 1.375-0.78125 2.7188-0.59375 2.3438 0.125 4.875 4.75 0.125 4.1562 2.5938 0.78125 1.1875 2.1875 0.59375 3.1875 2.375 2.5625 0.1875 0.59375-0.59375h2.5938l1.1875 2.5938h1.375l0.8125-1.1875 4.75 0.1875 0.78125 1h0.59375l2-2 1.7812 1.5938s0.24086-0.0252 0.28125-0.0312l-0.125-0.8125 2.3438-1.1562 1.1562-1.1875-0.75-1.9375-0.21875-1.375 2.1562-1.75 0.78125-3.9062-2.3438-2.9375 0.78125-1.375 1.9688-3.6875 0.5625 0.78125h2.9375l1.375 1.3438 1.75-1.1562 1.375-2.25-1.4062-0.21875-0.78125-3.9062-1.5625-1.1875-5.4688-0.59375-0.96875-2.5312-1.7812-1.1562-6.25-0.78125-0.375-4.5 0.78125-0.78125v-1.75l-3.125-1.9688 0.59375-2.1562 0.78125-1.9375-1.375-1.1875 2.1562-1.9375v-3.5312l-0.78125-0.5625z" color="#000000"/><path id="departement10" d="m349.31 138.69-3.9688 2.1875-3.375 2.375h-3.3438l-5.5625 3.7812-4.75 0.78125-3.375-3.5625-0.84375 0.1875v0.59375l-2.7188 1.1562-0.1875 2.3438-1.375 1.7812-0.78125 3.9062-0.4375 3.2812 1.2188 1h2.3438l5.0625 5.2812-0.59375 5.2812 3.5312 2.7188 1.9688-1.375 3.125 3.7188 0.375 3.5312 2.1562 2.9062 0.96875 2.1562 7.8125 0.40625 3.9062-1.9688 1.1562 2.1562 1.375 0.1875 1-2.1562 6.4375-0.1875 2.5312-1.375 0.40625-2.5312h5.6562l0.78125 0.4375-0.65625-2.5-1.5938-1 2.1875-1.9688 3.375-0.21875 1.1875-1.7812-0.21875-7.125-0.78125-4.1562-3.375-1.1875-3.5625-4.9688 0.1875-2.9688 1.0312-2.1562-1.8125-0.625-5.5625 1.1875h-3.9688l-3.5625-5.3438-0.40625-3.9688z" color="#000000"/><path id="departement52" d="m379.09 139.72-4.5938 0.78125l-0.59375 4.9375-4.1562 2.9688-2.1562-0.75-1.0312 2.1562-0.1875 2.9688 3.5625 4.9688 3.375 1.1875 0.78125 4.1562 0.21875 7.125-1.1875 1.7812-3.375 0.21875-2.1875 1.9688 1.5938 1 0.65625 2.5 2.3438 1.3125 3.5 3.7188 4.5 6.0625-2.5312 2.7188 1.75 1.1875 0.1875 3.3125 3.125-0.1875 0.78125 1.5625 2.3438 0.1875 1.75-0.96875 3.125 3.9062 0.40625 0.96875 4.2812-0.96875 0.8125-1.9688 0.1875 0.0312v-1.9688l2.7188-1.1875 3.125 1.1875 2.9375-1.1875h1.75l0.59375-3.9062 0.96875-1.1562-1.75-0.1875-0.1875-2.3438 2.7188-0.59375 0.1875-1.5625h2.75v-2.5312l2.1562-0.78125-0.59375-1.5625 0.59375-0.375-1.7812-1.4062-2.125 0.78125v-4.0938l-5.4688-2.7188 1.1562-5.2812 1.75-1.1875-0.5625-1.75-2.5625-0.375-0.5625-2.5625h-2.3438l-2.75-3.6875-3.125-0.21875-1.3438-1.9375 1.75-1.75-4.125-4.5-1.75-0.59375-4.6875-2.3438-2.5312-2.7188-4.0938-0.59375z" color="#000000"/><path id="departement67" d="m480.72 112.28-3.7188 1.0312l-1.7188 3v2.9375l-1.5625 1.375h-1.375l-2.5312-1.7812-1.9688 1.375h-2.3438l-1.9375-1.9375-3.7188-0.59375-2.1562-0.96875-0.78125-2.9375-1.75 1.9375-0.96875 4.5-2.5625 0.78125v2.5312l2.5625 1.1875 1.9375 1.375-0.78125 1.75 1.7812 1.1562 3.125-2.3438 5.4375 3.125-2.3125 4.3125 0.1875 1.375 1.5625 1.5625-1.1875 4.0938-3.9062 3.9062-2.1562-0.1875 1.375 1.3438-0.78125 3.5312 0.78125 5.2812 3.7188 0.96875-0.3125 0.71875 2.9375-0.15625 1.7188 2.0938 1.5312 1.9062 3.8438-0.1875 1.7188 4.9688 3 1.3125-0.0312-0.625 5.0938-9.9688-0.59375-5.6562 2.3438-7.625 0.59375-6.6562 5.0625-3.6875v-2.3438l1.9688-2.5625h1.5625l1.75-1.75-0.375-3.3125 1.75-4.6875 2.7188-0.59375-2.7188-2.1562-4.875-0.5625-4.3125-2.1562-2.9375 1.75-1.5625-1.75z" color="#000000"/><path id="departement54" d="m401.59 88.438-2.3438 2.1562-3.3125 0.1875-1.1562 1.1875h-0.25l-0.125 2.3438 1.1562 1.9062-0.40625 1.1562-0.375 1.3438 0.1875 0.75 0.96875-0.75 0.9375-1.7188 1.9375-0.1875 3.25-0.96875 1.7188 1.3438 0.75 1.5312 0.59375 1.7188v1.7188l0.9375 0.78125v1.3125l-0.9375 1.1562-0.1875 2.5 0.75 1.1562 0.1875 1.5312 0.1875 2.4688 1.1562 0.96875 1.7188 0.75-0.75 1.5312 2.0938 1.9375-1.9062 2.0938 0.375 1.3438 1.9062 0.9375v0.96875h-2.2812l-0.96875 1.3438 0.1875 0.96875 1.5312 1.5312-1.3125 3.625-1.5312 3.4375 0.75 2.125v3.4375l0.78125 1.7188h1.125l0.59375 0.96875h-1.7188l-1.5312 0.75v1.1562l1.9062 1.7188v2.6875l1.9062-0.59375 2.875 0.1875 0.1875 3.0625 1.1562 0.40625-1.3438 0.9375-0.1875 0.96875 2.0938 0.375 1.3438 1.7188 6.3125-0.375 1.3438-2.5h2.875l1.1562-0.9375 1.9062 1.1562 1.7188-0.59375 2.5 0.1875 2.0938-0.75 2.0938-1.5312 1.1562 1.1562 0.1875-2.6875 1.5312-0.59375 0.78125 2.5 2.2812 0.1875 2.3125 0.59375 0.9375 0.1875 3.2812-1.5312 1.7188-1.1562 1.5312-1.9062 3.0625-1.1562 2-0.4375-1.125-1.0938 2.1562 0.1875 0.40625-0.40625-2.3125-0.75-3.25-2.2812-2.875-2.125h-3.4375l-3.625-2.0938-2.875-0.1875v-0.78125l-4.4062-2.6562-4.9688-2.125h-2.5l-0.9375-2.6562-3.8438-4.8125h-3.8125l-1.5312-2.0938h-3.0625l0.1875-3.0625-4.0312-2.5 0.1875-2.4688h2.125v-2.125l0.75-1.5312-1.7188-1.7188 1.5312-2.6562-1.1562-3.0625-0.9375-0.78125-2.5-5.3438 0.96875-1.5312s-0.0791-1.2572-0.15625-2.9375h-2.625l-3.5312-3.9062z" color="#000000"/><path id="departement77" d="m307.5 116.5-1.1875 0.59375-1.9375 1.5625-1.9375-0.59375-3.3438 1.375-2.7188-1.5625-1.1875 1.5625-1.75 0.1875-1.1875-0.96875-1.9375-1.1562-2.3438 1.5625-0.0937-0.0937-0.84375 5.4062 1.1562 6.875v4.5938l-1.5312 3.8438 0.375 2.6562-1.7188 1.3438 0.9375 5.1875-0.75 1.125-0.5625 5.1875 1.3125 1.7188-4.375 2.875v3.9375l1.2188 1.8125 2.3438 1.1875 0.1875 3.3125-3.125 2.1562 1.75 1.5625 2.1562-1.375 5.2812 0.1875 1.9375-0.375 0.59375-1.5625 2.1562 0.1875 0.375 1.5625 4.875-2.75 1.7812-2.125 2.3438-2.75-1.5625-1.75 1.375-2.9375 3.5-1.75 7.625 0.375 1.75-1.3438 0.15625 0.15625 0.4375-3.2812 0.78125-3.9062 1.375-1.7812 0.1875-2.3438 2.7188-1.1562v-1.5625l-2.9062 0.1875-0.59375-1.375 0.96875-1.75-0.78125-2.9375-1.5625-0.96875 0.40625-2.7188 1.5625-1-0.21875-1.1562 0.5625-0.6875-3.2812-0.6875-1-2.3438-1.75-0.59375-5.25-5.0625-0.59375-4.3125z" color="#000000"/><path id="departement68" d="m465.59 156.53-2.9375 0.15625-1.8438 4.1562-2.3438 4.6875 0.59375 2.9375-1.9375 4.5-3.3438 2.9062-0.1875 7.625-2.4375 2.0938 0.0937 0.0625 0.78125 1.5625 3.125 0.1875 3.5312 2.75 0.5625 1.3438-0.1875 2.3438-0.96875 1.7812 0.375 2.3438 2.75-0.40625 0.59375 2.1562 0.96875 4.1562 2.3125-0.375-0.40625 2.125 1.375 1.1875 7.2188-0.1875 3.7188-2.9375 0.1875-4.3125 1.9688-2.5312-2.5625-2.9375-1.3438-3.125 1.5625-2.125v-4.9062l0.96875-2.3438v-3.9062l1.75-2.5312-1.9375-2.7188-0.1875-5.625-3-1.3125-1.7188-4.9688-3.8438 0.1875-1.5312-1.9062z" color="#000000"/><path id="departement55" d="m390.12 86.531-1.375 2.25-1.75 1.1562-1.375-1.3438h-2.9375l-0.5625-0.78125-1.9688 3.6875-0.78125 1.375 2.3438 2.9375-0.78125 3.9062-2.1562 1.75 0.21875 1.375 0.75 1.9375-1.1562 1.1875-2.3438 1.1562 0.375 2.1562 1 0.1875-1.75 1.5625 1.3438 2.9375 1.375 4.3125-1.75 1.9375 3.125-0.1875-1.5625 4.875-2.1562 0.96875-1.1875 2.9375 1.1875 0.96875-1.375 2.3438 0.40625 1.5625 3.7188 2.9375 0.1875 6.8438 4.0938 0.59375 2.5312 2.7188 4.6875 2.3438 1.75 0.59375 4.125 4.5-0.4375 0.4375 3.4375-0.4375v-1.7188l3.8438-0.78125v-1.3125h0.9375v1.125l3.0625-0.9375 1.1875-1.5938-0.21875 0.0625v-2.6875l-1.9062-1.7188v-1.1562l1.5312-0.75h1.7188l-0.59375-0.96875h-1.125l-0.78125-1.7188v-3.4375l-0.75-2.125 1.5312-3.4375 1.3125-3.625-1.5312-1.5312-0.1875-0.96875 0.96875-1.3438h2.2812v-0.96875l-1.9062-0.9375-0.375-1.3438 1.9062-2.0938-2.0938-1.9375 0.75-1.5312-1.7188-0.75-1.1562-0.96875-0.1875-2.4688-0.1875-1.5312-0.75-1.1562 0.1875-2.5 0.9375-1.1562v-1.3125l-0.9375-0.78125v-1.7188l-0.59375-1.7188-0.75-1.5312-1.7188-1.3438-3.25 0.96875-1.9375 0.1875-0.9375 1.7188-0.96875 0.75-0.1875-0.75 0.375-1.3438 0.40625-1.1562-1.1562-1.9062 0.125-2.3438h-0.9375l-0.78125-3.7188-1.5625-1.5625z" color="#000000"/></g><path id="departement57" d="m423.09 90.406-2.9375 0.1875-2.3438 1.9688-0.59375 0.96875h-3.3125l-1.1562-1.1875h-0.5c0.0771 1.6803 0.15625 2.9375 0.15625 2.9375l-0.96875 1.5312 2.5 5.3438 0.9375 0.78125 1.1562 3.0625-1.5312 2.6562 1.7188 1.7188-0.75 1.5312v2.125h-2.125l-0.1875 2.4688 4.0312 2.5-0.1875 3.0625h3.0625l1.5312 2.0938h3.8125l3.8438 4.8125 0.9375 2.6562h2.5l4.9688 2.125 4.4062 2.6562v0.78125l2.875 0.1875 3.625 2.0938h3.4375l2.875 2.125 3.25 2.2812 2.3125 0.75 3.5-3.5 1.1875-4.0938-1.5625-1.5625-0.1875-1.375 2.3125-4.3125-5.4375-3.125-3.125 2.3438-1.7812-1.1562 0.78125-1.75-1.9375-1.375-2.5625-1.1875v-2.5312l2.5625-0.78125 0.96875-4.5 1.75-1.9375 0.78125 2.9375 2.1562 0.96875 3.7188 0.59375 1.9375 1.9375h2.3438l1.9688-1.375 2.5312 1.7812h1.375l1.5625-1.375v-2.9375l1.7188-3-0.40625 0.125-1.3438-1.9375-3.9062-2.3438-1.375-2.1562-4.6875 0.40625-2.75 2.5312-6.625 0.1875-1.9688-1.375c-0.13199-0.23943-1.0931-1.9356-1.9375-2.4062-0.0327-0.0174-0.0865-0.0457-0.125-0.0625-0.0285-0.0117-0.0699-0.0243-0.0937-0.0312-0.0107-5e-3 -0.0512-0.0255-0.0625-0.0312-3e-3 1e-5 -0.0278-1.4e-4 -0.0312 0-0.025-1e-3 -0.0737 0-0.0937 0-0.91552 1e-5 -2.6881-1.0275-2.9062-1.1562l-2.75 1.1562-0.1875 2.3438-3.3125 0.40625-1.9688-3.7188-1.1562-0.40625v-2.7188l-2.75-1.1875-0.1875-4.6875-1.9688-1.9375-4.0938-1.9688h-1.9376l-0.59375 0.40625h-1.9688z" color="#000000" stroke-width="1.0003"/><g><path id="departement88" d="m459 145.94-2 0.4375-3.0625 1.1562-1.5312 1.9062-1.7188 1.1562-3.2812 1.5312-0.9375-0.1875-2.3125-0.59375-2.2812-0.1875-0.78125-2.5-1.5312 0.59375-0.1875 2.6875-1.1562-1.1562-2.0938 1.5312-2.0938 0.75-2.5-0.1875-1.7188 0.59375-1.9062-1.1562-1.1562 0.9375h-2.875l-1.3438 2.5-6.3125 0.375-1.3438-1.7188-2.0938-0.375 0.1875-0.96875 1.3438-0.9375-1.1562-0.40625-0.1875-3.0625-2.875-0.1875-1.6875 0.53125-1.1875 1.5938-3.0625 0.9375v-1.125h-0.9375v1.3125l-3.8438 0.78125v1.7188l-3.4375 0.4375-1.3125 1.3125 1.3438 1.9375 3.125 0.21875 2.75 3.6875h2.3438l0.5625 2.5625 2.5625 0.375 0.5625 1.75-1.75 1.1875-1.1562 5.2812 5.4688 2.7188v4.0938l2.125-0.78125 1.7812 1.4062 1.3438-0.8125-0.75-1.1562 0.96875-0.59375 1.3438 1.5625 1.9688-1.375 0.59375-1.9375 3.6875-0.59375 1 0.78125-0.1875 2.1562 2.5312 1.9375 1.5625-0.1875 1.75-1.375h4.0938l2.9375 3.3125h0.96875l1.5625-0.96875 0.21875-1.1562 1.5625-0.78125 1.75 1.1562 1.75 1.9688 6.1562 3.25 2.4375-2.0938 0.1875-7.625 3.3438-2.9062 1.9375-4.5-0.59375-2.9375 2.3438-4.6875 2.1562-4.875-3.7188-0.96875-0.78125-5.2812 0.78125-3.5312z" color="#000000"/><path id="departement91" d="m274.22 136.41-1.75 0.78125-1.9062 0.75-0.375 2.125-2.875 1.3438-0.375 2.0938 1.3438 2.3125-1.9375 2.6562h-2.8438l1.125 1.7188-1.3438 1.5312-0.46875 3.0938 0.9375 0.1875 0.375 2.5312 0.40625 0.59375 0.40625 5.25 6.25-0.5625 2.5312-2.3438 2.1562 1.75 5.25 0.375 0.75 1.125v-3.9375l4.375-2.875-1.3125-1.7188 0.5625-5.1875 0.75-1.125-0.9375-5.1875 1.7188-1.3438-0.34375-2.4375-2.1562-1h-3.625l-2.0938-1.1562-1.5312 0.78125z" color="#000000"/><path id="departement78" d="m251.5 118.16-0.0625 0.125-5.4688 1.5625-0.78125 0.96875 1 1.5625v1.5625l1.75 0.375-1 1 0.0937 0.875 0.125-0.0937 1.9375 1.9375 0.59375 2.3438 1.5625 1.5625-0.78125 2.1562v1.9375l1.375 1.5625-1.375 2.3438 1.375 3.3438 2.7188 1.9375 0.40625 2.1562 2.3438 0.375 0.5625 4.3125 1.7812 2.1562 3.1562 0.59375 0.46875-3.0938 1.3438-1.5312-1.125-1.7188h2.8438l1.9375-2.6562-1.3438-2.3125 0.375-2.0938 2.875-1.3438 0.375-2.125 1.9062-0.75 1.75-0.78125 0.34375 0.21875v-0.21875l-1.75-1.9688-1.0938-2.9688 1.75-3.8125-0.875-2.875-3.4062-2.0625-4.8125-0.21875-4.5-2.875-3.625 0.65625z" color="#000000"/><path id="departement95" d="m255.56 109.69-1.5625 1.9375l-1.1875 4.3125-1.3125 2.2188 4.75 2.125 3.625-0.65625 4.5 2.875 4.8125 0.21875 3.4062 2.0625 0.875 2.875-0.0312 0.0625 0.375-0.0625 3.5-1.875 5.25-0.34375 2.875-1.3125 1.8438-1.3125 0.59375-3.8438-1.2812-1.2812-4.2812-2.5312-4.125-2.1562-2.125 0.96875-2.3438 0.59375-1.5625-1.1875-3.125-1.9375-2.5312 1.9375-3.7188 0.40625-5.2812-0.40625-1.1875-1.9375z" color="#000000"/><path id="departement93" d="m287.28 122.81-1.8438 1.3125-2.875 1.3125-5.25 0.34375 0.15625 0.71875 0.4375 0.0937 0.40625 0.625-0.40625 0.875-0.53125 0.0937 0.375 0.90625 2.5312-0.0312 0.8125 1.25 0.15625 1.75 0.875-0.125 0.8125-0.65625 1.2188 0.0625 1.5312 0.875 0.875 0.96875 0.40625 0.1875 0.25 0.46875 0.96875 0.25v-2.8437l-1.1562-6.875z" color="#000000"/><path id="departement75" d="m280.28 129.06-2.5312 0.0312-1.125 0.5-0.46875 0.625-1.0312 0.0625-0.9375 1.0625 0.0312 0.59375 0.21875 0.6875 1.5625 0.4375 1.9062 0.96875 1.2188 0.0625 0.8125-0.21875 0.84375-0.59375 0.28125 0.25 1.8125 0.25 0.3125-0.65625v-0.65625l-0.3125-0.125-1.25 0.0625 0.0937 0.3125-0.21875 0.1875h-0.40625l0.15635-0.4062 0.0625-0.4375h-0.0625l-0.15625-1.75z" color="#000000"/><path id="departement92" d="m277.31 125.78-3.5 1.875-0.375 0.0625-1.7188 3.75 1.0938 2.9688 1.75 1.9688v0.21875l2.7188 1.9062 0.65625-0.34375-0.5-0.9375 0.5-1.4688-0.3125-0.53125 0.34375-1.2188h-0.0625l-1.9062-0.96875-1.5625-0.4375-0.21875-0.6875-0.0312-0.59375 0.9375-1.0625 1.0312-0.0625 0.46875-0.625 1.125-0.5-0.375-0.90625 0.53125-0.0937 0.40625-0.875-0.40625-0.625-0.4375-0.0937z" color="#000000"/><path id="departement94" d="m282.94 131.28-0.8125 0.65625-0.8125 0.125-0.0625 0.4375-0.15625 0.40625h0.40625l0.21875-0.1875-0.0937-0.3125 1.25-0.0625 0.3125 0.125v0.65625l-0.3125 0.65625-1.8125-0.25-0.28125-0.25-0.84375 0.59375-0.8125 0.21875-1.1562-0.0625-0.34375 1.2188 0.3125 0.53125-0.5 1.4688 0.5 0.9375 0.875-0.4375 2.0938 1.1562h3.625l2.1562 1-0.0312-0.21875 1.5312-3.8438v-1.75l-0.96875-0.25-0.25-0.46875-0.40625-0.1875-0.875-0.96875-1.5312-0.875z" color="#000000"/><path id="departement25" d="m447.41 199.72-0.1875 0.21875h-2.25l-1.1562 1.5938-1.4688 0.84375v1.9688l-3.6562 0.4375-1.9688-1.4062-2.6562 0.40625-2.5312 1.9688-1.8125 3.0938-1.8125 0.5625-0.84375 2.0938-2.25 0.40625-3.0938 2.5312-4.0625-0.125-1.25 0.96875h-1.125l-3.9375 3.2188-1.7812-0.0625-0.0312 1.1875 0.28125 2.0938 2.5312 1.6875 1.4062 1.8438-0.4375 1.9375-1.25 2.9688-0.84375 1.9375 5.4688 1.8438 3.5-0.28125 0.28125 2.9375v3.9375l4.3438 1.4062 1.9688 0.53125 2.8125 2.6875-0.28125 2.25-1.2812 1.8125-3.5 1.125 0.84375 1.9688 0.40625 1.5312-1.5312 1.5312 0.15625 1.4062 2.375 0.21875 0.0312-0.1875 12.094-11.344-0.375-9.375 4.2812-2.125 2.9375-1.375 2.7188-2.5312 0.21875-3.7188 2.7188-1.375 6.25-7.2188-0.96875-2.3438 2.1562-0.96875 2.5312-3.125-1.375-1.375-4.6875 0.96875-0.1875-0.78125 4.3125-4.9688z" color="#000000"/><path id="departement90" d="m451.44 186.03-1.8125 0.9375-1.5312 1.125v2.5l0.84375 2.9688v1.9375l-0.46875 3.125-1.0625 1.0938 12.031 5.4375 0.75-0.875 2.5938-0.40625-0.96875-4.1562-0.59375-2.1562-2.75 0.40625-0.375-2.3438 0.96875-1.7812 0.1875-2.3438-0.5625-1.3438-3.5312-2.75-3.125-0.1875z" color="#000000"/></g></g><g transform="translate(-7.7982)"><path id="departementlu" d="m418.43 62.806 5.8005 7.4578 7.4578 3.3146 0.27622 6.9053-3.3146 4.6956v4.9718l-3.0384 2.4859-2.5202-2.2317-2.9297 0.19529-2.3438 1.9531-0.58593 0.97658h-3.3203l-1.1719-1.1719h-3.125l-1.1285-1.6549 1.1048-7.1816v-4.4194l-6.3529-4.9718 2.4859-6.3529 4.6956-10.22 3.867-3.867 3.867 0.55243z" color="#000000" fill="#d9d9d9" fill-rule="evenodd" stroke="#fff" stroke-width="1.0003"/></g></svg>
