<?xml version="1.0" encoding="UTF-8"?>
<svg width="41.407mm" height="15.314mm" version="1.1" viewBox="0 0 41.407375 15.31438" xmlns="http://www.w3.org/2000/svg"><g transform="translate(-25.235 -287.36)"><g transform="matrix(.74853 0 0 .74853 -20.052 108.57)"><path d="m67.744 241.88c0.0016 6e-3 -0.06541 0.0837-0.16152 0.20313-0.09544 0.11859-0.22214 0.28163-0.33734 0.45676-0.11264 0.17124-0.2265 0.37209-0.28174 0.56399-0.0279 0.0969-0.04546 0.20688-0.02999 0.31791 0.01629 0.11692 0.06918 0.23116 0.17173 0.32053 0.0922 0.0785 0.20015 0.12354 0.31409 0.14012 0.11139 0.0162 0.22396 5e-3 0.33126-0.022 0.21167-0.0527 0.43375-0.17253 0.64968-0.32431 0.43469-0.30557 0.90581-0.78437 1.3161-1.3054 0.40962-0.52016 0.77503-1.1034 0.98422-1.6262 0.10411-0.26018 0.17749-0.52492 0.18756-0.7703 0.0051-0.12435-0.0057-0.25194-0.04265-0.37498-0.03752-0.12484-0.1018-0.24374-0.19988-0.34471-0.09959-0.10248-0.22024-0.17061-0.34822-0.21185-0.12611-0.0406-0.25945-0.0554-0.39187-0.0538-0.26193 3e-3 -0.55483 0.0704-0.8574 0.1752-0.60768 0.21058-1.3313 0.6-2.0741 1.0872-0.74583 0.48926-1.5249 1.0864-2.2441 1.7231-0.71827 0.63581-1.3843 1.3175-1.8994 1.9773-0.4316 0.55184-0.85038 1.1803-1.2128 1.8231-0.31004 0.5748-0.55503 1.1186-0.73351 1.6064-0.23343 0.63802-0.35466 1.1828-0.37797 1.6296-0.01371 0.26273 0.0061 0.49594 0.05868 0.69951 0.06055 0.23435 0.16418 0.42752 0.30583 0.57763 0.15994 0.169 0.33982 0.26298 0.51094 0.31052 0.20672 0.0574 0.40707 0.0493 0.57134 0.0219 0.48985-0.0815 0.94167-0.38418 1.1301-0.51665 0.28257-0.19861 0.68934-0.53223 1.076-0.94674 0.21673-0.23235 0.57224-0.64498 0.86138-1.1565a0.18102 0.18102 90 0 0 -0.31517 -0.17814c-0.26973 0.47722-0.60314 0.86542-0.81114 1.0865-0.39025 0.41485-0.73744 0.67353-1.035 0.84845-0.20155 0.11846-0.59732 0.32521-0.96836 0.34519-0.11874 6e-3 -0.23289-7e-3 -0.33226-0.0489-0.07825-0.0332-0.15346-0.0866-0.22039-0.17567-0.05225-0.0705-0.09699-0.16964-0.12031-0.31254-0.02072-0.12692-0.02465-0.28964 3.73e-4 -0.49588 0.0428-0.3528 0.16882-0.81713 0.41267-1.3954 0.18533-0.43947 0.43596-0.93724 0.7511-1.4667 0.34458-0.60598 0.7384-1.1995 1.1391-1.7198 0.4705-0.60984 1.0918-1.2587 1.777-1.878 0.6843-0.61853 1.4248-1.2008 2.1292-1.679 0.70787-0.48051 1.3641-0.84547 1.8825-1.0415 0.26063-0.0985 0.4661-0.14655 0.61664-0.15534 0.07369-4e-3 0.12457 1e-3 0.15819 9e-3 0.03047 7e-3 0.04731 0.0161 0.05399 0.0205 0.01092 8e-3 0.02397 0.0211 0.03577 0.0505 0.0123 0.0307 0.02232 0.0776 0.02318 0.14461 0.0018 0.13705-0.03495 0.32313-0.11624 0.54975-0.16183 0.4511-0.47342 0.98998-0.84717 1.4929-0.37355 0.50269-0.79352 0.94849-1.1603 1.2248-0.18493 0.13929-0.34077 0.22367-0.46037 0.25955-0.0582 0.0175-0.0995 0.0209-0.12698 0.0191-0.02468-2e-3 -0.04134-7e-3 -0.05495-0.0167-0.0019-2.8e-4 -0.0058 9e-3 -0.01118-6e-3 -0.0061-0.0178-0.0079-0.0558 0.0055-0.11554 0.02723-0.1214 0.10359-0.2766 0.20515-0.4373 0.09946-0.15736 0.21405-0.30616 0.30556-0.41536 0.09104-0.10864 0.15748-0.17593 0.15908-0.16981a0.23894 0.23894 90 0 0 -0.35149 -0.32376z"/><path d="m72.652 245.27c-0.27945-0.0459-0.59616-0.0288-0.92856 0.0324-0.33362 0.0614-0.69115 0.1688-1.0564 0.31008-0.73033 0.28249-1.5041 0.70539-2.2008 1.1887-0.69634 0.48305-1.3235 1.0318-1.7566 1.5703-0.2166 0.26927-0.38826 0.54036-0.49451 0.80331-0.10618 0.26276-0.15048 0.52612-0.0992 0.77388 0.03068 0.14918 0.08986 0.27591 0.18517 0.36961 0.09668 0.095 0.21783 0.1436 0.34876 0.15761 0.10291 0.011 0.21233 9.2e-4 0.32425-0.0234 0.02827-6e-3 0.05689-0.0132 0.08584-0.021 0.14372-0.0391 0.29879-0.0995 0.46128-0.17607 0.32511-0.15314 0.69224-0.37644 1.0755-0.64108 0.38413-0.26524 0.78778-0.57431 1.1858-0.90057 0.62732-0.51422 1.2425-1.0727 1.7471-1.5722 0.13517-0.13378 0.26314-0.26253 0.3822-0.38407 0.28139-0.28725 0.51356-0.53474 0.67415-0.71401 0.08012-0.0894 0.14363-0.16324 0.18778-0.21823 0.02153-0.0268 0.04133-0.0527 0.05746-0.0765 0.0068-0.01 0.01972-0.0295 0.03141-0.0529 0.0047-9e-3 0.01847-0.0374 0.02684-0.0748 0.0042-0.0187 0.01086-0.0561 0.0053-0.10275-3e-3 -0.0247-0.0098-0.0556-0.02489-0.0888-0.01551-0.034-0.03873-0.068-0.07105-0.0973-0.03144-0.0286-0.06606-0.0478-0.09936-0.0598-0.0325-0.0117-0.06217-0.016-0.08563-0.0172-0.04455-2e-3 -0.07943 6e-3 -0.09724 0.0111-0.03559 0.0102-0.06075 0.0247-0.06939 0.0298-0.02114 0.0125-0.03655 0.0251-0.04353 0.0309-0.01626 0.0136-0.03369 0.0303-0.04847 0.0448-0.03089 0.0303-0.07464 0.0753-0.12397 0.1269-0.10062 0.10527-0.24201 0.2567-0.40741 0.43839-0.33156 0.36423-0.76712 0.85829-1.189 1.3748-0.42087 0.51534-0.8328 1.0587-1.1143 1.521-0.13922 0.22862-0.25176 0.44581-0.31598 0.63501-4.47e-4 1e-3 -8.91e-4 3e-3 -0.0013 4e-3 -0.03205 0.0952-0.05429 0.19097-0.05813 0.28221-0.0038 0.0912 0.01028 0.19033 0.06449 0.27856 0.05618 0.0915 0.13107 0.16309 0.22168 0.21292 0.08944 0.0492 0.18779 0.0737 0.28825 0.0814 0.19688 0.015 0.41989-0.0337 0.64958-0.1155 0.23272-0.0828 0.48857-0.20553 0.75656-0.354 0.26862-0.14881 0.55316-0.32559 0.84371-0.51852 0.58091-0.38572 1.1915-0.83975 1.7546-1.2717 0.32494-0.24925 0.63507-0.49192 0.91482-0.71016 0.20554-0.16035 0.39449-0.30739 0.56172-0.43491 0.62516-0.47621 1.468-1.0649 2.1379-1.5617 0.33311-0.24707 0.6285-0.47518 0.83166-0.65608 0.10007-0.0891 0.1873-0.17501 0.24512-0.25143 0.02805-0.0371 0.05931-0.0849 0.07667-0.13935 0.0091-0.0285 0.01672-0.066 0.0133-0.10883-0.0036-0.0453-0.01945-0.0925-0.05158-0.13402-0.03587-0.0468-0.08357-0.0902-0.14591-0.11757-0.06406-0.0281-0.13105-0.0336-0.19418-0.0224-0.06058 0.0108-0.11348 0.036-0.15726 0.0642-0.04407 0.0284-0.0844 0.0634-0.12094 0.10066-0.07264 0.074-0.14211 0.1692-0.20737 0.27434-0.06593 0.10622-0.13104 0.22832-0.19373 0.36-0.12533 0.26325-0.24442 0.5721-0.34331 0.88348-0.09881 0.31113-0.17899 0.62964-0.22463 0.91229-0.01819 0.11194-0.07644 0.27652-0.1789 0.48887-0.10065 0.20861-0.23703 0.44937-0.39977 0.70967-0.12324 0.19711-0.26076 0.4041-0.40792 0.61512-0.24075 0.34522-0.50631 0.70011-0.77582 1.0387-0.43516 0.54676-0.87674 1.0462-1.2376 1.3928-0.18152 0.17436-0.33552 0.30313-0.45396 0.3808-0.05994 0.0393-0.10126 0.0592-0.12719 0.0684-0.01194 4e-3 -0.01585 4e-3 -0.01193 5e-3 0.0042 3.9e-4 0.01878 1e-3 0.03735 0.0106-0.07213-0.031-0.09978-0.0633-0.11156-0.0845-0.0069-0.0124-0.01236-0.0278-0.0147-0.0487-0.0024-0.0213-0.0015-0.0483 0.0049-0.0817 0.01309-0.0681 0.04699-0.15207 0.10381-0.24905 0.05622-0.096 0.13103-0.19815 0.2194-0.30227 0.17692-0.20846 0.40016-0.41527 0.6159-0.58507 0.10757-0.0847 0.21195-0.15908 0.30632-0.2193 0.09528-0.0608 0.1765-0.10463 0.23872-0.13074 0.03473-0.014 0.0756-0.0317 0.12147-0.0523 0.04291-0.0193 0.091-0.0417 0.14369-0.0668 0.1092-0.0519 0.23949-0.11613 0.3872-0.19057 0.29545-0.1489 0.66264-0.33985 1.0742-0.55819 0.82329-0.43673 1.8266-0.98425 2.7939-1.527 0.49636-0.27848 0.98361-0.55588 1.4324-0.8165 0.39718-0.23065 0.79873-0.46829 1.1498-0.68513 0.32425-0.20027 0.61413-0.38812 0.81317-0.5351 0.09286-0.0686 0.17417-0.1342 0.22944-0.19128 0.02613-0.027 0.05572-0.0614 0.07566-0.10085 0.01018-0.0202 0.02158-0.0488 0.02478-0.0838 0.0034-0.037-0.0026-0.0814-0.02825-0.12368-0.04612-0.0783-0.10148-0.14691-0.16879-0.19987-0.06708-0.0528-0.14369-0.0881-0.22819-0.10213-0.08243-0.0137-0.16466-6e-3 -0.24341 0.0162-0.07717 0.0217-0.15194 0.0576-0.22336 0.10216-0.14018 0.0875-0.27897 0.2161-0.41291 0.3673-0.13386 0.1511-0.2671 0.32965-0.39595 0.52273-0.2608 0.39078-0.50609 0.84475-0.70431 1.2609-0.10276 0.21573-0.19332 0.42219-0.26843 0.60802-0.0782 0.19347-0.14063 0.36698-0.18422 0.5107-0.08704 0.28272-0.26966 0.59446-0.47179 0.88191-0.1156 0.16439-0.23685 0.31993-0.34927 0.45756-0.13463 0.16817-0.27432 0.32896-0.41051 0.47705-0.28373 0.3085-0.5566 0.5668-0.76676 0.74839-0.1158 0.10006-0.21335 0.17761-0.28978 0.23333-0.0402 0.0293-0.07241 0.051-0.09777 0.0669-0.02552 0.016-0.04293 0.0243-0.04 0.0247 0.0012-4e-5 0.0053-1e-3 0.01562-3e-3 0.0073-1e-3 0.0304-5e-3 0.06079-3e-3 0.01623 1e-3 0.04013 5e-3 0.0676 0.0145 0.02825 0.0101 0.06302 0.0281 0.09527 0.0596 0.03347 0.0326 0.05644 0.0723 0.06876 0.11366 0.01182 0.0397 0.0121 0.0748 0.0096 0.0998-0.0047 0.0466-0.02097 0.0783-0.02636 0.0883-0.0073 0.0135-0.01337 0.0211-0.01545 0.0234-0.01624 0.0186 0.0083-0.0121 0.0042-7e-3 0.01513-0.018 0.04504-0.0478 0.08616-0.0854 0.04244-0.0388 0.09504-0.0844 0.15515-0.13465 0.27078-0.22652 0.67413-0.53307 1.0581-0.81334 0.48997-0.35763 0.95537-0.67852 1.3278-0.92235 0.23199-0.15188 0.42875-0.27454 0.59185-0.37083 0.19762-0.11667 0.34163-0.19216 0.44427-0.2385 0.53692-0.2408 0.83152-0.34464 0.9489-0.3835 0.18322-0.0607 0.4633-0.11905 0.44507-0.11672a0.16649 0.16649 90 0 0 -0.04229 -0.33028c-0.01823 2e-3 -0.30803 0.0663-0.50299 0.12237-0.09078 0.0261-0.4739 0.13259-1.0032 0.33905-0.12592 0.0494-0.28866 0.1276-0.4976 0.24227-0.17374 0.0954-0.37978 0.21616-0.62026 0.3652-0.38838 0.24069-0.86212 0.55257-1.3684 0.90484-0.39552 0.27521-0.81057 0.57538-1.1029 0.80296-0.06489 0.0505-0.12452 0.0981-0.17521 0.14023-0.04742 0.0394-0.09241 0.0785-0.12657 0.11213-0.01625 0.016-0.03564 0.0362-0.05279 0.0585-0.0085 0.0111-0.01997 0.0272-0.03069 0.0473-0.0089 0.0168-0.02727 0.0546-0.0324 0.10598-0.0027 0.0275-0.0023 0.0647 0.01009 0.10628 0.01289 0.0433 0.03682 0.0845 0.07167 0.11847 0.03362 0.0328 0.07016 0.0518 0.1006 0.0627 0.02965 0.0106 0.05614 0.0145 0.07539 0.016 0.03657 3e-3 0.06703-2e-3 0.08391-5e-3 0.01878-3e-3 0.0356-8e-3 0.04898-0.0122 0.04789-0.0146 0.09557-0.0366 0.13991-0.06 0.04442-0.0235 0.09249-0.0524 0.14366-0.0859 0.09759-0.0638 0.21276-0.14846 0.34178-0.2523 0.23506-0.18918 0.5318-0.4551 0.84042-0.77389 0.14836-0.15325 0.30167-0.32107 0.4509-0.49834 0.1217-0.14728 0.25267-0.31771 0.37757-0.50212 0.21159-0.31241 0.42748-0.69688 0.5243-1.0797 0.03001-0.12346 0.078-0.28196 0.14347-0.46785 0.06252-0.17751 0.13992-0.37699 0.22952-0.58755 0.1735-0.40772 0.38936-0.84876 0.61712-1.2268 0.11237-0.18651 0.22526-0.35366 0.33493-0.49216 0.11151-0.14082 0.2135-0.24413 0.30301-0.31012 0.04471-0.033 0.08285-0.054 0.11452-0.0667 0.03122-0.0125 0.0553-0.0164 0.07336-0.0163 0.018 1.3e-4 0.03789 4e-3 0.06169 0.0191 0.02525 0.0157 0.05567 0.0441 0.0884 0.0923-0.01934-0.0322-0.02287-0.0648-0.02049-0.0884 0.0022-0.0216 0.0089-0.0346 0.01109-0.0381 0.0057-9e-3 7.08e-4 3e-3 -0.01349 0.0204-0.03116 0.0374-0.09153 0.0926-0.17818 0.16145-0.18164 0.14426-0.45737 0.33211-0.77701 0.53669-0.344 0.22017-0.7398 0.46039-1.134 0.69314-0.4451 0.26277-0.92999 0.54055-1.4253 0.81831-0.96532 0.54135-1.9693 1.0821-2.7936 1.5108-0.4122 0.21435-0.7791 0.40046-1.0735 0.54447-0.14722 0.072-0.27593 0.1333-0.38284 0.18222-0.05157 0.0236-0.09782 0.0442-0.13849 0.0617-0.04373 0.0188-0.08036 0.0337-0.10961 0.0446-0.08797 0.0325-0.18918 0.0837-0.29567 0.14683-0.10726 0.0635-0.22332 0.14115-0.34124 0.22831-0.23513 0.17379-0.483 0.38949-0.68613 0.61349-0.10164 0.11209-0.19427 0.22866-0.26878 0.34529-0.07384 0.11559-0.13437 0.23817-0.16495 0.36179-0.01546 0.0625-0.02387 0.12769-0.02118 0.19383 0.0027 0.0666 0.01666 0.13362 0.04522 0.19818 0.05854 0.1323 0.16734 0.23075 0.30796 0.29785 0.05114 0.0241 0.10329 0.032 0.15001 0.0314 0.04614-5.1e-4 0.09012-9e-3 0.12972-0.0208 0.07802-0.0231 0.15766-0.0638 0.23481-0.11188 0.15532-0.0967 0.33528-0.24512 0.52709-0.42491 0.38552-0.36136 0.84514-0.8746 1.2905-1.4288 0.27692-0.34457 0.5497-0.70667 0.79717-1.0604 0.15129-0.21624 0.29348-0.42974 0.4216-0.63448 0.16853-0.26932 0.31414-0.52576 0.42425-0.75487 0.10835-0.22545 0.18948-0.43883 0.21758-0.61847 0.0397-0.25547 0.11143-0.55222 0.20244-0.84861 0.09094-0.29617 0.19956-0.58695 0.31126-0.83074 0.05583-0.12186 0.11153-0.23 0.16517-0.32033 0.05437-0.0915 0.10308-0.15877 0.14397-0.20318 0.02027-0.022 0.0353-0.0348 0.04518-0.0421 0.0099-7e-3 0.0096-5e-3 -0.0011-4e-3 -0.01305 2e-3 -0.032 7.3e-4 -0.05063-8e-3 -0.016-8e-3 -0.0215-0.0166-0.01767-0.0127-0.02192-0.0285-0.03199-0.0603-0.03407-0.088-0.0019-0.0253 0.0031-0.0429 0.0054-0.0494 0.0053-0.0152 0.0029-3e-3 -0.01099 0.0173-0.03047 0.0436-0.09187 0.10983-0.1854 0.19626-0.18477 0.17071-0.46457 0.39315-0.79449 0.64312-0.65692 0.49773-1.4962 1.0922-2.1293 1.5793-0.16843 0.12945-0.35845 0.27817-0.56348 0.43875-0.27978 0.21913-0.58819 0.46082-0.91159 0.70875-0.56098 0.43006-1.1644 0.87683-1.736 1.2532-0.2857 0.18812-0.56209 0.35775-0.8201 0.49849-0.25861 0.14107-0.49522 0.25116-0.70166 0.32203-0.20941 0.0719-0.37265 0.0981-0.48961 0.0865-0.05656-6e-3 -0.09707-0.0195-0.12626-0.0369-0.028-0.0167-0.05123-0.0399-0.07052-0.0738 0.0017 8.8e-4 -0.0043-0.011-0.0012-0.0485 0.0032-0.0393 0.01547-0.0942 0.04208-0.1668 3.53e-4 -9.6e-4 7.08e-4 -2e-3 0.0011-3e-3 0.05356-0.14508 0.15275-0.32898 0.29093-0.54263 0.27707-0.42839 0.68806-0.94177 1.1188-1.4381 0.42956-0.49502 0.87384-0.96753 1.2135-1.3126 0.16973-0.17241 0.31294-0.31259 0.41368-0.40647 0.05026-0.0468 0.08972-0.0819 0.1139-0.10136 0.01019-8e-3 0.02139-0.0163 0.01759-0.0121-4.17e-4 4.7e-4 -0.0071 7e-3 -0.02493 0.0179-0.0064 4e-3 -0.02963 0.0175-0.06385 0.0272-0.01711 5e-3 -0.05138 0.0131-0.09543 0.0108-0.02321-1e-3 -0.05266-5e-3 -0.08496-0.0171-0.0331-0.0119-0.06756-0.031-0.0989-0.0595-0.03204-0.0291-0.05507-0.0628-0.07044-0.0965-0.01497-0.0328-0.02169-0.0634-0.02461-0.0877-0.0055-0.0459 0.0011-0.0822 5e-3 -0.0998 0.0078-0.035 0.02033-0.0599 0.02306-0.0654 0.0102-0.0207 0.01185-0.0216 0.01105-0.0211-0.0016 1e-3 -0.0144 0.0169-0.0326 0.0379-0.03793 0.0437-0.0955 0.108-0.17476 0.19408-0.1567 0.1702-0.38452 0.41088-0.66163 0.69437-0.11703 0.11972-0.24266 0.24689-0.37518 0.37935-0.49508 0.49489-1.0735 1.0723-1.6578 1.613-0.37072 0.34309-0.74287 0.67054-1.0966 0.95212-0.3542 0.28195-0.68693 0.51545-0.97837 0.67219-0.14545 0.0782-0.27788 0.13582-0.39494 0.17086-0.02333 7e-3 -0.04592 0.013-0.06776 0.0181-0.08786 0.0206-0.16062 0.0264-0.21923 0.0206-0.07119-7e-3 -0.11978-0.0306-0.15516-0.066-0.03668-0.0367-0.07167-0.0987-0.0916-0.20367-0.03084-0.16454 1.12e-4 -0.35776 0.0962-0.57671 0.09604-0.21885 0.25358-0.45502 0.46285-0.69977 0.41864-0.48961 1.0293-0.99616 1.7142-1.4469 0.68441-0.45045 1.4346-0.83977 2.1284-1.0992 0.34677-0.12965 0.67609-0.22561 0.97404-0.28135 0.29924-0.056 0.55826-0.0698 0.76918-0.0419a0.23709 0.23709 90 0 0 0.07062 -0.46888z"/><path d="m86.224 244.83c-0.51821 0.18365-1.0273 0.47814-1.4604 0.78895-0.51739 0.37127-0.9522 0.78248-1.2806 1.1661-0.4154 0.4853-0.67032 0.93464-0.79913 1.3179-0.08198 0.24391-0.1139 0.46268-0.10844 0.65661 7e-3 0.2475 0.07452 0.44854 0.1677 0.60894 0.07548 0.13118 0.17222 0.21472 0.27168 0.26594 0.12857 0.0662 0.25976 0.0776 0.35808 0.0748 0.17716-5e-3 0.34346-0.0617 0.3849-0.0756 0.06587-0.0222 0.05832-0.0197-2e-6 -1e-5 -0.06637 0.0224-0.21975 0.0713-0.38488 0.0769-0.1145 4e-3 -0.24044-0.0123-0.36005-0.0725-0.11584-0.0583-0.20826-0.14908-0.27736-0.26535-0.14081-0.23276-0.16696-0.44992-0.18347-0.49934-0.11546-0.3456 0.05497 0.39314 0.12766 0.53023 0.05998 0.11205 0.15276 0.22658 0.29517 0.30505 0.11415 0.0629 0.24776 0.0956 0.39898 0.0953 0.12716-3.2e-4 0.26538-0.024 0.41552-0.0707 0.13232-0.0412 0.2759-0.10086 0.43187-0.18033 0.26895-0.13704 0.57668-0.33396 0.925-0.59634 0.2972-0.22387 0.619-0.49174 0.95854-0.79846 0.56919-0.51418 1.1696-1.1222 1.6557-1.6712 0.20443-0.23086 0.38316-0.44556 0.5048-0.60952 0.05587-0.0753 0.10574-0.14793 0.139-0.20911 0.0085-0.0157 0.01725-0.033 0.02508-0.0511 0.0074-0.0171 0.01637-0.0404 0.02282-0.0675 0.0054-0.0228 0.01501-0.0719 0.0035-0.13083-0.0062-0.0319-0.01946-0.0712-0.04675-0.1099-0.02809-0.0399-0.06538-0.0709-0.10751-0.0913-0.04874-0.0236-0.09516-0.0293-0.12959-0.0292-0.03381 1.5e-4 -0.06242 6e-3 -0.08309 0.0115-0.03966 0.0108-0.07315 0.0275-0.09661 0.0407-0.04707 0.0264-0.0959 0.0625-0.14289 0.10081-0.05856 0.0477-0.12589 0.10834-0.19983 0.1795-0.04395 0.0423-0.09033 0.0885-0.13851 0.13802-0.2554 0.26235-0.56971 0.62519-0.86245 1.0121-0.29183 0.3857-0.56865 0.80369-0.74329 1.1757-0.08703 0.18538-0.15327 0.36889-0.17961 0.53691-0.01327 0.0846-0.01725 0.17051-0.0058 0.25343 0.01155 0.0837 0.03923 0.16688 0.09084 0.24066 0.07348 0.10273 0.17189 0.17972 0.28311 0.23534 0.11063 0.0553 0.23632 0.0908 0.37034 0.11063 0.26683 0.0395 0.58643 0.0197 0.93236-0.0509 0.57649-0.11764 1.2524-0.38187 1.9303-0.79343 0.1384-0.084 0.27722-0.17409 0.41561-0.27032 0.26541-0.18359 0.64131-0.44743 1.0527-0.74137 0.41134-0.29395 0.85928-0.61881 1.2684-0.92431 0.40785-0.30452 0.78209-0.59344 1.0426-0.81369 0.06547-0.0554 0.1249-0.10734 0.17646-0.15481 0.05107-0.047 0.09703-0.092 0.13417-0.13298 0.01867-0.0206 0.03673-0.042 0.05277-0.0636 0.01544-0.0208 0.03273-0.0468 0.04661-0.0765 0.0071-0.0152 0.01467-0.0343 0.02024-0.0566 0.0055-0.022 0.01015-0.0516 0.0077-0.086-0.0025-0.0356-0.01264-0.0766-0.03674-0.11663-0.02435-0.0404-0.05713-0.0701-0.09114-0.0902-0.04426-0.0261-0.08795-0.0346-0.1205-0.0367-0.03227-2e-3 -0.06033 2e-3 -0.08102 6e-3 -0.04036 8e-3 -0.0764 0.0228-0.10368 0.0357-0.0561 0.0264-0.11724 0.0653-0.17906 0.10912-0.04683 0.0332-0.09769 0.072-0.15163 0.11525-0.0926 0.0743-0.19684 0.16356-0.30879 0.26421-0.3539 0.31818-0.7954 0.75965-1.2098 1.2275-0.41338 0.46665-0.8066 0.9671-1.0586 1.4029-0.12538 0.21684-0.22202 0.42817-0.26445 0.61763-0.02136 0.0954-0.03063 0.19228-0.0185 0.28508 0.01237 0.0947 0.04735 0.18619 0.11395 0.26261 0.10673 0.12127 0.23385 0.21266 0.37416 0.27882 0.13977 0.0659 0.29199 0.10652 0.45048 0.12791 0.31528 0.0426 0.66751 0.0106 1.0226-0.063 0.71051-0.14719 1.4731-0.46971 2.0534-0.76902 0.33155-0.16999 0.75532-0.41754 1.1981-0.69379 0.2776-0.17319 0.56338-0.35812 0.83963-0.54305 0.16503-0.11048 0.32881-0.21735 0.48711-0.31993 0.42073-0.27264 0.80978-0.51924 1.065-0.71422 0.04687-0.0358 0.08988-0.0703 0.12828-0.10348 0.01449-0.0125 0.02845-0.0248 0.04183-0.0368 0.04774-0.0429 0.09152-0.0856 0.12522-0.12554 0.01702-0.0202 0.0339-0.0425 0.04795-0.0663 0.01353-0.023 0.02859-0.0543 0.0352-0.0922 0.0034-0.0196 0.0049-0.0427 0.0015-0.068-0.0034-0.0258-0.01157-0.0525-0.02597-0.0783-0.01441-0.0258-0.03311-0.0471-0.05375-0.0642-0.02028-0.0168-0.04142-0.0286-0.06082-0.037-0.06415-0.0263-0.12573-0.0195-0.1644-0.011-0.04077 9e-3 -0.07889 0.0248-0.11149 0.0412-0.06581 0.033-0.13715 0.0821-0.21146 0.14071-0.15008 0.11833-0.33539 0.29386-0.54477 0.50991-0.41964 0.433-0.94814 1.0416-1.4968 1.7071-0.54886 0.66577-1.1196 1.3905-1.6232 2.056-0.5025 0.66398-0.94205 1.274-1.2264 1.7088-0.15592 0.23883-0.38679 0.53802-0.67944 0.88216-0.19563 0.23004-0.41632 0.4772-0.65631 0.7358-0.11696 0.12603-0.23843 0.25462-0.3637 0.38509-0.76521 0.79693-1.6689 1.66-2.5505 2.4329-0.88398 0.77497-1.7358 1.4504-2.3997 1.8792-0.33529 0.21654-0.60351 0.35758-0.79736 0.42449-0.09918 0.0342-0.15309 0.0404-0.18316 0.0424-0.01215 8.4e-4 -0.01225 8.4e-4 -6e-3 6e-3 0.0073 6e-3 0.01586 0.0146 0.02066 0.0251 0.0037 7e-3 0.02671 0.0821 0.0084 0.0537-0.0044-7e-3 -5.13e-4 -0.0406 0.0211-0.0931 0.04469-0.10843 0.14498-0.25695 0.29489-0.43407 0.29749-0.35148 0.75024-0.77036 1.2258-1.1763 0.94694-0.80844 1.9607-1.5458 1.9443-1.5678a0.085261 0.085261 90 0 0 -0.09648 -0.1406c-0.01633-0.0219-1.0715 0.66048-2.0761 1.4251-0.49958 0.38027-0.99675 0.78854-1.3439 1.1428-0.17157 0.17507-0.3217 0.35203-0.41358 0.51641-0.04615 0.0826-0.08633 0.17711-0.0995 0.27805-0.01384 0.10607 0.0019 0.22665 0.07764 0.33569 0.04659 0.0661 0.10695 0.11825 0.17686 0.1554 0.0686 0.0365 0.14101 0.0557 0.21085 0.0641 0.13588 0.0164 0.27992-6e-3 0.4175-0.0441 0.27672-0.0767 0.60758-0.24042 0.96557-0.45583 0.72101-0.43385 1.6172-1.1179 2.5246-1.8904 0.90894-0.77378 1.8375-1.6435 2.6233-2.4535 0.1289-0.13286 0.25404-0.26421 0.37472-0.39335 0.24738-0.26475 0.47622-0.52082 0.68012-0.76215 0.30202-0.35746 0.55413-0.68821 0.73098-0.97067 0.26146-0.42058 0.67432-1.0275 1.1535-1.7022 0.47845-0.67364 1.0199-1.4105 1.5377-2.0909 0.51859-0.6815 1.0102-1.3021 1.391-1.747 0.19157-0.22378 0.349-0.39589 0.46731-0.51082 0.062-0.0602 0.09985-0.0919 0.12898-0.11494 0.0124-0.01 0.01727-0.0131 0.01013-0.0132-0.0016-2e-5 -0.03877 4e-3 -0.07793-0.0127-0.0089-4e-3 -0.02123-0.0116-0.03407-0.0227-0.01322-0.0114-0.02604-0.0263-0.03599-0.0448-0.01-0.0185-0.01518-0.0371-0.01701-0.0539-0.0018-0.0164-2.03e-4 -0.0298 0.0019-0.0389 0.0046-0.0195 0.01048-0.0215 0.0111-0.0201 0.0011 3e-3 -0.0017 0.0114-0.0079 0.0233-0.01292 0.0248-0.03827 0.0597-0.07497 0.10192-0.01 0.0114-0.02068 0.0234-0.03214 0.0357-0.03048 0.0329-0.06539 0.069-0.10462 0.1082-0.21703 0.21668-0.55455 0.51306-0.95808 0.81256-0.1505 0.1117-0.30994 0.22364-0.47535 0.33181-0.27701 0.18115-0.56396 0.36127-0.84299 0.52875-0.44596 0.26769-0.87055 0.5024-1.2011 0.65729-0.58647 0.27314-1.3396 0.55394-2.0239 0.66081-0.34239 0.0535-0.65785 0.0618-0.92135 0.01-0.13098-0.0259-0.24599-0.066-0.34406-0.12056-0.09756-0.0542-0.17866-0.12274-0.24354-0.20685-0.0076-0.0117-0.01471-0.0309-0.01628-0.0631-0.0017-0.0346 0.0033-0.0828 0.02119-0.14747 0.03614-0.13078 0.11617-0.29811 0.23842-0.49583 0.24301-0.39303 0.62452-0.86111 1.0374-1.3115 0.41148-0.4489 0.84647-0.87197 1.1897-1.1733 0.1083-0.0951 0.2064-0.17714 0.29098-0.2436 0.04928-0.0387 0.09302-0.0716 0.1309-0.0984 0.05413-0.0384 0.08781-0.0585 0.10726-0.0687 0.0095-5e-3 0.0063-2e-3 -0.0087 4.1e-4 -0.0077 1e-3 -0.0244 4e-3 -0.04672 2e-3 -0.02264-2e-3 -0.05798-8e-3 -0.09547-0.0299-0.02775-0.0165-0.05573-0.0415-0.07668-0.0764-0.02071-0.0345-0.0289-0.069-0.03081-0.0972-0.0018-0.0271 2e-3 -0.0483 0.0054-0.0612 0.0034-0.0132 0.0075-0.0221 0.0098-0.0265-0.0063 0.0121 0.01727-0.0287 0.0023-1e-3 -0.0036 7e-3 -0.01072 0.0173-0.02134 0.0313-0.02149 0.0282-0.0538 0.0652-0.09646 0.10988-0.0424 0.0445-0.09358 0.095-0.15255 0.15092-0.23675 0.2244-0.58795 0.52383-0.98112 0.84467-0.39262 0.32038-0.8251 0.66051-1.2248 0.96713-0.39969 0.30663-0.76601 0.57934-1.0263 0.76496-0.13221 0.0938-0.26535 0.1809-0.39858 0.26124-0.6552 0.39514-1.3046 0.63015-1.8428 0.71814-0.32488 0.0531-0.60094 0.0513-0.80889 5e-3 -0.10348-0.0229-0.18542-0.0559-0.24681-0.0944-0.06104-0.0384-0.09881-0.0804-0.12111-0.12195-0.0039-9e-3 -0.0091-0.0272-0.01018-0.0563-0.0011-0.0305 0.0023-0.0715 0.01431-0.12516 0.02434-0.10869 0.0786-0.24602 0.16316-0.40832 0.16838-0.32316 0.43472-0.70339 0.72594-1.0697 0.28998-0.36478 0.59702-0.70627 0.83954-0.94976 0.0454-0.0456 0.08821-0.0874 0.12802-0.12513 0.06777-0.0642 0.12387-0.11347 0.16736-0.14816 0.03698-0.0295 0.05986-0.0443 0.06635-0.0474 0.0019-8.9e-4 -0.0019 3e-3 -0.02556 0.01-0.01082 3e-3 -0.03064 7e-3 -0.05679 8e-3 -0.02669 1.3e-4 -0.0665-4e-3 -0.10978-0.0252-0.03899-0.0189-0.07377-0.0478-0.09993-0.0849-0.02535-0.036-0.03727-0.0719-0.04271-0.0999-0.0099-0.051-0.0012-0.0898 0.0013-0.10005 0.0034-0.0142 0.0072-0.0231 0.0071-0.0229 5.61e-4 -1e-3 -7.94e-4 2e-3 -0.0037 7e-3 -0.01476 0.0265-0.04644 0.0745-0.09881 0.14459-0.10869 0.14553-0.2763 0.34692-0.47635 0.57243-0.47353 0.53381-1.0593 1.1275-1.6128 1.6289-0.32962 0.29862-0.63836 0.55654-0.91971 0.76993-0.33073 0.25085-0.61069 0.43045-0.8432 0.55112-0.13438 0.0697-0.24937 0.11796-0.34704 0.14964-0.11114 0.0361-0.19587 0.0494-0.25917 0.051-0.07244 2e-3 -0.11746-0.0118-0.14593-0.0258-0.03589-0.0177-0.06669-0.0467-0.09438-0.093-0.14566-0.24549-0.11794-0.35306-0.12644-0.32046-0.0087 0.0335-0.0083 0.18772 0.07063 0.35135 0.03031 0.063 0.06797 0.10508 0.11218 0.13272 0.04828 0.0302 0.10977 0.0465 0.18485 0.0486 0.11222 3e-3 0.22772-0.0266 0.28981-0.0447 0.04906-0.0143 0.05538-0.0162-2e-6 -1e-5 -0.04238 0.0124-0.16814 0.0484-0.28979 0.0461-0.06666-1e-3 -0.132-0.0137-0.18683-0.0462-0.03915-0.0232-0.08153-0.0616-0.11787-0.13213-0.0582-0.11294-0.09883-0.25465-0.09528-0.43395 0.0028-0.14198 0.03348-0.31206 0.10994-0.51242 0.12068-0.31625 0.35731-0.70948 0.75652-1.1476 0.31502-0.34569 0.73226-0.71831 1.225-1.0504 0.4152-0.27989 0.88614-0.53117 1.3448-0.67643a0.2847 0.2847 90 0 0 -0.18176 -0.53962z"/><path d="m95.705 250.56c0.02647-8e-3 0.05686-0.0191 0.09018-0.0327 0.03355-0.0137 0.07133-0.0302 0.11283-0.0494 0.08296-0.0384 0.18248-0.0879 0.29555-0.14667 0.0502-0.0261 0.10317-0.0541 0.15866-0.0838 0.19906-0.0963 0.43006-0.21375 0.68274-0.34631 0.64925-0.34063 1.4429-0.78192 2.2062-1.2231 0.76123-0.43993 1.4999-0.8841 2.0325-1.2274 0.26287-0.16944 0.49137-0.32444 0.64364-0.44306 0.0392-0.0305 0.0766-0.0612 0.10984-0.091 0.0323-0.0289 0.0669-0.0626 0.097-0.0998 0.0153-0.0189 0.0325-0.0424 0.0483-0.0702 0.0152-0.0268 0.0339-0.0658 0.0454-0.11506 0.0116-0.0497 0.0184-0.12204-6e-3 -0.20382-0.0254-0.0869-0.0779-0.15743-0.14216-0.20683-0.0766-0.0635-0.16624-0.1079-0.26438-0.12996-0.0968-0.0218-0.19148-0.0195-0.27764-4e-3 -0.16722 0.031-0.31382 0.11522-0.43036 0.20613-0.0726 0.0566-0.14062 0.1213-0.20341 0.19051-0.14545 0.16034-0.27101 0.35681-0.36643 0.56244-0.13425 0.28931-0.22275 0.62777-0.19863 0.93626 0.0122 0.1564 0.0548 0.31989 0.1502 0.46082 0.0481 0.071 0.10795 0.13378 0.17979 0.18484 0.0717 0.051 0.15116 0.0873 0.2358 0.11036 0.19582 0.056 0.42812 0.0713 0.66721 0.0659 0.24281-6e-3 0.51282-0.0331 0.79295-0.0745 0.36131-0.0534 0.74848-0.13122 1.1301-0.21982 0.21155-0.0491 0.42257-0.10079 0.62761-0.15358 0.57271-0.14744 1.1093-0.3062 1.4849-0.4448 0.0945-0.0349 0.18111-0.0693 0.25661-0.10273 0.0744-0.0329 0.14367-0.0673 0.20072-0.10282 0.0287-0.0179 0.0579-0.0382 0.0847-0.0614 0.0256-0.0221 0.0568-0.0536 0.0817-0.0957 0.0129-0.0218 0.0257-0.0492 0.034-0.082 8e-3 -0.0301 0.0115-0.0646 8e-3 -0.10187-3.7e-4 -4e-3 -8.3e-4 -8e-3 -1e-3 -0.0116-6e-3 -0.042-0.0203-0.0807-0.041-0.11459-0.0202-0.0332-0.0445-0.0588-0.0676-0.0782-0.0609-0.0506-0.1292-0.0731-0.18665-0.0827-0.0569-9e-3 -0.11288-8e-3 -0.16239-2e-3 -0.0982 0.0112-0.20523 0.0426-0.31275 0.083-0.2174 0.0818-0.48482 0.21946-0.7784 0.39251-0.58952 0.34751-1.3156 0.85648-2.0079 1.4047-0.69136 0.54745-1.3584 1.1414-1.8247 1.6602-0.0638 0.071-0.1242 0.14098-0.18059 0.20953-0.14947 0.18171-0.27512 0.35851-0.36281 0.52303-0.0595 0.11171-0.1082 0.23001-0.12933 0.34829-0.0108 0.0602-0.0153 0.12563-8e-3 0.19288 8e-3 0.0683 0.0287 0.13854 0.068 0.20422 0.0492 0.0837 0.11764 0.14354 0.18732 0.18596 0.0689 0.042 0.1446 0.0703 0.21937 0.0901 0.14782 0.0392 0.32436 0.0535 0.51296 0.053 0.37945-9e-4 0.87133-0.0621 1.4226-0.16608 1.107-0.20872 2.5054-0.5997 3.8392-1.0837 0.66768-0.24229 1.3208-0.50848 1.915-0.78782 0.59386-0.27919 1.1301-0.57213 1.5636-0.86823 0.21673-0.14807 0.40847-0.29741 0.56915-0.44679 0.16051-0.14922 0.29127-0.29962 0.38489-0.45012 0.0936-0.15051 0.15146-0.30325 0.16283-0.45651 1e-3 -0.0144 2e-3 -0.0288 2e-3 -0.0431 2e-3 -0.13946-0.0339-0.27586-0.11197-0.4078-0.099-0.17208-0.23415-0.29981-0.40189-0.38571-0.16729-0.0857-0.3624-0.1272-0.57284-0.13084-0.41928-7e-3 -0.90051 0.13601-1.3435 0.38275-0.35442 0.19741-0.68967 0.46412-0.94793 0.77783-0.0643 0.0781-0.12443 0.15875-0.17962 0.24159-0.13807 0.20728-0.24707 0.43133-0.30885 0.66381-0.062 0.23333-0.0769 0.47761-0.0226 0.71799 0.12424 0.55852 0.43386 1.0527 0.89356 1.4431 0.45826 0.38919 1.0633 0.67427 1.7903 0.8329 0.87515 0.19097 1.9398 0.20182 3.1748-0.018 0.81703-0.14543 1.7176-0.37767 2.6902-0.74299a0.15974 0.15974 90 0 0 -0.11234 -0.29908c-0.95503 0.35872-1.8316 0.60351-2.6303 0.72693-1.2091 0.18684-2.2209 0.1285-3.0182-0.0912-0.66247-0.18254-1.1683-0.47381-1.5226-0.81964-0.35286-0.34449-0.55673-0.74352-0.62758-1.1596-0.0186-0.12404-6e-3 -0.25996 0.0386-0.40701 0.045-0.14815 0.12201-0.30529 0.22852-0.46597 0.0422-0.0637 0.0887-0.12737 0.13904-0.19064 0.20326-0.25544 0.45666-0.50665 0.7336-0.7202 0.34571-0.26657 0.71892-0.46707 1.0523-0.53575 0.16579-0.0342 0.32178-0.0357 0.45904 4e-3 0.13681 0.0396 0.25959 0.1217 0.35161 0.25984 0.0677 0.10484 0.0983 0.21196 0.0966 0.32114-1.8e-4 0.0114-7e-4 0.0228-2e-3 0.0343-9e-3 0.12212-0.0571 0.25052-0.14327 0.38425-0.0862 0.13379-0.20929 0.27085-0.36555 0.40963-0.15613 0.13867-0.34411 0.27795-0.55888 0.4165-0.42972 0.27721-0.96376 0.54963-1.5583 0.8072-0.59441 0.25751-1.248 0.49963-1.9162 0.71652-1.3377 0.43418-2.729 0.76564-3.8152 0.91766-0.54456 0.0762-1.0027 0.10583-1.3326 0.084-0.16564-0.011-0.28654-0.0343-0.36297-0.0636-0.0371-0.0143-0.0577-0.0278-0.064-0.0354-7e-3 -8e-3 6e-3 -4e-3 0.0182 0.0131 0.0124 0.0168 0.0167 0.0309 0.0199 0.0374 3e-3 6e-3 4e-3 2e-3 9e-3 -0.0108 0.012-0.0313 0.0323-0.079 0.0815-0.15826 0.0688-0.11103 0.17244-0.24784 0.31219-0.40929 0.0516-0.0596 0.10733-0.12166 0.16693-0.18594 0.44107-0.47565 1.0734-1.0502 1.7409-1.5996 0.66631-0.54845 1.355-1.0614 1.9025-1.4143 0.2755-0.17755 0.50512-0.30796 0.67523-0.38421 0.0874-0.0392 0.14278-0.0568 0.17827-0.0653 0.0158-4e-3 0.0192-4e-3 0.0104-6e-3 -8e-3 -2e-3 -0.0373-0.01-0.0677-0.0359-0.0132-0.0114-0.0298-0.0286-0.0444-0.0528-0.015-0.025-0.026-0.0543-0.0303-0.0864-3.9e-4 -3e-3 -7.2e-4 -6e-3 -9.9e-4 -9e-3 -3e-3 -0.0283 5.1e-4 -0.0534 6e-3 -0.0737 6e-3 -0.022 0.0141-0.0382 0.0205-0.0484 0.0142-0.0226 0.0203-0.0217 0.0202-0.0212-5.1e-4 3e-3 -8e-3 0.0112-0.0205 0.0221-0.0263 0.0226-0.0701 0.0525-0.13017 0.0869-0.0596 0.0342-0.13249 0.0715-0.21708 0.11088-0.33981 0.15807-0.84803 0.33972-1.4102 0.48841-0.19993 0.0529-0.40623 0.10147-0.61366 0.1433-0.37515 0.0756-0.75163 0.13199-1.0981 0.15944-0.26954 0.0214-0.5175 0.0249-0.72962 8e-3 -0.21475-0.0176-0.37956-0.0558-0.48586-0.10793-0.0206-0.0143-0.0293-0.0283-0.0329-0.0397-3e-3 -0.0108-3e-3 -0.0225-3e-3 -0.0343 3.3e-4 -0.0215 4.9e-4 -0.0705 0.0117-0.13626 0.0252-0.14728 0.097-0.34107 0.21683-0.55153 0.081-0.14222 0.17156-0.26997 0.25803-0.37097 0.0368-0.0429 0.0702-0.0776 0.10002-0.1054 0.0506-0.0473 0.0804-0.0635 0.0717-0.0679-5e-3 -3e-3 -0.0228-4e-3 -0.044-0.0127-0.0229-9e-3 -0.0427-0.0231-0.0527-0.0377-0.0554-0.0429-0.10204-0.10525-0.12444-0.1824-0.0209-0.0721-0.0139-0.13308-5e-3 -0.17003 9e-3 -0.0368 0.0221-0.0609 0.0293-0.0722 8e-3 -0.0126 0.0137-0.0177 0.016-0.0185 6e-3 -2e-3 -2e-3 0.0116-0.014 0.0285-0.0133 0.018-0.0335 0.0414-0.0597 0.0688-0.10695 0.11186-0.29509 0.27217-0.53869 0.46218-0.48656 0.37951-1.1811 0.86796-1.9088 1.3574-0.72757 0.48933-1.4871 0.97882-2.1067 1.363-0.2411 0.14946-0.46073 0.28278-0.64904 0.39395-0.05484 0.0294-0.10706 0.057-0.15642 0.0826-0.11146 0.058-0.2079 0.1059-0.2869 0.14243-0.03949 0.0183-0.0742 0.0335-0.10396 0.0456-0.03 0.0122-0.05375 0.0208-0.07157 0.0261a0.10377 0.10377 90 0 0 0.05964 0.1988z"/></g></g></svg>
